<?xml version="1.0" encoding="utf-8" standalone="no"?>
<!DOCTYPE svg PUBLIC "-//W3C//DTD SVG 1.1//EN"
  "http://www.w3.org/Graphics/SVG/1.1/DTD/svg11.dtd">
<!-- Created with matplotlib (https://matplotlib.org/) -->
<svg height="163.136327pt" version="1.1" viewBox="0 0 361.760938 163.136327" width="361.760938pt" xmlns="http://www.w3.org/2000/svg" xmlns:xlink="http://www.w3.org/1999/xlink">
 <defs>
  <style type="text/css">
*{stroke-linecap:butt;stroke-linejoin:round;}
  </style>
 </defs>
 <g id="figure_1">
  <g id="patch_1">
   <path d="M 0 163.136327 
L 361.760938 163.136327 
L 361.760938 0 
L 0 0 
z
" style="fill:#ffffff;"/>
  </g>
  <g id="axes_1">
   <g id="patch_2">
    <path d="M 19.760938 119.414452 
L 354.560938 119.414452 
L 354.560938 10.694452 
L 19.760938 10.694452 
z
" style="fill:#eaeaf2;"/>
   </g>
   <g id="matplotlib.axis_1">
    <g id="xtick_1">
     <g id="line2d_1">
      <path clip-path="url(#p05d145fcab)" d="M 27.404095 119.414452 
L 27.404095 10.694452 
" style="fill:none;stroke:#ffffff;stroke-linecap:round;"/>
     </g>
     <g id="line2d_2"/>
     <g id="text_1">
      <!-- −0.2 -->
      <defs>
       <path d="M 4.9375 29.6875 
L 4.9375 36.8125 
L 53.515625 36.8125 
L 53.515625 29.6875 
z
" id="LiberationSans-8722"/>
       <path d="M 51.703125 34.421875 
Q 51.703125 24.515625 49.828125 17.75 
Q 47.953125 10.984375 44.703125 6.8125 
Q 41.453125 2.640625 37.0625 0.828125 
Q 32.671875 -0.984375 27.6875 -0.984375 
Q 22.65625 -0.984375 18.3125 0.828125 
Q 13.96875 2.640625 10.765625 6.78125 
Q 7.5625 10.9375 5.734375 17.703125 
Q 3.90625 24.46875 3.90625 34.421875 
Q 3.90625 44.828125 5.734375 51.640625 
Q 7.5625 58.453125 10.78125 62.5 
Q 14.015625 66.546875 18.40625 68.1875 
Q 22.796875 69.828125 27.984375 69.828125 
Q 32.90625 69.828125 37.21875 68.1875 
Q 41.546875 66.546875 44.765625 62.5 
Q 48 58.453125 49.84375 51.640625 
Q 51.703125 44.828125 51.703125 34.421875 
z
M 42.78125 34.421875 
Q 42.78125 42.625 41.796875 48.0625 
Q 40.828125 53.515625 38.921875 56.765625 
Q 37.015625 60.015625 34.25 61.359375 
Q 31.5 62.703125 27.984375 62.703125 
Q 24.265625 62.703125 21.4375 61.328125 
Q 18.609375 59.96875 16.671875 56.71875 
Q 14.75 53.46875 13.765625 48.015625 
Q 12.796875 42.578125 12.796875 34.421875 
Q 12.796875 26.515625 13.796875 21.09375 
Q 14.796875 15.671875 16.71875 12.375 
Q 18.65625 9.078125 21.4375 7.640625 
Q 24.21875 6.203125 27.78125 6.203125 
Q 31.25 6.203125 34.03125 7.640625 
Q 36.8125 9.078125 38.734375 12.375 
Q 40.671875 15.671875 41.71875 21.09375 
Q 42.78125 26.515625 42.78125 34.421875 
z
" id="LiberationSans-48"/>
       <path d="M 9.125 0 
L 9.125 10.6875 
L 18.65625 10.6875 
L 18.65625 0 
z
" id="LiberationSans-46"/>
       <path d="M 5.03125 0 
L 5.03125 6.203125 
Q 7.515625 11.921875 11.109375 16.28125 
Q 14.703125 20.65625 18.65625 24.1875 
Q 22.609375 27.734375 26.484375 30.765625 
Q 30.375 33.796875 33.5 36.8125 
Q 36.625 39.84375 38.546875 43.15625 
Q 40.484375 46.484375 40.484375 50.6875 
Q 40.484375 53.609375 39.59375 55.828125 
Q 38.71875 58.0625 37.0625 59.5625 
Q 35.40625 61.078125 33.078125 61.828125 
Q 30.765625 62.59375 27.9375 62.59375 
Q 25.296875 62.59375 22.96875 61.859375 
Q 20.65625 61.140625 18.84375 59.671875 
Q 17.046875 58.203125 15.890625 56.03125 
Q 14.75 53.859375 14.40625 50.984375 
L 5.421875 51.8125 
Q 5.859375 55.515625 7.46875 58.78125 
Q 9.078125 62.0625 11.90625 64.53125 
Q 14.75 67 18.71875 68.40625 
Q 22.703125 69.828125 27.9375 69.828125 
Q 33.0625 69.828125 37.0625 68.609375 
Q 41.0625 67.390625 43.8125 64.984375 
Q 46.578125 62.59375 48.046875 59.078125 
Q 49.515625 55.5625 49.515625 50.984375 
Q 49.515625 47.515625 48.265625 44.390625 
Q 47.015625 41.265625 44.9375 38.421875 
Q 42.875 35.59375 40.140625 32.953125 
Q 37.40625 30.328125 34.421875 27.8125 
Q 31.453125 25.296875 28.421875 22.828125 
Q 25.390625 20.359375 22.71875 17.859375 
Q 20.0625 15.375 17.96875 12.8125 
Q 15.875 10.25 14.703125 7.46875 
L 50.59375 7.46875 
L 50.59375 0 
z
" id="LiberationSans-50"/>
      </defs>
      <g style="fill:#262626;" transform="translate(17.533783 133.661327)scale(0.1 -0.1)">
       <use xlink:href="#LiberationSans-8722"/>
       <use x="58.398438" xlink:href="#LiberationSans-48"/>
       <use x="114.013672" xlink:href="#LiberationSans-46"/>
       <use x="141.796875" xlink:href="#LiberationSans-50"/>
      </g>
     </g>
    </g>
    <g id="xtick_2">
     <g id="line2d_3">
      <path clip-path="url(#p05d145fcab)" d="M 79.199281 119.414452 
L 79.199281 10.694452 
" style="fill:none;stroke:#ffffff;stroke-linecap:round;"/>
     </g>
     <g id="line2d_4"/>
     <g id="text_2">
      <!-- −0.1 -->
      <defs>
       <path d="M 7.625 0 
L 7.625 7.46875 
L 25.140625 7.46875 
L 25.140625 60.40625 
L 9.625 49.3125 
L 9.625 57.625 
L 25.875 68.796875 
L 33.984375 68.796875 
L 33.984375 7.46875 
L 50.734375 7.46875 
L 50.734375 0 
z
" id="LiberationSans-49"/>
      </defs>
      <g style="fill:#262626;" transform="translate(69.328969 133.661327)scale(0.1 -0.1)">
       <use xlink:href="#LiberationSans-8722"/>
       <use x="58.398438" xlink:href="#LiberationSans-48"/>
       <use x="114.013672" xlink:href="#LiberationSans-46"/>
       <use x="141.796875" xlink:href="#LiberationSans-49"/>
      </g>
     </g>
    </g>
    <g id="xtick_3">
     <g id="line2d_5">
      <path clip-path="url(#p05d145fcab)" d="M 130.994467 119.414452 
L 130.994467 10.694452 
" style="fill:none;stroke:#ffffff;stroke-linecap:round;"/>
     </g>
     <g id="line2d_6"/>
     <g id="text_3">
      <!-- 0.0 -->
      <g style="fill:#262626;" transform="translate(124.044467 133.661327)scale(0.1 -0.1)">
       <use xlink:href="#LiberationSans-48"/>
       <use x="55.615234" xlink:href="#LiberationSans-46"/>
       <use x="83.398438" xlink:href="#LiberationSans-48"/>
      </g>
     </g>
    </g>
    <g id="xtick_4">
     <g id="line2d_7">
      <path clip-path="url(#p05d145fcab)" d="M 182.789653 119.414452 
L 182.789653 10.694452 
" style="fill:none;stroke:#ffffff;stroke-linecap:round;"/>
     </g>
     <g id="line2d_8"/>
     <g id="text_4">
      <!-- 0.1 -->
      <g style="fill:#262626;" transform="translate(175.839653 133.661327)scale(0.1 -0.1)">
       <use xlink:href="#LiberationSans-48"/>
       <use x="55.615234" xlink:href="#LiberationSans-46"/>
       <use x="83.398438" xlink:href="#LiberationSans-49"/>
      </g>
     </g>
    </g>
    <g id="xtick_5">
     <g id="line2d_9">
      <path clip-path="url(#p05d145fcab)" d="M 234.584839 119.414452 
L 234.584839 10.694452 
" style="fill:none;stroke:#ffffff;stroke-linecap:round;"/>
     </g>
     <g id="line2d_10"/>
     <g id="text_5">
      <!-- 0.2 -->
      <g style="fill:#262626;" transform="translate(227.634839 133.661327)scale(0.1 -0.1)">
       <use xlink:href="#LiberationSans-48"/>
       <use x="55.615234" xlink:href="#LiberationSans-46"/>
       <use x="83.398438" xlink:href="#LiberationSans-50"/>
      </g>
     </g>
    </g>
    <g id="xtick_6">
     <g id="line2d_11">
      <path clip-path="url(#p05d145fcab)" d="M 286.380025 119.414452 
L 286.380025 10.694452 
" style="fill:none;stroke:#ffffff;stroke-linecap:round;"/>
     </g>
     <g id="line2d_12"/>
     <g id="text_6">
      <!-- 0.3 -->
      <defs>
       <path d="M 51.21875 19 
Q 51.21875 14.265625 49.671875 10.546875 
Q 48.140625 6.84375 45.1875 4.265625 
Q 42.234375 1.703125 37.859375 0.359375 
Q 33.5 -0.984375 27.875 -0.984375 
Q 21.484375 -0.984375 17.109375 0.609375 
Q 12.75 2.203125 9.90625 4.8125 
Q 7.078125 7.421875 5.65625 10.765625 
Q 4.25 14.109375 3.8125 17.671875 
L 12.890625 18.5 
Q 13.28125 15.765625 14.328125 13.515625 
Q 15.375 11.28125 17.1875 9.671875 
Q 19 8.0625 21.625 7.171875 
Q 24.265625 6.296875 27.875 6.296875 
Q 34.515625 6.296875 38.296875 9.5625 
Q 42.09375 12.84375 42.09375 19.28125 
Q 42.09375 23.09375 40.40625 25.40625 
Q 38.71875 27.734375 36.203125 29.03125 
Q 33.6875 30.328125 30.734375 30.765625 
Q 27.78125 31.203125 25.296875 31.203125 
L 20.3125 31.203125 
L 20.3125 38.8125 
L 25.09375 38.8125 
Q 27.59375 38.8125 30.265625 39.328125 
Q 32.953125 39.84375 35.171875 41.1875 
Q 37.40625 42.53125 38.84375 44.828125 
Q 40.28125 47.125 40.28125 50.6875 
Q 40.28125 56.203125 37.03125 59.390625 
Q 33.796875 62.59375 27.390625 62.59375 
Q 21.578125 62.59375 17.984375 59.609375 
Q 14.40625 56.640625 13.8125 51.21875 
L 4.984375 51.90625 
Q 5.515625 56.453125 7.46875 59.8125 
Q 9.421875 63.1875 12.421875 65.40625 
Q 15.4375 67.625 19.28125 68.71875 
Q 23.140625 69.828125 27.484375 69.828125 
Q 33.25 69.828125 37.390625 68.375 
Q 41.546875 66.9375 44.1875 64.46875 
Q 46.828125 62.015625 48.0625 58.6875 
Q 49.3125 55.375 49.3125 51.609375 
Q 49.3125 48.578125 48.484375 45.9375 
Q 47.65625 43.3125 45.890625 41.203125 
Q 44.140625 39.109375 41.421875 37.59375 
Q 38.71875 36.078125 34.90625 35.296875 
L 34.90625 35.109375 
Q 39.0625 34.671875 42.140625 33.21875 
Q 45.21875 31.78125 47.21875 29.625 
Q 49.21875 27.484375 50.21875 24.75 
Q 51.21875 22.015625 51.21875 19 
z
" id="LiberationSans-51"/>
      </defs>
      <g style="fill:#262626;" transform="translate(279.430025 133.661327)scale(0.1 -0.1)">
       <use xlink:href="#LiberationSans-48"/>
       <use x="55.615234" xlink:href="#LiberationSans-46"/>
       <use x="83.398438" xlink:href="#LiberationSans-51"/>
      </g>
     </g>
    </g>
    <g id="xtick_7">
     <g id="line2d_13">
      <path clip-path="url(#p05d145fcab)" d="M 338.17521 119.414452 
L 338.17521 10.694452 
" style="fill:none;stroke:#ffffff;stroke-linecap:round;"/>
     </g>
     <g id="line2d_14"/>
     <g id="text_7">
      <!-- 0.4 -->
      <defs>
       <path d="M 43.015625 15.578125 
L 43.015625 0 
L 34.71875 0 
L 34.71875 15.578125 
L 2.296875 15.578125 
L 2.296875 22.40625 
L 33.796875 68.796875 
L 43.015625 68.796875 
L 43.015625 22.515625 
L 52.6875 22.515625 
L 52.6875 15.578125 
z
M 34.71875 58.890625 
Q 34.625 58.640625 34.234375 57.9375 
Q 33.84375 57.234375 33.34375 56.34375 
Q 32.859375 55.46875 32.34375 54.5625 
Q 31.84375 53.65625 31.453125 53.078125 
L 13.8125 27.09375 
Q 13.578125 26.703125 13.109375 26.0625 
Q 12.640625 25.4375 12.15625 24.78125 
Q 11.671875 24.125 11.171875 23.484375 
Q 10.6875 22.859375 10.40625 22.515625 
L 34.71875 22.515625 
z
" id="LiberationSans-52"/>
      </defs>
      <g style="fill:#262626;" transform="translate(331.22521 133.661327)scale(0.1 -0.1)">
       <use xlink:href="#LiberationSans-48"/>
       <use x="55.615234" xlink:href="#LiberationSans-46"/>
       <use x="83.398438" xlink:href="#LiberationSans-52"/>
      </g>
     </g>
    </g>
    <g id="text_8">
     <!-- $\hat{\beta}$ -->
     <defs>
      <path d="M -28.609375 79.984375 
L -21.390625 79.984375 
L -9.421875 61.625 
L -16.21875 61.625 
L -25 73.578125 
L -33.796875 61.625 
L -40.578125 61.625 
z
M -25 56 
z
" id="DejaVuSans-770"/>
      <path d="M 13.625 3.375 
L 8.9375 -20.796875 
L -0.09375 -20.796875 
L 14.5 54.34375 
Q 18.84375 76.609375 39.65625 76.609375 
Q 60.75 76.609375 57.171875 57.8125 
Q 54.734375 44.4375 45.21875 39.546875 
Q 58.015625 35.15625 55.515625 22.125 
Q 51.125 -1.078125 27.484375 -1.03125 
Q 17.140625 -0.984375 13.625 3.375 
z
M 15.921875 15.09375 
Q 19.671875 6.59375 29.296875 6.640625 
Q 43.359375 6.640625 46.34375 21.96875 
Q 49.03125 35.75 26.171875 34.671875 
L 27.78125 42.96875 
Q 45.453125 42.671875 48.53125 58.59375 
Q 50.640625 69.34375 39.203125 69.28125 
Q 26.421875 69.28125 23.484375 54.046875 
z
" id="DejaVuSans-Oblique-946"/>
     </defs>
     <g style="fill:#262626;" transform="translate(183.320938 153.416327)scale(0.12 -0.12)">
      <use transform="translate(64.532715 34.015625)" xlink:href="#DejaVuSans-770"/>
      <use transform="translate(0 0.90625)" xlink:href="#DejaVuSans-Oblique-946"/>
     </g>
    </g>
   </g>
   <g id="matplotlib.axis_2">
    <g id="ytick_1">
     <g id="line2d_15">
      <path clip-path="url(#p05d145fcab)" d="M 19.760938 119.414452 
L 354.560938 119.414452 
" style="fill:none;stroke:#ffffff;stroke-linecap:round;"/>
     </g>
     <g id="line2d_16"/>
     <g id="text_9">
      <!-- 0 -->
      <g style="fill:#ffffff;" transform="translate(7.2 123.03789)scale(0.1 -0.1)">
       <use xlink:href="#LiberationSans-48"/>
      </g>
     </g>
    </g>
    <g id="ytick_2">
     <g id="line2d_17">
      <path clip-path="url(#p05d145fcab)" d="M 19.760938 92.266698 
L 354.560938 92.266698 
" style="fill:none;stroke:#ffffff;stroke-linecap:round;"/>
     </g>
     <g id="line2d_18"/>
     <g id="text_10">
      <!-- 2 -->
      <g style="fill:#ffffff;" transform="translate(7.2 95.890136)scale(0.1 -0.1)">
       <use xlink:href="#LiberationSans-50"/>
      </g>
     </g>
    </g>
    <g id="ytick_3">
     <g id="line2d_19">
      <path clip-path="url(#p05d145fcab)" d="M 19.760938 65.118945 
L 354.560938 65.118945 
" style="fill:none;stroke:#ffffff;stroke-linecap:round;"/>
     </g>
     <g id="line2d_20"/>
     <g id="text_11">
      <!-- 4 -->
      <g style="fill:#ffffff;" transform="translate(7.2 68.742382)scale(0.1 -0.1)">
       <use xlink:href="#LiberationSans-52"/>
      </g>
     </g>
    </g>
    <g id="ytick_4">
     <g id="line2d_21">
      <path clip-path="url(#p05d145fcab)" d="M 19.760938 37.971191 
L 354.560938 37.971191 
" style="fill:none;stroke:#ffffff;stroke-linecap:round;"/>
     </g>
     <g id="line2d_22"/>
     <g id="text_12">
      <!-- 6 -->
      <defs>
       <path d="M 51.21875 22.515625 
Q 51.21875 17.328125 49.78125 13 
Q 48.34375 8.6875 45.53125 5.578125 
Q 42.71875 2.484375 38.5625 0.75 
Q 34.421875 -0.984375 29 -0.984375 
Q 23 -0.984375 18.5 1.3125 
Q 14.015625 3.609375 11.03125 7.921875 
Q 8.0625 12.25 6.5625 18.53125 
Q 5.078125 24.8125 5.078125 32.8125 
Q 5.078125 42 6.765625 48.921875 
Q 8.453125 55.859375 11.625 60.5 
Q 14.796875 65.140625 19.359375 67.484375 
Q 23.921875 69.828125 29.6875 69.828125 
Q 33.203125 69.828125 36.28125 69.09375 
Q 39.359375 68.359375 41.875 66.71875 
Q 44.390625 65.09375 46.28125 62.40625 
Q 48.1875 59.71875 49.3125 55.8125 
L 40.921875 54.296875 
Q 39.546875 58.734375 36.546875 60.71875 
Q 33.546875 62.703125 29.59375 62.703125 
Q 25.984375 62.703125 23.046875 60.984375 
Q 20.125 59.28125 18.0625 55.875 
Q 16.015625 52.484375 14.90625 47.359375 
Q 13.8125 42.234375 13.8125 35.40625 
Q 16.21875 39.84375 20.5625 42.15625 
Q 24.90625 44.484375 30.515625 44.484375 
Q 35.203125 44.484375 39.015625 42.96875 
Q 42.828125 41.453125 45.53125 38.59375 
Q 48.25 35.75 49.734375 31.671875 
Q 51.21875 27.59375 51.21875 22.515625 
z
M 42.28125 22.125 
Q 42.28125 25.6875 41.40625 28.5625 
Q 40.53125 31.453125 38.765625 33.46875 
Q 37.015625 35.5 34.421875 36.59375 
Q 31.84375 37.703125 28.421875 37.703125 
Q 26.03125 37.703125 23.578125 36.984375 
Q 21.140625 36.28125 19.15625 34.6875 
Q 17.1875 33.109375 15.9375 30.515625 
Q 14.703125 27.9375 14.703125 24.21875 
Q 14.703125 20.40625 15.671875 17.109375 
Q 16.65625 13.8125 18.484375 11.375 
Q 20.3125 8.9375 22.890625 7.515625 
Q 25.484375 6.109375 28.71875 6.109375 
Q 31.890625 6.109375 34.40625 7.203125 
Q 36.921875 8.296875 38.671875 10.375 
Q 40.4375 12.453125 41.359375 15.421875 
Q 42.28125 18.40625 42.28125 22.125 
z
" id="LiberationSans-54"/>
      </defs>
      <g style="fill:#ffffff;" transform="translate(7.2 41.594629)scale(0.1 -0.1)">
       <use xlink:href="#LiberationSans-54"/>
      </g>
     </g>
    </g>
    <g id="ytick_5">
     <g id="line2d_23">
      <path clip-path="url(#p05d145fcab)" d="M 19.760938 10.823437 
L 354.560938 10.823437 
" style="fill:none;stroke:#ffffff;stroke-linecap:round;"/>
     </g>
     <g id="line2d_24"/>
     <g id="text_13">
      <!-- 8 -->
      <defs>
       <path d="M 51.265625 19.1875 
Q 51.265625 14.796875 49.875 11.109375 
Q 48.484375 7.421875 45.625 4.734375 
Q 42.78125 2.046875 38.328125 0.53125 
Q 33.890625 -0.984375 27.828125 -0.984375 
Q 21.78125 -0.984375 17.359375 0.53125 
Q 12.9375 2.046875 10.03125 4.703125 
Q 7.125 7.375 5.734375 11.0625 
Q 4.34375 14.75 4.34375 19.09375 
Q 4.34375 22.859375 5.484375 25.78125 
Q 6.640625 28.71875 8.5625 30.828125 
Q 10.5 32.953125 12.96875 34.25 
Q 15.4375 35.546875 18.0625 35.984375 
L 18.0625 36.1875 
Q 15.1875 36.859375 12.90625 38.375 
Q 10.640625 39.890625 9.09375 42.015625 
Q 7.5625 44.140625 6.75 46.71875 
Q 5.953125 49.3125 5.953125 52.203125 
Q 5.953125 55.8125 7.34375 59 
Q 8.734375 62.203125 11.46875 64.625 
Q 14.203125 67.046875 18.25 68.4375 
Q 22.3125 69.828125 27.640625 69.828125 
Q 33.25 69.828125 37.375 68.40625 
Q 41.5 67 44.203125 64.578125 
Q 46.921875 62.15625 48.234375 58.9375 
Q 49.5625 55.71875 49.5625 52.09375 
Q 49.5625 49.265625 48.75 46.671875 
Q 47.953125 44.09375 46.40625 41.96875 
Q 44.875 39.84375 42.59375 38.34375 
Q 40.328125 36.859375 37.359375 36.28125 
L 37.359375 36.078125 
Q 40.328125 35.59375 42.859375 34.296875 
Q 45.40625 33.015625 47.265625 30.890625 
Q 49.125 28.765625 50.1875 25.828125 
Q 51.265625 22.90625 51.265625 19.1875 
z
M 40.4375 51.609375 
Q 40.4375 54.203125 39.765625 56.34375 
Q 39.109375 58.5 37.59375 60.03125 
Q 36.078125 61.578125 33.640625 62.421875 
Q 31.203125 63.28125 27.640625 63.28125 
Q 24.171875 63.28125 21.78125 62.421875 
Q 19.390625 61.578125 17.84375 60.03125 
Q 16.3125 58.5 15.625 56.34375 
Q 14.9375 54.203125 14.9375 51.609375 
Q 14.9375 49.5625 15.46875 47.40625 
Q 16.015625 45.265625 17.421875 43.5 
Q 18.84375 41.75 21.328125 40.625 
Q 23.828125 39.5 27.734375 39.5 
Q 31.890625 39.5 34.40625 40.625 
Q 36.921875 41.75 38.25 43.5 
Q 39.59375 45.265625 40.015625 47.40625 
Q 40.4375 49.5625 40.4375 51.609375 
z
M 42.140625 20.015625 
Q 42.140625 22.515625 41.453125 24.828125 
Q 40.765625 27.15625 39.109375 28.9375 
Q 37.453125 30.71875 34.640625 31.8125 
Q 31.84375 32.90625 27.640625 32.90625 
Q 23.78125 32.90625 21.0625 31.8125 
Q 18.359375 30.71875 16.671875 28.90625 
Q 14.984375 27.09375 14.203125 24.71875 
Q 13.421875 22.359375 13.421875 19.828125 
Q 13.421875 16.65625 14.203125 14.03125 
Q 14.984375 11.421875 16.6875 9.546875 
Q 18.40625 7.671875 21.1875 6.640625 
Q 23.96875 5.609375 27.9375 5.609375 
Q 31.9375 5.609375 34.671875 6.640625 
Q 37.40625 7.671875 39.0625 9.546875 
Q 40.71875 11.421875 41.421875 14.078125 
Q 42.140625 16.75 42.140625 20.015625 
z
" id="LiberationSans-56"/>
      </defs>
      <g style="fill:#ffffff;" transform="translate(7.2 14.446875)scale(0.1 -0.1)">
       <use xlink:href="#LiberationSans-56"/>
      </g>
     </g>
    </g>
   </g>
   <g id="PolyCollection_1">
    <path clip-path="url(#p05d145fcab)" d="M 74.773732 119.412332 
L 74.773732 119.414452 
L 76.397016 119.414452 
L 78.0203 119.414452 
L 79.643584 119.414452 
L 81.266869 119.414452 
L 82.890153 119.414452 
L 84.513437 119.414452 
L 86.136721 119.414452 
L 87.760006 119.414452 
L 89.38329 119.414452 
L 91.006574 119.414452 
L 92.629858 119.414452 
L 94.253143 119.414452 
L 95.876427 119.414452 
L 97.499711 119.414452 
L 99.122995 119.414452 
L 100.74628 119.414452 
L 102.369564 119.414452 
L 103.992848 119.414452 
L 105.616133 119.414452 
L 107.239417 119.414452 
L 108.862701 119.414452 
L 110.485985 119.414452 
L 112.10927 119.414452 
L 113.732554 119.414452 
L 115.355838 119.414452 
L 116.979122 119.414452 
L 118.602407 119.414452 
L 120.225691 119.414452 
L 121.848975 119.414452 
L 123.472259 119.414452 
L 125.095544 119.414452 
L 126.718828 119.414452 
L 128.342112 119.414452 
L 129.965396 119.414452 
L 131.588681 119.414452 
L 133.211965 119.414452 
L 134.835249 119.414452 
L 136.458533 119.414452 
L 138.081818 119.414452 
L 139.705102 119.414452 
L 141.328386 119.414452 
L 142.95167 119.414452 
L 144.574955 119.414452 
L 146.198239 119.414452 
L 147.821523 119.414452 
L 149.444807 119.414452 
L 151.068092 119.414452 
L 152.691376 119.414452 
L 154.31466 119.414452 
L 155.937944 119.414452 
L 157.561229 119.414452 
L 159.184513 119.414452 
L 160.807797 119.414452 
L 162.431081 119.414452 
L 164.054366 119.414452 
L 165.67765 119.414452 
L 167.300934 119.414452 
L 168.924219 119.414452 
L 170.547503 119.414452 
L 172.170787 119.414452 
L 173.794071 119.414452 
L 175.417356 119.414452 
L 177.04064 119.414452 
L 178.663924 119.414452 
L 180.287208 119.414452 
L 181.910493 119.414452 
L 183.533777 119.414452 
L 185.157061 119.414452 
L 186.780345 119.414452 
L 188.40363 119.414452 
L 190.026914 119.414452 
L 191.650198 119.414452 
L 193.273482 119.414452 
L 194.896767 119.414452 
L 196.520051 119.414452 
L 198.143335 119.414452 
L 199.766619 119.414452 
L 201.389904 119.414452 
L 203.013188 119.414452 
L 204.636472 119.414452 
L 206.259756 119.414452 
L 207.883041 119.414452 
L 209.506325 119.414452 
L 211.129609 119.414452 
L 212.752893 119.414452 
L 214.376178 119.414452 
L 215.999462 119.414452 
L 217.622746 119.414452 
L 219.24603 119.414452 
L 220.869315 119.414452 
L 222.492599 119.414452 
L 224.115883 119.414452 
L 225.739167 119.414452 
L 227.362452 119.414452 
L 228.985736 119.414452 
L 230.60902 119.414452 
L 232.232305 119.414452 
L 233.855589 119.414452 
L 235.478873 119.414452 
L 237.102157 119.414452 
L 238.725442 119.414452 
L 240.348726 119.414452 
L 241.97201 119.414452 
L 243.595294 119.414452 
L 245.218579 119.414452 
L 246.841863 119.414452 
L 248.465147 119.414452 
L 250.088431 119.414452 
L 251.711716 119.414452 
L 253.335 119.414452 
L 254.958284 119.414452 
L 256.581568 119.414452 
L 258.204853 119.414452 
L 259.828137 119.414452 
L 261.451421 119.414452 
L 263.074705 119.414452 
L 264.69799 119.414452 
L 266.321274 119.414452 
L 267.944558 119.414452 
L 269.567842 119.414452 
L 271.191127 119.414452 
L 272.814411 119.414452 
L 274.437695 119.414452 
L 276.060979 119.414452 
L 277.684264 119.414452 
L 279.307548 119.414452 
L 280.930832 119.414452 
L 280.930832 119.411696 
L 280.930832 119.411696 
L 279.307548 119.408345 
L 277.684264 119.400172 
L 276.060979 119.38328 
L 274.437695 119.351886 
L 272.814411 119.298842 
L 271.191127 119.216928 
L 269.567842 119.100512 
L 267.944558 118.946628 
L 266.321274 118.754396 
L 264.69799 118.522576 
L 263.074705 118.246478 
L 261.451421 117.916479 
L 259.828137 117.519924 
L 258.204853 117.046113 
L 256.581568 116.491593 
L 254.958284 115.862124 
L 253.335 115.16958 
L 251.711716 114.425605 
L 250.088431 113.636433 
L 248.465147 112.802199 
L 246.841863 111.919858 
L 245.218579 110.985187 
L 243.595294 109.990158 
L 241.97201 108.917029 
L 240.348726 107.735264 
L 238.725442 106.406703 
L 237.102157 104.898323 
L 235.478873 103.195233 
L 233.855589 101.304882 
L 232.232305 99.24849 
L 230.60902 97.044348 
L 228.985736 94.694252 
L 227.362452 92.183403 
L 225.739167 89.494556 
L 224.115883 86.624671 
L 222.492599 83.587684 
L 220.869315 80.396928 
L 219.24603 77.03898 
L 217.622746 73.461964 
L 215.999462 69.594692 
L 214.376178 65.392758 
L 212.752893 60.888543 
L 211.129609 56.21635 
L 209.506325 51.594052 
L 207.883041 47.262757 
L 206.259756 43.407138 
L 204.636472 40.091564 
L 203.013188 37.243219 
L 201.389904 34.692364 
L 199.766619 32.251067 
L 198.143335 29.79191 
L 196.520051 27.290324 
L 194.896767 24.817077 
L 193.273482 22.495242 
L 191.650198 20.449919 
L 190.026914 18.772735 
L 188.40363 17.506236 
L 186.780345 16.641927 
L 185.157061 16.127847 
L 183.533777 15.890051 
L 181.910493 15.871595 
L 180.287208 16.076546 
L 178.663924 16.589755 
L 177.04064 17.548603 
L 175.417356 19.074593 
L 173.794071 21.205125 
L 172.170787 23.868049 
L 170.547503 26.910783 
L 168.924219 30.159606 
L 167.300934 33.472187 
L 165.67765 36.761294 
L 164.054366 39.991435 
L 162.431081 43.164007 
L 160.807797 46.30525 
L 159.184513 49.461603 
L 157.561229 52.697976 
L 155.937944 56.091075 
L 154.31466 59.712163 
L 152.691376 63.599415 
L 151.068092 67.727802 
L 149.444807 71.991882 
L 147.821523 76.217704 
L 146.198239 80.208633 
L 144.574955 83.809477 
L 142.95167 86.958379 
L 141.328386 89.699875 
L 139.705102 92.154179 
L 138.081818 94.461266 
L 136.458533 96.728009 
L 134.835249 98.999272 
L 133.211965 101.258238 
L 131.588681 103.448066 
L 129.965396 105.501228 
L 128.342112 107.363909 
L 126.718828 109.008214 
L 125.095544 110.432029 
L 123.472259 111.6519 
L 121.848975 112.695262 
L 120.225691 113.594838 
L 118.602407 114.384017 
L 116.979122 115.091486 
L 115.355838 115.736057 
L 113.732554 116.324537 
L 112.10927 116.854123 
L 110.485985 117.317835 
L 108.862701 117.710054 
L 107.239417 118.030321 
L 105.616133 118.28497 
L 103.992848 118.486497 
L 102.369564 118.650456 
L 100.74628 118.79059 
L 99.122995 118.914551 
L 97.499711 119.022852 
L 95.876427 119.111832 
L 94.253143 119.178579 
L 92.629858 119.224525 
L 91.006574 119.255621 
L 89.38329 119.279545 
L 87.760006 119.302243 
L 86.136721 119.325997 
L 84.513437 119.349796 
L 82.890153 119.37118 
L 81.266869 119.388109 
L 79.643584 119.399904 
L 78.0203 119.407129 
L 76.397016 119.410932 
L 74.773732 119.412332 
z
" style="fill:#4c72b0;fill-opacity:0.25;"/>
   </g>
   <g id="PolyCollection_2">
    <path clip-path="url(#p05d145fcab)" d="M 34.979119 119.413113 
L 34.979119 119.414452 
L 37.375683 119.414452 
L 39.772247 119.414452 
L 42.168812 119.414452 
L 44.565376 119.414452 
L 46.96194 119.414452 
L 49.358504 119.414452 
L 51.755068 119.414452 
L 54.151632 119.414452 
L 56.548196 119.414452 
L 58.94476 119.414452 
L 61.341324 119.414452 
L 63.737888 119.414452 
L 66.134452 119.414452 
L 68.531016 119.414452 
L 70.92758 119.414452 
L 73.324144 119.414452 
L 75.720708 119.414452 
L 78.117273 119.414452 
L 80.513837 119.414452 
L 82.910401 119.414452 
L 85.306965 119.414452 
L 87.703529 119.414452 
L 90.100093 119.414452 
L 92.496657 119.414452 
L 94.893221 119.414452 
L 97.289785 119.414452 
L 99.686349 119.414452 
L 102.082913 119.414452 
L 104.479477 119.414452 
L 106.876041 119.414452 
L 109.272605 119.414452 
L 111.669169 119.414452 
L 114.065733 119.414452 
L 116.462298 119.414452 
L 118.858862 119.414452 
L 121.255426 119.414452 
L 123.65199 119.414452 
L 126.048554 119.414452 
L 128.445118 119.414452 
L 130.841682 119.414452 
L 133.238246 119.414452 
L 135.63481 119.414452 
L 138.031374 119.414452 
L 140.427938 119.414452 
L 142.824502 119.414452 
L 145.221066 119.414452 
L 147.61763 119.414452 
L 150.014194 119.414452 
L 152.410759 119.414452 
L 154.807323 119.414452 
L 157.203887 119.414452 
L 159.600451 119.414452 
L 161.997015 119.414452 
L 164.393579 119.414452 
L 166.790143 119.414452 
L 169.186707 119.414452 
L 171.583271 119.414452 
L 173.979835 119.414452 
L 176.376399 119.414452 
L 178.772963 119.414452 
L 181.169527 119.414452 
L 183.566091 119.414452 
L 185.962655 119.414452 
L 188.35922 119.414452 
L 190.755784 119.414452 
L 193.152348 119.414452 
L 195.548912 119.414452 
L 197.945476 119.414452 
L 200.34204 119.414452 
L 202.738604 119.414452 
L 205.135168 119.414452 
L 207.531732 119.414452 
L 209.928296 119.414452 
L 212.32486 119.414452 
L 214.721424 119.414452 
L 217.117988 119.414452 
L 219.514552 119.414452 
L 221.911116 119.414452 
L 224.307681 119.414452 
L 226.704245 119.414452 
L 229.100809 119.414452 
L 231.497373 119.414452 
L 233.893937 119.414452 
L 236.290501 119.414452 
L 238.687065 119.414452 
L 241.083629 119.414452 
L 243.480193 119.414452 
L 245.876757 119.414452 
L 248.273321 119.414452 
L 250.669885 119.414452 
L 253.066449 119.414452 
L 255.463013 119.414452 
L 257.859577 119.414452 
L 260.256142 119.414452 
L 262.652706 119.414452 
L 265.04927 119.414452 
L 267.445834 119.414452 
L 269.842398 119.414452 
L 272.238962 119.414452 
L 274.635526 119.414452 
L 277.03209 119.414452 
L 279.428654 119.414452 
L 281.825218 119.414452 
L 284.221782 119.414452 
L 286.618346 119.414452 
L 289.01491 119.414452 
L 291.411474 119.414452 
L 293.808038 119.414452 
L 296.204602 119.414452 
L 298.601167 119.414452 
L 300.997731 119.414452 
L 303.394295 119.414452 
L 305.790859 119.414452 
L 308.187423 119.414452 
L 310.583987 119.414452 
L 312.980551 119.414452 
L 315.377115 119.414452 
L 317.773679 119.414452 
L 320.170243 119.414452 
L 322.566807 119.414452 
L 324.963371 119.414452 
L 327.359935 119.414452 
L 329.756499 119.414452 
L 332.153063 119.414452 
L 334.549628 119.414452 
L 336.946192 119.414452 
L 339.342756 119.414452 
L 339.342756 119.413156 
L 339.342756 119.413156 
L 336.946192 119.411897 
L 334.549628 119.408786 
L 332.153063 119.402838 
L 329.756499 119.39305 
L 327.359935 119.379018 
L 324.963371 119.361474 
L 322.566807 119.342151 
L 320.170243 119.322584 
L 317.773679 119.302215 
L 315.377115 119.277034 
L 312.980551 119.240106 
L 310.583987 119.184238 
L 308.187423 119.105429 
L 305.790859 119.004812 
L 303.394295 118.88749 
L 300.997731 118.758592 
L 298.601167 118.618881 
L 296.204602 118.462714 
L 293.808038 118.279569 
L 291.411474 118.057809 
L 289.01491 117.788058 
L 286.618346 117.464599 
L 284.221782 117.085154 
L 281.825218 116.650187 
L 279.428654 116.162019 
L 277.03209 115.623358 
L 274.635526 115.035338 
L 272.238962 114.395947 
L 269.842398 113.699537 
L 267.445834 112.93728 
L 265.04927 112.09791 
L 262.652706 111.168039 
L 260.256142 110.131493 
L 257.859577 108.968114 
L 255.463013 107.654216 
L 253.066449 106.166957 
L 250.669885 104.491501 
L 248.273321 102.625394 
L 245.876757 100.575069 
L 243.480193 98.346641 
L 241.083629 95.941209 
L 238.687065 93.363853 
L 236.290501 90.642844 
L 233.893937 87.841434 
L 231.497373 85.04429 
L 229.100809 82.318675 
L 226.704245 79.673651 
L 224.307681 77.047882 
L 221.911116 74.339513 
L 219.514552 71.463016 
L 217.117988 68.400593 
L 214.721424 65.22144 
L 212.32486 62.062294 
L 209.928296 59.080362 
L 207.531732 56.397839 
L 205.135168 54.059963 
L 202.738604 52.02778 
L 200.34204 50.215154 
L 197.945476 48.553857 
L 195.548912 47.046367 
L 193.152348 45.76817 
L 190.755784 44.816213 
L 188.35922 44.242156 
L 185.962655 44.021403 
L 183.566091 44.07968 
L 181.169527 44.353731 
L 178.772963 44.839722 
L 176.376399 45.597149 
L 173.979835 46.710417 
L 171.583271 48.236606 
L 169.186707 50.171494 
L 166.790143 52.449387 
L 164.393579 54.969135 
L 161.997015 57.624507 
L 159.600451 60.321963 
L 157.203887 62.987417 
L 154.807323 65.575657 
L 152.410759 68.087025 
L 150.014194 70.576047 
L 147.61763 73.132227 
L 145.221066 75.834351 
L 142.824502 78.705779 
L 140.427938 81.700858 
L 138.031374 84.728194 
L 135.63481 87.689218 
L 133.238246 90.505273 
L 130.841682 93.12375 
L 128.445118 95.513396 
L 126.048554 97.66288 
L 123.65199 99.585825 
L 121.255426 101.323959 
L 118.858862 102.939178 
L 116.462298 104.494261 
L 114.065733 106.031643 
L 111.669169 107.561618 
L 109.272605 109.064812 
L 106.876041 110.504637 
L 104.479477 111.841124 
L 102.082913 113.040239 
L 99.686349 114.07852 
L 97.289785 114.945952 
L 94.893221 115.648485 
L 92.496657 116.20838 
L 90.100093 116.659814 
L 87.703529 117.039925 
L 85.306965 117.378943 
L 82.910401 117.693887 
L 80.513837 117.987965 
L 78.117273 118.254729 
L 75.720708 118.484428 
L 73.324144 118.670052 
L 70.92758 118.811173 
L 68.531016 118.914463 
L 66.134452 118.991063 
L 63.737888 119.052485 
L 61.341324 119.107295 
L 58.94476 119.159902 
L 56.548196 119.211185 
L 54.151632 119.25983 
L 51.755068 119.303594 
L 49.358504 119.340296 
L 46.96194 119.3686 
L 44.565376 119.388457 
L 42.168812 119.401023 
L 39.772247 119.408143 
L 37.375683 119.411696 
L 34.979119 119.413113 
z
" style="fill:#55a868;fill-opacity:0.25;"/>
   </g>
   <g id="line2d_25">
    <path clip-path="url(#p05d145fcab)" d="M 74.773732 119.412332 
L 87.760006 119.302243 
L 95.876427 119.111832 
L 102.369564 118.650456 
L 105.616133 118.28497 
L 108.862701 117.710054 
L 112.10927 116.854123 
L 115.355838 115.736057 
L 118.602407 114.384017 
L 121.848975 112.695262 
L 123.472259 111.6519 
L 125.095544 110.432029 
L 126.718828 109.008214 
L 128.342112 107.363909 
L 129.965396 105.501228 
L 133.211965 101.258238 
L 139.705102 92.154179 
L 141.328386 89.699875 
L 142.95167 86.958379 
L 144.574955 83.809477 
L 146.198239 80.208633 
L 149.444807 71.991882 
L 152.691376 63.599415 
L 155.937944 56.091075 
L 159.184513 49.461603 
L 167.300934 33.472187 
L 170.547503 26.910783 
L 172.170787 23.868049 
L 173.794071 21.205125 
L 175.417356 19.074593 
L 177.04064 17.548603 
L 178.663924 16.589755 
L 180.287208 16.076546 
L 181.910493 15.871595 
L 183.533777 15.890051 
L 185.157061 16.127847 
L 186.780345 16.641927 
L 188.40363 17.506236 
L 190.026914 18.772735 
L 191.650198 20.449919 
L 193.273482 22.495242 
L 196.520051 27.290324 
L 203.013188 37.243219 
L 204.636472 40.091564 
L 206.259756 43.407138 
L 207.883041 47.262757 
L 211.129609 56.21635 
L 214.376178 65.392758 
L 215.999462 69.594692 
L 217.622746 73.461964 
L 220.869315 80.396928 
L 224.115883 86.624671 
L 227.362452 92.183403 
L 230.60902 97.044348 
L 233.855589 101.304882 
L 235.478873 103.195233 
L 237.102157 104.898323 
L 238.725442 106.406703 
L 240.348726 107.735264 
L 243.595294 109.990158 
L 246.841863 111.919858 
L 250.088431 113.636433 
L 253.335 115.16958 
L 256.581568 116.491593 
L 259.828137 117.519924 
L 263.074705 118.246478 
L 266.321274 118.754396 
L 269.567842 119.100512 
L 274.437695 119.351886 
L 280.930832 119.411696 
L 280.930832 119.411696 
" style="fill:none;stroke:#4c72b0;stroke-linecap:round;stroke-width:1.75;"/>
   </g>
   <g id="line2d_26">
    <path clip-path="url(#p05d145fcab)" d="M 34.979119 119.413113 
L 51.755068 119.303594 
L 68.531016 118.914463 
L 73.324144 118.670052 
L 78.117273 118.254729 
L 85.306965 117.378943 
L 90.100093 116.659814 
L 94.893221 115.648485 
L 97.289785 114.945952 
L 99.686349 114.07852 
L 102.082913 113.040239 
L 104.479477 111.841124 
L 109.272605 109.064812 
L 118.858862 102.939178 
L 123.65199 99.585825 
L 126.048554 97.66288 
L 128.445118 95.513396 
L 130.841682 93.12375 
L 133.238246 90.505273 
L 138.031374 84.728194 
L 142.824502 78.705779 
L 147.61763 73.132227 
L 159.600451 60.321963 
L 164.393579 54.969135 
L 166.790143 52.449387 
L 169.186707 50.171494 
L 171.583271 48.236606 
L 173.979835 46.710417 
L 176.376399 45.597149 
L 178.772963 44.839722 
L 181.169527 44.353731 
L 183.566091 44.07968 
L 185.962655 44.021403 
L 188.35922 44.242156 
L 190.755784 44.816213 
L 193.152348 45.76817 
L 195.548912 47.046367 
L 197.945476 48.553857 
L 200.34204 50.215154 
L 202.738604 52.02778 
L 205.135168 54.059963 
L 207.531732 56.397839 
L 209.928296 59.080362 
L 214.721424 65.22144 
L 219.514552 71.463016 
L 224.307681 77.047882 
L 231.497373 85.04429 
L 238.687065 93.363853 
L 241.083629 95.941209 
L 243.480193 98.346641 
L 245.876757 100.575069 
L 248.273321 102.625394 
L 250.669885 104.491501 
L 253.066449 106.166957 
L 255.463013 107.654216 
L 257.859577 108.968114 
L 260.256142 110.131493 
L 265.04927 112.09791 
L 269.842398 113.699537 
L 274.635526 115.035338 
L 279.428654 116.162019 
L 284.221782 117.085154 
L 289.01491 117.788058 
L 293.808038 118.279569 
L 300.997731 118.758592 
L 310.583987 119.184238 
L 320.170243 119.322584 
L 339.342756 119.413156 
L 339.342756 119.413156 
" style="fill:none;stroke:#55a868;stroke-linecap:round;stroke-width:1.75;"/>
   </g>
   <g id="line2d_27">
    <path clip-path="url(#p05d145fcab)" d="M 182.789653 119.414452 
L 182.789653 10.694452 
" style="fill:none;stroke:#808080;stroke-dasharray:6.475,2.8;stroke-dashoffset:0;stroke-opacity:0.8;stroke-width:1.75;"/>
   </g>
   <g id="patch_3">
    <path d="M 19.760938 119.414452 
L 19.760938 10.694452 
" style="fill:none;"/>
   </g>
   <g id="patch_4">
    <path d="M 354.560938 119.414452 
L 354.560938 10.694452 
" style="fill:none;"/>
   </g>
   <g id="patch_5">
    <path d="M 19.760938 119.414452 
L 354.560938 119.414452 
" style="fill:none;"/>
   </g>
   <g id="patch_6">
    <path d="M 19.760938 10.694452 
L 354.560938 10.694452 
" style="fill:none;"/>
   </g>
   <g id="legend_1">
    <g id="text_14">
     <!-- Model type -->
     <defs>
      <path d="M 66.703125 0 
L 66.703125 45.90625 
Q 66.703125 48.390625 66.75 50.96875 
Q 66.796875 53.5625 66.890625 55.71875 
Q 67 58.203125 67.140625 60.546875 
Q 66.453125 58.0625 65.71875 55.609375 
Q 65.09375 53.515625 64.328125 51.140625 
Q 63.578125 48.78125 62.84375 46.875 
L 45.0625 0 
L 38.53125 0 
L 20.515625 46.875 
Q 20.21875 47.609375 19.890625 48.578125 
Q 19.578125 49.5625 19.203125 50.65625 
Q 18.84375 51.765625 18.46875 52.90625 
Q 18.109375 54.046875 17.78125 55.171875 
Q 16.9375 57.765625 16.15625 60.546875 
Q 16.21875 57.8125 16.3125 55.125 
Q 16.40625 52.828125 16.453125 50.3125 
Q 16.5 47.796875 16.5 45.90625 
L 16.5 0 
L 8.203125 0 
L 8.203125 68.796875 
L 20.453125 68.796875 
L 38.765625 21.09375 
Q 39.109375 20.125 39.59375 18.578125 
Q 40.09375 17.046875 40.53125 15.421875 
Q 40.96875 13.8125 41.328125 12.375 
Q 41.703125 10.9375 41.84375 10.15625 
Q 42 10.9375 42.390625 12.40625 
Q 42.78125 13.875 43.28125 15.484375 
Q 43.796875 17.09375 44.28125 18.609375 
Q 44.78125 20.125 45.171875 21.09375 
L 63.140625 68.796875 
L 75.09375 68.796875 
L 75.09375 0 
z
" id="LiberationSans-77"/>
      <path d="M 51.421875 26.46875 
Q 51.421875 12.59375 45.3125 5.796875 
Q 39.203125 -0.984375 27.59375 -0.984375 
Q 22.078125 -0.984375 17.71875 0.671875 
Q 13.375 2.34375 10.375 5.765625 
Q 7.375 9.1875 5.78125 14.328125 
Q 4.203125 19.484375 4.203125 26.46875 
Q 4.203125 53.8125 27.875 53.8125 
Q 34.03125 53.8125 38.5 52.09375 
Q 42.96875 50.390625 45.828125 46.96875 
Q 48.6875 43.5625 50.046875 38.421875 
Q 51.421875 33.296875 51.421875 26.46875 
z
M 42.1875 26.46875 
Q 42.1875 32.625 41.234375 36.625 
Q 40.28125 40.625 38.453125 43.015625 
Q 36.625 45.40625 33.984375 46.359375 
Q 31.34375 47.3125 28.03125 47.3125 
Q 24.65625 47.3125 21.9375 46.3125 
Q 19.234375 45.3125 17.328125 42.890625 
Q 15.4375 40.484375 14.421875 36.46875 
Q 13.421875 32.46875 13.421875 26.46875 
Q 13.421875 20.3125 14.5 16.28125 
Q 15.578125 12.25 17.453125 9.859375 
Q 19.34375 7.46875 21.90625 6.484375 
Q 24.46875 5.515625 27.484375 5.515625 
Q 30.859375 5.515625 33.59375 6.46875 
Q 36.328125 7.421875 38.234375 9.8125 
Q 40.140625 12.203125 41.15625 16.25 
Q 42.1875 20.3125 42.1875 26.46875 
z
" id="LiberationSans-111"/>
      <path d="M 40.09375 8.5 
Q 37.640625 3.421875 33.609375 1.21875 
Q 29.59375 -0.984375 23.640625 -0.984375 
Q 13.625 -0.984375 8.90625 5.75 
Q 4.203125 12.5 4.203125 26.171875 
Q 4.203125 53.8125 23.640625 53.8125 
Q 29.640625 53.8125 33.640625 51.609375 
Q 37.640625 49.421875 40.09375 44.625 
L 40.1875 44.625 
Q 40.1875 45.125 40.15625 46.171875 
Q 40.140625 47.21875 40.109375 48.359375 
Q 40.09375 49.515625 40.09375 50.53125 
Q 40.09375 51.5625 40.09375 52 
L 40.09375 72.46875 
L 48.875 72.46875 
L 48.875 10.890625 
Q 48.875 8.984375 48.890625 7.21875 
Q 48.921875 5.46875 48.96875 4 
Q 49.03125 2.546875 49.078125 1.484375 
Q 49.125 0.4375 49.171875 0 
L 40.765625 0 
Q 40.671875 0.484375 40.59375 1.390625 
Q 40.53125 2.296875 40.453125 3.46875 
Q 40.375 4.640625 40.328125 5.9375 
Q 40.28125 7.234375 40.28125 8.5 
z
M 13.421875 26.46875 
Q 13.421875 21 14.109375 17.09375 
Q 14.796875 13.1875 16.3125 10.671875 
Q 17.828125 8.15625 20.171875 6.984375 
Q 22.515625 5.8125 25.875 5.8125 
Q 29.34375 5.8125 32 6.9375 
Q 34.671875 8.0625 36.453125 10.578125 
Q 38.234375 13.09375 39.15625 17.140625 
Q 40.09375 21.1875 40.09375 27.046875 
Q 40.09375 32.671875 39.15625 36.546875 
Q 38.234375 40.4375 36.421875 42.828125 
Q 34.625 45.21875 32 46.265625 
Q 29.390625 47.3125 25.984375 47.3125 
Q 22.75 47.3125 20.40625 46.1875 
Q 18.0625 45.0625 16.5 42.578125 
Q 14.9375 40.09375 14.171875 36.109375 
Q 13.421875 32.125 13.421875 26.46875 
z
" id="LiberationSans-100"/>
      <path d="M 13.484375 24.5625 
Q 13.484375 20.40625 14.328125 16.90625 
Q 15.1875 13.421875 16.96875 10.90625 
Q 18.75 8.40625 21.53125 7 
Q 24.3125 5.609375 28.21875 5.609375 
Q 33.9375 5.609375 37.375 7.90625 
Q 40.828125 10.203125 42.046875 13.71875 
L 49.75 11.53125 
Q 48.921875 9.328125 47.4375 7.109375 
Q 45.953125 4.890625 43.453125 3.09375 
Q 40.96875 1.3125 37.234375 0.15625 
Q 33.5 -0.984375 28.21875 -0.984375 
Q 16.5 -0.984375 10.375 6 
Q 4.25 12.984375 4.25 26.765625 
Q 4.25 34.1875 6.09375 39.328125 
Q 7.953125 44.484375 11.171875 47.703125 
Q 14.40625 50.921875 18.703125 52.359375 
Q 23 53.8125 27.875 53.8125 
Q 34.515625 53.8125 38.984375 51.65625 
Q 43.453125 49.515625 46.15625 45.71875 
Q 48.875 41.9375 50.015625 36.8125 
Q 51.171875 31.6875 51.171875 25.734375 
L 51.171875 24.5625 
z
M 42.09375 31.296875 
Q 41.359375 39.65625 37.84375 43.484375 
Q 34.328125 47.3125 27.734375 47.3125 
Q 25.53125 47.3125 23.109375 46.609375 
Q 20.703125 45.90625 18.65625 44.09375 
Q 16.609375 42.28125 15.1875 39.171875 
Q 13.765625 36.078125 13.578125 31.296875 
z
" id="LiberationSans-101"/>
      <path d="M 6.734375 0 
L 6.734375 72.46875 
L 15.53125 72.46875 
L 15.53125 0 
z
" id="LiberationSans-108"/>
      <path id="LiberationSans-32"/>
      <path d="M 27.046875 0.390625 
Q 25.046875 -0.140625 22.96875 -0.453125 
Q 20.90625 -0.78125 18.171875 -0.78125 
Q 7.625 -0.78125 7.625 11.1875 
L 7.625 46.4375 
L 1.515625 46.4375 
L 1.515625 52.828125 
L 7.953125 52.828125 
L 10.546875 64.65625 
L 16.40625 64.65625 
L 16.40625 52.828125 
L 26.171875 52.828125 
L 26.171875 46.4375 
L 16.40625 46.4375 
L 16.40625 13.09375 
Q 16.40625 9.28125 17.640625 7.734375 
Q 18.890625 6.203125 21.96875 6.203125 
Q 23.25 6.203125 24.4375 6.390625 
Q 25.640625 6.59375 27.046875 6.890625 
z
" id="LiberationSans-116"/>
      <path d="M 29.5 0 
Q 27.640625 -4.78125 25.703125 -8.609375 
Q 23.78125 -12.453125 21.390625 -15.15625 
Q 19 -17.875 16.0625 -19.3125 
Q 13.140625 -20.75 9.328125 -20.75 
Q 7.671875 -20.75 6.25 -20.65625 
Q 4.828125 -20.5625 3.265625 -20.21875 
L 3.265625 -13.625 
Q 4.203125 -13.765625 5.375 -13.84375 
Q 6.546875 -13.921875 7.375 -13.921875 
Q 11.234375 -13.921875 14.546875 -11.03125 
Q 17.875 -8.15625 20.359375 -1.859375 
L 21.1875 0.25 
L 0.25 52.828125 
L 9.625 52.828125 
L 20.75 23.640625 
Q 21.234375 22.3125 21.984375 20.109375 
Q 22.75 17.921875 23.5 15.71875 
Q 24.265625 13.53125 24.84375 11.765625 
Q 25.4375 10.015625 25.53125 9.578125 
Q 25.6875 10.109375 26.25 11.6875 
Q 26.8125 13.28125 27.515625 15.234375 
Q 28.21875 17.1875 28.953125 19.1875 
Q 29.6875 21.1875 30.171875 22.65625 
L 40.53125 52.828125 
L 49.8125 52.828125 
z
" id="LiberationSans-121"/>
      <path d="M 51.421875 26.65625 
Q 51.421875 20.65625 50.4375 15.578125 
Q 49.46875 10.5 47.1875 6.828125 
Q 44.921875 3.171875 41.1875 1.09375 
Q 37.453125 -0.984375 31.984375 -0.984375 
Q 26.3125 -0.984375 22.0625 1.171875 
Q 17.828125 3.328125 15.578125 8.203125 
L 15.328125 8.203125 
Q 15.375 8.109375 15.40625 7.328125 
Q 15.4375 6.546875 15.453125 5.375 
Q 15.484375 4.203125 15.5 2.75 
Q 15.53125 1.3125 15.53125 -0.09375 
L 15.53125 -20.75 
L 6.734375 -20.75 
L 6.734375 42.046875 
Q 6.734375 43.953125 6.703125 45.703125 
Q 6.6875 47.46875 6.640625 48.90625 
Q 6.59375 50.34375 6.546875 51.359375 
Q 6.5 52.390625 6.453125 52.828125 
L 14.9375 52.828125 
Q 14.984375 52.6875 15.0625 51.796875 
Q 15.140625 50.921875 15.203125 49.671875 
Q 15.28125 48.4375 15.359375 47.015625 
Q 15.4375 45.609375 15.4375 44.34375 
L 15.625 44.34375 
Q 16.84375 46.875 18.40625 48.65625 
Q 19.96875 50.4375 21.96875 51.578125 
Q 23.96875 52.734375 26.4375 53.25 
Q 28.90625 53.765625 31.984375 53.765625 
Q 37.453125 53.765625 41.1875 51.8125 
Q 44.921875 49.859375 47.1875 46.3125 
Q 49.46875 42.78125 50.4375 37.765625 
Q 51.421875 32.765625 51.421875 26.65625 
z
M 42.1875 26.46875 
Q 42.1875 31.34375 41.59375 35.15625 
Q 41.015625 38.96875 39.578125 41.59375 
Q 38.140625 44.234375 35.734375 45.59375 
Q 33.34375 46.96875 29.734375 46.96875 
Q 26.8125 46.96875 24.21875 46.140625 
Q 21.625 45.3125 19.703125 42.96875 
Q 17.78125 40.625 16.65625 36.5 
Q 15.53125 32.375 15.53125 25.78125 
Q 15.53125 20.171875 16.453125 16.28125 
Q 17.390625 12.40625 19.171875 10.015625 
Q 20.953125 7.625 23.578125 6.5625 
Q 26.21875 5.515625 29.640625 5.515625 
Q 33.296875 5.515625 35.71875 6.921875 
Q 38.140625 8.34375 39.578125 11.03125 
Q 41.015625 13.71875 41.59375 17.59375 
Q 42.1875 21.484375 42.1875 26.46875 
z
" id="LiberationSans-112"/>
     </defs>
     <g style="fill:#262626;" transform="translate(260.591875 28.741327)scale(0.1 -0.1)">
      <use xlink:href="#LiberationSans-77"/>
      <use x="83.300781" xlink:href="#LiberationSans-111"/>
      <use x="138.916016" xlink:href="#LiberationSans-100"/>
      <use x="194.53125" xlink:href="#LiberationSans-101"/>
      <use x="250.146484" xlink:href="#LiberationSans-108"/>
      <use x="272.363281" xlink:href="#LiberationSans-32"/>
      <use x="300.146484" xlink:href="#LiberationSans-116"/>
      <use x="327.929688" xlink:href="#LiberationSans-121"/>
      <use x="377.929688" xlink:href="#LiberationSans-112"/>
      <use x="433.544922" xlink:href="#LiberationSans-101"/>
     </g>
    </g>
    <g id="line2d_28">
     <path d="M 226.335313 41.312577 
L 250.335313 41.312577 
" style="fill:none;stroke:#4c72b0;stroke-linecap:round;stroke-width:1.75;"/>
    </g>
    <g id="line2d_29"/>
    <g id="text_15">
     <!-- Random effects -->
     <defs>
      <path d="M 56.84375 0 
L 38.96875 28.5625 
L 17.53125 28.5625 
L 17.53125 0 
L 8.203125 0 
L 8.203125 68.796875 
L 40.578125 68.796875 
Q 46.4375 68.796875 50.953125 67.453125 
Q 55.46875 66.109375 58.546875 63.5625 
Q 61.625 61.03125 63.234375 57.375 
Q 64.84375 53.71875 64.84375 49.125 
Q 64.84375 45.84375 63.890625 42.671875 
Q 62.9375 39.5 60.890625 36.859375 
Q 58.84375 34.234375 55.65625 32.328125 
Q 52.484375 30.421875 48.046875 29.640625 
L 67.578125 0 
z
M 55.46875 49.03125 
Q 55.46875 52.15625 54.390625 54.4375 
Q 53.328125 56.734375 51.265625 58.265625 
Q 49.21875 59.8125 46.28125 60.5625 
Q 43.359375 61.328125 39.65625 61.328125 
L 17.53125 61.328125 
L 17.53125 35.9375 
L 40.046875 35.9375 
Q 44.046875 35.9375 46.96875 36.9375 
Q 49.90625 37.9375 51.78125 39.6875 
Q 53.65625 41.453125 54.5625 43.84375 
Q 55.46875 46.234375 55.46875 49.03125 
z
" id="LiberationSans-82"/>
      <path d="M 20.21875 -0.984375 
Q 12.25 -0.984375 8.25 3.21875 
Q 4.25 7.421875 4.25 14.75 
Q 4.25 19.96875 6.21875 23.3125 
Q 8.203125 26.65625 11.390625 28.5625 
Q 14.59375 30.46875 18.6875 31.203125 
Q 22.796875 31.9375 27.046875 32.03125 
L 38.921875 32.234375 
L 38.921875 35.109375 
Q 38.921875 38.375 38.234375 40.671875 
Q 37.546875 42.96875 36.125 44.375 
Q 34.71875 45.796875 32.59375 46.453125 
Q 30.46875 47.125 27.59375 47.125 
Q 25.046875 47.125 23 46.75 
Q 20.953125 46.390625 19.4375 45.4375 
Q 17.921875 44.484375 16.984375 42.84375 
Q 16.0625 41.21875 15.765625 38.71875 
L 6.59375 39.546875 
Q 7.078125 42.671875 8.4375 45.28125 
Q 9.8125 47.90625 12.328125 49.796875 
Q 14.84375 51.703125 18.625 52.75 
Q 22.40625 53.8125 27.78125 53.8125 
Q 37.75 53.8125 42.765625 49.234375 
Q 47.796875 44.671875 47.796875 36.03125 
L 47.796875 13.28125 
Q 47.796875 9.375 48.828125 7.390625 
Q 49.859375 5.421875 52.734375 5.421875 
Q 53.46875 5.421875 54.203125 5.515625 
Q 54.9375 5.609375 55.609375 5.765625 
L 55.609375 0.296875 
Q 53.953125 -0.09375 52.3125 -0.28125 
Q 50.6875 -0.484375 48.828125 -0.484375 
Q 46.34375 -0.484375 44.5625 0.171875 
Q 42.78125 0.828125 41.65625 2.171875 
Q 40.53125 3.515625 39.9375 5.484375 
Q 39.359375 7.46875 39.203125 10.109375 
L 38.921875 10.109375 
Q 37.5 7.5625 35.8125 5.515625 
Q 34.125 3.46875 31.875 2.03125 
Q 29.640625 0.59375 26.78125 -0.1875 
Q 23.921875 -0.984375 20.21875 -0.984375 
z
M 22.21875 5.609375 
Q 26.421875 5.609375 29.5625 7.140625 
Q 32.71875 8.6875 34.78125 11.078125 
Q 36.859375 13.484375 37.890625 16.3125 
Q 38.921875 19.140625 38.921875 21.734375 
L 38.921875 26.078125 
L 29.296875 25.875 
Q 26.078125 25.828125 23.171875 25.40625 
Q 20.265625 25 18.0625 23.78125 
Q 15.875 22.5625 14.578125 20.359375 
Q 13.28125 18.171875 13.28125 14.59375 
Q 13.28125 10.296875 15.59375 7.953125 
Q 17.921875 5.609375 22.21875 5.609375 
z
" id="LiberationSans-97"/>
      <path d="M 40.28125 0 
L 40.28125 33.5 
Q 40.28125 37.359375 39.71875 39.9375 
Q 39.15625 42.53125 37.890625 44.109375 
Q 36.625 45.703125 34.546875 46.359375 
Q 32.46875 47.015625 29.390625 47.015625 
Q 26.265625 47.015625 23.75 45.921875 
Q 21.234375 44.828125 19.453125 42.75 
Q 17.671875 40.671875 16.6875 37.625 
Q 15.71875 34.578125 15.71875 30.609375 
L 15.71875 0 
L 6.9375 0 
L 6.9375 41.546875 
Q 6.9375 43.21875 6.90625 45.046875 
Q 6.890625 46.875 6.828125 48.5 
Q 6.78125 50.140625 6.734375 51.3125 
Q 6.6875 52.484375 6.640625 52.828125 
L 14.9375 52.828125 
Q 14.984375 52.59375 15.03125 51.515625 
Q 15.09375 50.4375 15.15625 49.046875 
Q 15.234375 47.65625 15.28125 46.21875 
Q 15.328125 44.78125 15.328125 43.796875 
L 15.484375 43.796875 
Q 16.75 46.09375 18.265625 47.953125 
Q 19.78125 49.8125 21.78125 51.09375 
Q 23.78125 52.390625 26.359375 53.09375 
Q 28.953125 53.8125 32.375 53.8125 
Q 36.765625 53.8125 39.9375 52.734375 
Q 43.109375 51.65625 45.15625 49.40625 
Q 47.21875 47.171875 48.171875 43.625 
Q 49.125 40.09375 49.125 35.203125 
L 49.125 0 
z
" id="LiberationSans-110"/>
      <path d="M 37.5 0 
L 37.5 33.5 
Q 37.5 37.359375 37.015625 39.9375 
Q 36.53125 42.53125 35.375 44.109375 
Q 34.234375 45.703125 32.375 46.359375 
Q 30.515625 47.015625 27.828125 47.015625 
Q 25.046875 47.015625 22.796875 45.921875 
Q 20.5625 44.828125 18.96875 42.75 
Q 17.390625 40.671875 16.53125 37.625 
Q 15.671875 34.578125 15.671875 30.609375 
L 15.671875 0 
L 6.9375 0 
L 6.9375 41.546875 
Q 6.9375 43.21875 6.90625 45.046875 
Q 6.890625 46.875 6.828125 48.5 
Q 6.78125 50.140625 6.734375 51.3125 
Q 6.6875 52.484375 6.640625 52.828125 
L 14.9375 52.828125 
Q 14.984375 52.59375 15.03125 51.515625 
Q 15.09375 50.4375 15.15625 49.046875 
Q 15.234375 47.65625 15.28125 46.21875 
Q 15.328125 44.78125 15.328125 43.796875 
L 15.484375 43.796875 
Q 16.65625 46.09375 18.015625 47.953125 
Q 19.390625 49.8125 21.21875 51.09375 
Q 23.046875 52.390625 25.40625 53.09375 
Q 27.78125 53.8125 30.90625 53.8125 
Q 36.921875 53.8125 40.40625 51.421875 
Q 43.890625 49.03125 45.265625 43.796875 
L 45.40625 43.796875 
Q 46.578125 46.09375 48.046875 47.953125 
Q 49.515625 49.8125 51.46875 51.09375 
Q 53.421875 52.390625 55.859375 53.09375 
Q 58.296875 53.8125 61.421875 53.8125 
Q 65.4375 53.8125 68.328125 52.734375 
Q 71.234375 51.65625 73.09375 49.40625 
Q 74.953125 47.171875 75.828125 43.625 
Q 76.703125 40.09375 76.703125 35.203125 
L 76.703125 0 
L 68.015625 0 
L 68.015625 33.5 
Q 68.015625 37.359375 67.53125 39.9375 
Q 67.046875 42.53125 65.890625 44.109375 
Q 64.75 45.703125 62.890625 46.359375 
Q 61.03125 47.015625 58.34375 47.015625 
Q 55.5625 47.015625 53.3125 45.96875 
Q 51.078125 44.921875 49.484375 42.875 
Q 47.90625 40.828125 47.046875 37.75 
Q 46.1875 34.671875 46.1875 30.609375 
L 46.1875 0 
z
" id="LiberationSans-109"/>
      <path d="M 17.625 46.4375 
L 17.625 0 
L 8.84375 0 
L 8.84375 46.4375 
L 1.421875 46.4375 
L 1.421875 52.828125 
L 8.84375 52.828125 
L 8.84375 58.796875 
Q 8.84375 61.671875 9.375 64.140625 
Q 9.90625 66.609375 11.34375 68.4375 
Q 12.796875 70.265625 15.28125 71.3125 
Q 17.78125 72.359375 21.734375 72.359375 
Q 23.296875 72.359375 24.96875 72.21875 
Q 26.65625 72.078125 27.9375 71.78125 
L 27.9375 65.09375 
Q 27.09375 65.234375 26 65.359375 
Q 24.90625 65.484375 24.03125 65.484375 
Q 22.078125 65.484375 20.828125 64.9375 
Q 19.578125 64.40625 18.875 63.40625 
Q 18.171875 62.40625 17.890625 60.9375 
Q 17.625 59.46875 17.625 57.5625 
L 17.625 52.828125 
L 27.9375 52.828125 
L 27.9375 46.4375 
z
" id="LiberationSans-102"/>
      <path d="M 13.421875 26.65625 
Q 13.421875 22.125 14.078125 18.3125 
Q 14.75 14.5 16.3125 11.734375 
Q 17.875 8.984375 20.4375 7.46875 
Q 23 5.953125 26.765625 5.953125 
Q 31.453125 5.953125 34.59375 8.484375 
Q 37.75 11.03125 38.484375 16.3125 
L 47.359375 15.71875 
Q 46.921875 12.453125 45.453125 9.421875 
Q 44 6.390625 41.484375 4.09375 
Q 38.96875 1.8125 35.34375 0.40625 
Q 31.734375 -0.984375 27 -0.984375 
Q 20.796875 -0.984375 16.453125 1.109375 
Q 12.109375 3.21875 9.390625 6.90625 
Q 6.6875 10.59375 5.46875 15.59375 
Q 4.25 20.609375 4.25 26.46875 
Q 4.25 31.78125 5.125 35.859375 
Q 6 39.9375 7.59375 42.984375 
Q 9.1875 46.046875 11.328125 48.125 
Q 13.484375 50.203125 15.984375 51.4375 
Q 18.5 52.6875 21.28125 53.25 
Q 24.078125 53.8125 26.90625 53.8125 
Q 31.34375 53.8125 34.8125 52.59375 
Q 38.28125 51.375 40.796875 49.25 
Q 43.3125 47.125 44.875 44.234375 
Q 46.4375 41.359375 47.078125 38.03125 
L 38.03125 37.359375 
Q 37.359375 41.75 34.5625 44.328125 
Q 31.78125 46.921875 26.65625 46.921875 
Q 22.90625 46.921875 20.390625 45.671875 
Q 17.875 44.4375 16.3125 41.921875 
Q 14.75 39.40625 14.078125 35.59375 
Q 13.421875 31.78125 13.421875 26.65625 
z
" id="LiberationSans-99"/>
      <path d="M 46.390625 14.59375 
Q 46.390625 10.890625 44.9375 7.984375 
Q 43.5 5.078125 40.765625 3.09375 
Q 38.03125 1.125 34.046875 0.0625 
Q 30.078125 -0.984375 24.953125 -0.984375 
Q 20.359375 -0.984375 16.671875 -0.265625 
Q 12.984375 0.4375 10.203125 2 
Q 7.421875 3.5625 5.53125 6.125 
Q 3.65625 8.6875 2.78125 12.40625 
L 10.546875 13.921875 
Q 11.671875 9.671875 15.1875 7.6875 
Q 18.703125 5.71875 24.953125 5.71875 
Q 27.78125 5.71875 30.140625 6.109375 
Q 32.515625 6.5 34.21875 7.453125 
Q 35.9375 8.40625 36.890625 9.984375 
Q 37.84375 11.578125 37.84375 13.921875 
Q 37.84375 16.3125 36.71875 17.84375 
Q 35.59375 19.390625 33.59375 20.40625 
Q 31.59375 21.4375 28.734375 22.1875 
Q 25.875 22.953125 22.46875 23.875 
Q 19.28125 24.703125 16.15625 25.734375 
Q 13.03125 26.765625 10.515625 28.4375 
Q 8.015625 30.125 6.453125 32.609375 
Q 4.890625 35.109375 4.890625 38.875 
Q 4.890625 46.09375 10.03125 49.875 
Q 15.1875 53.65625 25.046875 53.65625 
Q 33.796875 53.65625 38.9375 50.578125 
Q 44.09375 47.515625 45.453125 40.71875 
L 37.546875 39.75 
Q 37.109375 41.796875 35.9375 43.1875 
Q 34.765625 44.578125 33.109375 45.4375 
Q 31.453125 46.296875 29.375 46.65625 
Q 27.296875 47.015625 25.046875 47.015625 
Q 19.09375 47.015625 16.25 45.203125 
Q 13.421875 43.40625 13.421875 39.75 
Q 13.421875 37.59375 14.46875 36.203125 
Q 15.53125 34.8125 17.40625 33.859375 
Q 19.28125 32.90625 21.921875 32.203125 
Q 24.5625 31.5 27.734375 30.71875 
Q 29.828125 30.171875 32.03125 29.5625 
Q 34.234375 28.953125 36.296875 28.09375 
Q 38.375 27.25 40.203125 26.09375 
Q 42.046875 24.953125 43.40625 23.34375 
Q 44.78125 21.734375 45.578125 19.578125 
Q 46.390625 17.4375 46.390625 14.59375 
z
" id="LiberationSans-115"/>
     </defs>
     <g style="fill:#262626;" transform="translate(259.935313 45.512577)scale(0.12 -0.12)">
      <use xlink:href="#LiberationSans-82"/>
      <use x="72.216797" xlink:href="#LiberationSans-97"/>
      <use x="127.832031" xlink:href="#LiberationSans-110"/>
      <use x="183.447266" xlink:href="#LiberationSans-100"/>
      <use x="239.0625" xlink:href="#LiberationSans-111"/>
      <use x="294.677734" xlink:href="#LiberationSans-109"/>
      <use x="377.978516" xlink:href="#LiberationSans-32"/>
      <use x="405.761719" xlink:href="#LiberationSans-101"/>
      <use x="461.376953" xlink:href="#LiberationSans-102"/>
      <use x="487.410156" xlink:href="#LiberationSans-102"/>
      <use x="515.193359" xlink:href="#LiberationSans-101"/>
      <use x="570.808594" xlink:href="#LiberationSans-99"/>
      <use x="620.808594" xlink:href="#LiberationSans-116"/>
      <use x="648.591797" xlink:href="#LiberationSans-115"/>
     </g>
    </g>
    <g id="line2d_30">
     <path d="M 226.335313 58.498827 
L 250.335313 58.498827 
" style="fill:none;stroke:#55a868;stroke-linecap:round;stroke-width:1.75;"/>
    </g>
    <g id="line2d_31"/>
    <g id="text_16">
     <!-- Fixed effects -->
     <defs>
      <path d="M 17.53125 61.1875 
L 17.53125 35.59375 
L 55.90625 35.59375 
L 55.90625 27.875 
L 17.53125 27.875 
L 17.53125 0 
L 8.203125 0 
L 8.203125 68.796875 
L 57.078125 68.796875 
L 57.078125 61.1875 
z
" id="LiberationSans-70"/>
      <path d="M 6.6875 64.0625 
L 6.6875 72.46875 
L 15.484375 72.46875 
L 15.484375 64.0625 
z
M 6.6875 0 
L 6.6875 52.828125 
L 15.484375 52.828125 
L 15.484375 0 
z
" id="LiberationSans-105"/>
      <path d="M 39.109375 0 
L 24.90625 21.6875 
L 10.59375 0 
L 1.125 0 
L 19.921875 27.15625 
L 2 52.828125 
L 11.71875 52.828125 
L 24.90625 32.28125 
L 37.984375 52.828125 
L 47.796875 52.828125 
L 29.890625 27.25 
L 48.921875 0 
z
" id="LiberationSans-120"/>
     </defs>
     <g style="fill:#262626;" transform="translate(259.935313 62.698827)scale(0.12 -0.12)">
      <use xlink:href="#LiberationSans-70"/>
      <use x="61.083984" xlink:href="#LiberationSans-105"/>
      <use x="83.300781" xlink:href="#LiberationSans-120"/>
      <use x="133.300781" xlink:href="#LiberationSans-101"/>
      <use x="188.916016" xlink:href="#LiberationSans-100"/>
      <use x="244.53125" xlink:href="#LiberationSans-32"/>
      <use x="272.314453" xlink:href="#LiberationSans-101"/>
      <use x="327.929688" xlink:href="#LiberationSans-102"/>
      <use x="353.962891" xlink:href="#LiberationSans-102"/>
      <use x="381.746094" xlink:href="#LiberationSans-101"/>
      <use x="437.361328" xlink:href="#LiberationSans-99"/>
      <use x="487.361328" xlink:href="#LiberationSans-116"/>
      <use x="515.144531" xlink:href="#LiberationSans-115"/>
     </g>
    </g>
   </g>
  </g>
 </g>
 <defs>
  <clipPath id="p05d145fcab">
   <rect height="108.72" width="334.8" x="19.760938" y="10.694452"/>
  </clipPath>
 </defs>
</svg>
