<?xml version="1.0" encoding="utf-8" standalone="no"?>
<!DOCTYPE svg PUBLIC "-//W3C//DTD SVG 1.1//EN"
  "http://www.w3.org/Graphics/SVG/1.1/DTD/svg11.dtd">
<!-- Created with matplotlib (https://matplotlib.org/) -->
<svg height="218.450625pt" version="1.1" viewBox="0 0 409.444687 218.450625" width="409.444687pt" xmlns="http://www.w3.org/2000/svg" xmlns:xlink="http://www.w3.org/1999/xlink">
 <defs>
  <style type="text/css">
*{stroke-linecap:butt;stroke-linejoin:round;}
  </style>
 </defs>
 <g id="figure_1">
  <g id="patch_1">
   <path d="M 0 218.450625 
L 409.444687 218.450625 
L 409.444687 0 
L 0 0 
z
" style="fill:#ffffff;"/>
  </g>
  <g id="axes_1">
   <g id="patch_2">
    <path d="M 62.224688 170.28 
L 397.024688 170.28 
L 397.024688 7.2 
L 62.224688 7.2 
z
" style="fill:#eaeaf2;"/>
   </g>
   <g id="matplotlib.axis_1">
    <g id="xtick_1">
     <g id="line2d_1">
      <path clip-path="url(#p55246203a8)" d="M 77.442869 170.28 
L 77.442869 7.2 
" style="fill:none;stroke:#ffffff;stroke-linecap:round;"/>
     </g>
     <g id="line2d_2"/>
     <g id="text_1">
      <!-- 0 -->
      <defs>
       <path d="M 51.703125 34.421875 
Q 51.703125 17.1875 45.625 8.09375 
Q 39.546875 -0.984375 27.6875 -0.984375 
Q 15.828125 -0.984375 9.859375 8.046875 
Q 3.90625 17.09375 3.90625 34.421875 
Q 3.90625 52.15625 9.6875 60.984375 
Q 15.484375 69.828125 27.984375 69.828125 
Q 40.140625 69.828125 45.921875 60.890625 
Q 51.703125 51.953125 51.703125 34.421875 
z
M 42.78125 34.421875 
Q 42.78125 49.3125 39.328125 56 
Q 35.890625 62.703125 27.984375 62.703125 
Q 19.875 62.703125 16.328125 56.109375 
Q 12.796875 49.515625 12.796875 34.421875 
Q 12.796875 19.78125 16.375 12.984375 
Q 19.96875 6.203125 27.78125 6.203125 
Q 35.546875 6.203125 39.15625 13.125 
Q 42.78125 20.0625 42.78125 34.421875 
z
" id="LiberationSans-48"/>
      </defs>
      <g style="fill:#262626;" transform="translate(73.550213 187.425625)scale(0.14 -0.14)">
       <use xlink:href="#LiberationSans-48"/>
      </g>
     </g>
    </g>
    <g id="xtick_2">
     <g id="line2d_3">
      <path clip-path="url(#p55246203a8)" d="M 127.338547 170.28 
L 127.338547 7.2 
" style="fill:none;stroke:#ffffff;stroke-linecap:round;"/>
     </g>
     <g id="line2d_4"/>
     <g id="text_2">
      <!-- 50 -->
      <defs>
       <path d="M 51.421875 22.40625 
Q 51.421875 11.53125 44.953125 5.265625 
Q 38.484375 -0.984375 27 -0.984375 
Q 17.390625 -0.984375 11.46875 3.21875 
Q 5.5625 7.421875 4 15.375 
L 12.890625 16.40625 
Q 15.671875 6.203125 27.203125 6.203125 
Q 34.28125 6.203125 38.28125 10.46875 
Q 42.28125 14.75 42.28125 22.21875 
Q 42.28125 28.71875 38.25 32.71875 
Q 34.234375 36.71875 27.390625 36.71875 
Q 23.828125 36.71875 20.75 35.59375 
Q 17.671875 34.46875 14.59375 31.78125 
L 6 31.78125 
L 8.296875 68.796875 
L 47.40625 68.796875 
L 47.40625 61.328125 
L 16.3125 61.328125 
L 14.984375 39.5 
Q 20.703125 43.890625 29.203125 43.890625 
Q 39.359375 43.890625 45.390625 37.9375 
Q 51.421875 31.984375 51.421875 22.40625 
z
" id="LiberationSans-53"/>
      </defs>
      <g style="fill:#262626;" transform="translate(119.553235 187.425625)scale(0.14 -0.14)">
       <use xlink:href="#LiberationSans-53"/>
       <use x="55.615234" xlink:href="#LiberationSans-48"/>
      </g>
     </g>
    </g>
    <g id="xtick_3">
     <g id="line2d_5">
      <path clip-path="url(#p55246203a8)" d="M 177.234226 170.28 
L 177.234226 7.2 
" style="fill:none;stroke:#ffffff;stroke-linecap:round;"/>
     </g>
     <g id="line2d_6"/>
     <g id="text_3">
      <!-- 100 -->
      <defs>
       <path d="M 7.625 0 
L 7.625 7.46875 
L 25.140625 7.46875 
L 25.140625 60.40625 
L 9.625 49.3125 
L 9.625 57.625 
L 25.875 68.796875 
L 33.984375 68.796875 
L 33.984375 7.46875 
L 50.734375 7.46875 
L 50.734375 0 
z
" id="LiberationSans-49"/>
      </defs>
      <g style="fill:#262626;" transform="translate(165.556257 187.425625)scale(0.14 -0.14)">
       <use xlink:href="#LiberationSans-49"/>
       <use x="55.615234" xlink:href="#LiberationSans-48"/>
       <use x="111.230469" xlink:href="#LiberationSans-48"/>
      </g>
     </g>
    </g>
    <g id="xtick_4">
     <g id="line2d_7">
      <path clip-path="url(#p55246203a8)" d="M 227.129904 170.28 
L 227.129904 7.2 
" style="fill:none;stroke:#ffffff;stroke-linecap:round;"/>
     </g>
     <g id="line2d_8"/>
     <g id="text_4">
      <!-- 150 -->
      <g style="fill:#262626;" transform="translate(215.451935 187.425625)scale(0.14 -0.14)">
       <use xlink:href="#LiberationSans-49"/>
       <use x="55.615234" xlink:href="#LiberationSans-53"/>
       <use x="111.230469" xlink:href="#LiberationSans-48"/>
      </g>
     </g>
    </g>
    <g id="xtick_5">
     <g id="line2d_9">
      <path clip-path="url(#p55246203a8)" d="M 277.025582 170.28 
L 277.025582 7.2 
" style="fill:none;stroke:#ffffff;stroke-linecap:round;"/>
     </g>
     <g id="line2d_10"/>
     <g id="text_5">
      <!-- 200 -->
      <defs>
       <path d="M 5.03125 0 
L 5.03125 6.203125 
Q 7.515625 11.921875 11.109375 16.28125 
Q 14.703125 20.65625 18.65625 24.1875 
Q 22.609375 27.734375 26.484375 30.765625 
Q 30.375 33.796875 33.5 36.8125 
Q 36.625 39.84375 38.546875 43.15625 
Q 40.484375 46.484375 40.484375 50.6875 
Q 40.484375 56.34375 37.15625 59.46875 
Q 33.84375 62.59375 27.9375 62.59375 
Q 22.3125 62.59375 18.671875 59.546875 
Q 15.046875 56.5 14.40625 50.984375 
L 5.421875 51.8125 
Q 6.390625 60.0625 12.421875 64.9375 
Q 18.453125 69.828125 27.9375 69.828125 
Q 38.328125 69.828125 43.921875 64.921875 
Q 49.515625 60.015625 49.515625 50.984375 
Q 49.515625 46.96875 47.671875 43.015625 
Q 45.84375 39.0625 42.234375 35.109375 
Q 38.625 31.15625 28.421875 22.859375 
Q 22.796875 18.265625 19.46875 14.578125 
Q 16.15625 10.890625 14.703125 7.46875 
L 50.59375 7.46875 
L 50.59375 0 
z
" id="LiberationSans-50"/>
      </defs>
      <g style="fill:#262626;" transform="translate(265.347613 187.425625)scale(0.14 -0.14)">
       <use xlink:href="#LiberationSans-50"/>
       <use x="55.615234" xlink:href="#LiberationSans-48"/>
       <use x="111.230469" xlink:href="#LiberationSans-48"/>
      </g>
     </g>
    </g>
    <g id="xtick_6">
     <g id="line2d_11">
      <path clip-path="url(#p55246203a8)" d="M 326.92126 170.28 
L 326.92126 7.2 
" style="fill:none;stroke:#ffffff;stroke-linecap:round;"/>
     </g>
     <g id="line2d_12"/>
     <g id="text_6">
      <!-- 250 -->
      <g style="fill:#262626;" transform="translate(315.243291 187.425625)scale(0.14 -0.14)">
       <use xlink:href="#LiberationSans-50"/>
       <use x="55.615234" xlink:href="#LiberationSans-53"/>
       <use x="111.230469" xlink:href="#LiberationSans-48"/>
      </g>
     </g>
    </g>
    <g id="xtick_7">
     <g id="line2d_13">
      <path clip-path="url(#p55246203a8)" d="M 376.816938 170.28 
L 376.816938 7.2 
" style="fill:none;stroke:#ffffff;stroke-linecap:round;"/>
     </g>
     <g id="line2d_14"/>
     <g id="text_7">
      <!-- 300 -->
      <defs>
       <path d="M 51.21875 19 
Q 51.21875 9.46875 45.15625 4.234375 
Q 39.109375 -0.984375 27.875 -0.984375 
Q 17.4375 -0.984375 11.203125 3.734375 
Q 4.984375 8.453125 3.8125 17.671875 
L 12.890625 18.5 
Q 14.65625 6.296875 27.875 6.296875 
Q 34.515625 6.296875 38.296875 9.5625 
Q 42.09375 12.84375 42.09375 19.28125 
Q 42.09375 24.90625 37.765625 28.046875 
Q 33.453125 31.203125 25.296875 31.203125 
L 20.3125 31.203125 
L 20.3125 38.8125 
L 25.09375 38.8125 
Q 32.328125 38.8125 36.296875 41.96875 
Q 40.28125 45.125 40.28125 50.6875 
Q 40.28125 56.203125 37.03125 59.390625 
Q 33.796875 62.59375 27.390625 62.59375 
Q 21.578125 62.59375 17.984375 59.609375 
Q 14.40625 56.640625 13.8125 51.21875 
L 4.984375 51.90625 
Q 5.953125 60.359375 11.984375 65.09375 
Q 18.015625 69.828125 27.484375 69.828125 
Q 37.84375 69.828125 43.578125 65.015625 
Q 49.3125 60.203125 49.3125 51.609375 
Q 49.3125 45.015625 45.625 40.890625 
Q 41.9375 36.765625 34.90625 35.296875 
L 34.90625 35.109375 
Q 42.625 34.28125 46.921875 29.9375 
Q 51.21875 25.59375 51.21875 19 
z
" id="LiberationSans-51"/>
      </defs>
      <g style="fill:#262626;" transform="translate(365.138969 187.425625)scale(0.14 -0.14)">
       <use xlink:href="#LiberationSans-51"/>
       <use x="55.615234" xlink:href="#LiberationSans-48"/>
       <use x="111.230469" xlink:href="#LiberationSans-48"/>
      </g>
     </g>
    </g>
    <g id="text_8">
     <!-- Number of visits per person (group size, $T_i$) -->
     <defs>
      <path d="M 52.828125 0 
L 16.015625 58.59375 
L 16.265625 53.859375 
L 16.5 45.703125 
L 16.5 0 
L 8.203125 0 
L 8.203125 68.796875 
L 19.046875 68.796875 
L 56.25 9.8125 
Q 55.671875 19.390625 55.671875 23.6875 
L 55.671875 68.796875 
L 64.0625 68.796875 
L 64.0625 0 
z
" id="LiberationSans-78"/>
      <path d="M 15.328125 52.828125 
L 15.328125 19.34375 
Q 15.328125 14.109375 16.359375 11.21875 
Q 17.390625 8.34375 19.625 7.078125 
Q 21.875 5.8125 26.21875 5.8125 
Q 32.5625 5.8125 36.21875 10.15625 
Q 39.890625 14.5 39.890625 22.21875 
L 39.890625 52.828125 
L 48.6875 52.828125 
L 48.6875 11.28125 
Q 48.6875 2.046875 48.96875 0 
L 40.671875 0 
Q 40.625 0.25 40.578125 1.3125 
Q 40.53125 2.390625 40.453125 3.78125 
Q 40.375 5.171875 40.28125 9.03125 
L 40.140625 9.03125 
Q 37.109375 3.5625 33.125 1.28125 
Q 29.15625 -0.984375 23.25 -0.984375 
Q 14.546875 -0.984375 10.515625 3.34375 
Q 6.5 7.671875 6.5 17.625 
L 6.5 52.828125 
z
" id="LiberationSans-117"/>
      <path d="M 37.5 0 
L 37.5 33.5 
Q 37.5 41.15625 35.390625 44.078125 
Q 33.296875 47.015625 27.828125 47.015625 
Q 22.21875 47.015625 18.9375 42.71875 
Q 15.671875 38.421875 15.671875 30.609375 
L 15.671875 0 
L 6.9375 0 
L 6.9375 41.546875 
Q 6.9375 50.78125 6.640625 52.828125 
L 14.9375 52.828125 
Q 14.984375 52.59375 15.03125 51.515625 
Q 15.09375 50.4375 15.15625 49.046875 
Q 15.234375 47.65625 15.328125 43.796875 
L 15.484375 43.796875 
Q 18.3125 49.421875 21.96875 51.609375 
Q 25.640625 53.8125 30.90625 53.8125 
Q 36.921875 53.8125 40.40625 51.421875 
Q 43.890625 49.03125 45.265625 43.796875 
L 45.40625 43.796875 
Q 48.140625 49.125 52.015625 51.46875 
Q 55.90625 53.8125 61.421875 53.8125 
Q 69.4375 53.8125 73.0625 49.46875 
Q 76.703125 45.125 76.703125 35.203125 
L 76.703125 0 
L 68.015625 0 
L 68.015625 33.5 
Q 68.015625 41.15625 65.90625 44.078125 
Q 63.8125 47.015625 58.34375 47.015625 
Q 52.59375 47.015625 49.390625 42.75 
Q 46.1875 38.484375 46.1875 30.609375 
L 46.1875 0 
z
" id="LiberationSans-109"/>
      <path d="M 51.421875 26.65625 
Q 51.421875 -0.984375 31.984375 -0.984375 
Q 25.984375 -0.984375 22 1.1875 
Q 18.015625 3.375 15.53125 8.203125 
L 15.4375 8.203125 
Q 15.4375 6.6875 15.234375 3.578125 
Q 15.046875 0.484375 14.9375 0 
L 6.453125 0 
Q 6.734375 2.640625 6.734375 10.890625 
L 6.734375 72.46875 
L 15.53125 72.46875 
L 15.53125 51.8125 
Q 15.53125 48.640625 15.328125 44.34375 
L 15.53125 44.34375 
Q 17.96875 49.421875 22 51.609375 
Q 26.03125 53.8125 31.984375 53.8125 
Q 42 53.8125 46.703125 47.0625 
Q 51.421875 40.328125 51.421875 26.65625 
z
M 42.1875 26.375 
Q 42.1875 37.453125 39.25 42.234375 
Q 36.328125 47.015625 29.734375 47.015625 
Q 22.3125 47.015625 18.921875 41.9375 
Q 15.53125 36.859375 15.53125 25.828125 
Q 15.53125 15.4375 18.84375 10.46875 
Q 22.171875 5.515625 29.640625 5.515625 
Q 36.28125 5.515625 39.234375 10.421875 
Q 42.1875 15.328125 42.1875 26.375 
z
" id="LiberationSans-98"/>
      <path d="M 13.484375 24.5625 
Q 13.484375 15.484375 17.234375 10.546875 
Q 21 5.609375 28.21875 5.609375 
Q 33.9375 5.609375 37.375 7.90625 
Q 40.828125 10.203125 42.046875 13.71875 
L 49.75 11.53125 
Q 45.015625 -0.984375 28.21875 -0.984375 
Q 16.5 -0.984375 10.375 6 
Q 4.25 12.984375 4.25 26.765625 
Q 4.25 39.84375 10.375 46.828125 
Q 16.5 53.8125 27.875 53.8125 
Q 51.171875 53.8125 51.171875 25.734375 
L 51.171875 24.5625 
z
M 42.09375 31.296875 
Q 41.359375 39.65625 37.84375 43.484375 
Q 34.328125 47.3125 27.734375 47.3125 
Q 21.34375 47.3125 17.609375 43.03125 
Q 13.875 38.765625 13.578125 31.296875 
z
" id="LiberationSans-101"/>
      <path d="M 6.9375 0 
L 6.9375 40.53125 
Q 6.9375 46.09375 6.640625 52.828125 
L 14.9375 52.828125 
Q 15.328125 43.84375 15.328125 42.046875 
L 15.53125 42.046875 
Q 17.625 48.828125 20.359375 51.3125 
Q 23.09375 53.8125 28.078125 53.8125 
Q 29.828125 53.8125 31.640625 53.328125 
L 31.640625 45.265625 
Q 29.890625 45.75 26.953125 45.75 
Q 21.484375 45.75 18.59375 41.03125 
Q 15.71875 36.328125 15.71875 27.546875 
L 15.71875 0 
z
" id="LiberationSans-114"/>
      <path id="LiberationSans-32"/>
      <path d="M 51.421875 26.46875 
Q 51.421875 12.59375 45.3125 5.796875 
Q 39.203125 -0.984375 27.59375 -0.984375 
Q 16.015625 -0.984375 10.109375 6.078125 
Q 4.203125 13.140625 4.203125 26.46875 
Q 4.203125 53.8125 27.875 53.8125 
Q 39.984375 53.8125 45.703125 47.140625 
Q 51.421875 40.484375 51.421875 26.46875 
z
M 42.1875 26.46875 
Q 42.1875 37.40625 38.9375 42.359375 
Q 35.6875 47.3125 28.03125 47.3125 
Q 20.3125 47.3125 16.859375 42.25 
Q 13.421875 37.203125 13.421875 26.46875 
Q 13.421875 16.015625 16.8125 10.765625 
Q 20.21875 5.515625 27.484375 5.515625 
Q 35.40625 5.515625 38.796875 10.59375 
Q 42.1875 15.671875 42.1875 26.46875 
z
" id="LiberationSans-111"/>
      <path d="M 17.625 46.4375 
L 17.625 0 
L 8.84375 0 
L 8.84375 46.4375 
L 1.421875 46.4375 
L 1.421875 52.828125 
L 8.84375 52.828125 
L 8.84375 58.796875 
Q 8.84375 66.015625 12.015625 69.1875 
Q 15.1875 72.359375 21.734375 72.359375 
Q 25.390625 72.359375 27.9375 71.78125 
L 27.9375 65.09375 
Q 25.734375 65.484375 24.03125 65.484375 
Q 20.65625 65.484375 19.140625 63.765625 
Q 17.625 62.0625 17.625 57.5625 
L 17.625 52.828125 
L 27.9375 52.828125 
L 27.9375 46.4375 
z
" id="LiberationSans-102"/>
      <path d="M 29.9375 0 
L 19.53125 0 
L 0.34375 52.828125 
L 9.71875 52.828125 
L 21.34375 18.453125 
Q 21.96875 16.5 24.703125 6.890625 
L 26.421875 12.59375 
L 28.328125 18.359375 
L 40.328125 52.828125 
L 49.65625 52.828125 
z
" id="LiberationSans-118"/>
      <path d="M 6.6875 64.0625 
L 6.6875 72.46875 
L 15.484375 72.46875 
L 15.484375 64.0625 
z
M 6.6875 0 
L 6.6875 52.828125 
L 15.484375 52.828125 
L 15.484375 0 
z
" id="LiberationSans-105"/>
      <path d="M 46.390625 14.59375 
Q 46.390625 7.125 40.75 3.0625 
Q 35.109375 -0.984375 24.953125 -0.984375 
Q 15.09375 -0.984375 9.734375 2.265625 
Q 4.390625 5.515625 2.78125 12.40625 
L 10.546875 13.921875 
Q 11.671875 9.671875 15.1875 7.6875 
Q 18.703125 5.71875 24.953125 5.71875 
Q 31.640625 5.71875 34.734375 7.765625 
Q 37.84375 9.8125 37.84375 13.921875 
Q 37.84375 17.046875 35.6875 19 
Q 33.546875 20.953125 28.765625 22.21875 
L 22.46875 23.875 
Q 14.890625 25.828125 11.6875 27.703125 
Q 8.5 29.59375 6.6875 32.28125 
Q 4.890625 34.96875 4.890625 38.875 
Q 4.890625 46.09375 10.03125 49.875 
Q 15.1875 53.65625 25.046875 53.65625 
Q 33.796875 53.65625 38.9375 50.578125 
Q 44.09375 47.515625 45.453125 40.71875 
L 37.546875 39.75 
Q 36.8125 43.265625 33.609375 45.140625 
Q 30.421875 47.015625 25.046875 47.015625 
Q 19.09375 47.015625 16.25 45.203125 
Q 13.421875 43.40625 13.421875 39.75 
Q 13.421875 37.5 14.59375 36.03125 
Q 15.765625 34.578125 18.0625 33.546875 
Q 20.359375 32.515625 27.734375 30.71875 
Q 34.71875 28.953125 37.796875 27.46875 
Q 40.875 25.984375 42.65625 24.171875 
Q 44.4375 22.359375 45.40625 19.984375 
Q 46.390625 17.625 46.390625 14.59375 
z
" id="LiberationSans-115"/>
      <path d="M 27.046875 0.390625 
Q 22.703125 -0.78125 18.171875 -0.78125 
Q 7.625 -0.78125 7.625 11.1875 
L 7.625 46.4375 
L 1.515625 46.4375 
L 1.515625 52.828125 
L 7.953125 52.828125 
L 10.546875 64.65625 
L 16.40625 64.65625 
L 16.40625 52.828125 
L 26.171875 52.828125 
L 26.171875 46.4375 
L 16.40625 46.4375 
L 16.40625 13.09375 
Q 16.40625 9.28125 17.640625 7.734375 
Q 18.890625 6.203125 21.96875 6.203125 
Q 23.734375 6.203125 27.046875 6.890625 
z
" id="LiberationSans-116"/>
      <path d="M 51.421875 26.65625 
Q 51.421875 -0.984375 31.984375 -0.984375 
Q 19.78125 -0.984375 15.578125 8.203125 
L 15.328125 8.203125 
Q 15.53125 7.8125 15.53125 -0.09375 
L 15.53125 -20.75 
L 6.734375 -20.75 
L 6.734375 42.046875 
Q 6.734375 50.203125 6.453125 52.828125 
L 14.9375 52.828125 
Q 14.984375 52.640625 15.078125 51.4375 
Q 15.1875 50.25 15.3125 47.75 
Q 15.4375 45.265625 15.4375 44.34375 
L 15.625 44.34375 
Q 17.96875 49.21875 21.828125 51.484375 
Q 25.6875 53.765625 31.984375 53.765625 
Q 41.75 53.765625 46.578125 47.21875 
Q 51.421875 40.671875 51.421875 26.65625 
z
M 42.1875 26.46875 
Q 42.1875 37.5 39.203125 42.234375 
Q 36.234375 46.96875 29.734375 46.96875 
Q 24.515625 46.96875 21.5625 44.765625 
Q 18.609375 42.578125 17.0625 37.90625 
Q 15.53125 33.25 15.53125 25.78125 
Q 15.53125 15.375 18.84375 10.4375 
Q 22.171875 5.515625 29.640625 5.515625 
Q 36.1875 5.515625 39.1875 10.328125 
Q 42.1875 15.140625 42.1875 26.46875 
z
" id="LiberationSans-112"/>
      <path d="M 40.28125 0 
L 40.28125 33.5 
Q 40.28125 38.71875 39.25 41.59375 
Q 38.234375 44.484375 35.984375 45.75 
Q 33.734375 47.015625 29.390625 47.015625 
Q 23.046875 47.015625 19.375 42.671875 
Q 15.71875 38.328125 15.71875 30.609375 
L 15.71875 0 
L 6.9375 0 
L 6.9375 41.546875 
Q 6.9375 50.78125 6.640625 52.828125 
L 14.9375 52.828125 
Q 14.984375 52.59375 15.03125 51.515625 
Q 15.09375 50.4375 15.15625 49.046875 
Q 15.234375 47.65625 15.328125 43.796875 
L 15.484375 43.796875 
Q 18.5 49.265625 22.484375 51.53125 
Q 26.46875 53.8125 32.375 53.8125 
Q 41.0625 53.8125 45.09375 49.484375 
Q 49.125 45.171875 49.125 35.203125 
L 49.125 0 
z
" id="LiberationSans-110"/>
      <path d="M 6.203125 25.984375 
Q 6.203125 40.09375 10.625 51.3125 
Q 15.046875 62.546875 24.21875 72.46875 
L 32.71875 72.46875 
Q 23.578125 62.3125 19.3125 50.875 
Q 15.046875 39.453125 15.046875 25.875 
Q 15.046875 12.359375 19.265625 0.96875 
Q 23.484375 -10.40625 32.71875 -20.703125 
L 24.21875 -20.703125 
Q 14.984375 -10.75 10.59375 0.5 
Q 6.203125 11.765625 6.203125 25.78125 
z
" id="LiberationSans-40"/>
      <path d="M 26.765625 -20.75 
Q 18.109375 -20.75 12.984375 -17.359375 
Q 7.859375 -13.96875 6.390625 -7.71875 
L 15.234375 -6.453125 
Q 16.109375 -10.109375 19.109375 -12.078125 
Q 22.125 -14.0625 27 -14.0625 
Q 40.140625 -14.0625 40.140625 1.3125 
L 40.140625 9.8125 
L 40.046875 9.8125 
Q 37.546875 4.734375 33.203125 2.171875 
Q 28.859375 -0.390625 23.046875 -0.390625 
Q 13.328125 -0.390625 8.765625 6.046875 
Q 4.203125 12.5 4.203125 26.3125 
Q 4.203125 40.328125 9.109375 46.984375 
Q 14.015625 53.65625 24.03125 53.65625 
Q 29.640625 53.65625 33.765625 51.09375 
Q 37.890625 48.53125 40.140625 43.796875 
L 40.234375 43.796875 
Q 40.234375 45.265625 40.421875 48.875 
Q 40.625 52.484375 40.828125 52.828125 
L 49.171875 52.828125 
Q 48.875 50.203125 48.875 41.890625 
L 48.875 1.515625 
Q 48.875 -20.75 26.765625 -20.75 
z
M 40.140625 26.421875 
Q 40.140625 32.859375 38.375 37.515625 
Q 36.625 42.1875 33.421875 44.65625 
Q 30.21875 47.125 26.171875 47.125 
Q 19.4375 47.125 16.359375 42.234375 
Q 13.28125 37.359375 13.28125 26.421875 
Q 13.28125 15.578125 16.15625 10.84375 
Q 19.046875 6.109375 26.03125 6.109375 
Q 30.171875 6.109375 33.390625 8.546875 
Q 36.625 10.984375 38.375 15.546875 
Q 40.140625 20.125 40.140625 26.421875 
z
" id="LiberationSans-103"/>
      <path d="M 4.046875 0 
L 4.046875 6.6875 
L 33.59375 46.046875 
L 5.71875 46.046875 
L 5.71875 52.828125 
L 44 52.828125 
L 44 46.140625 
L 14.40625 6.78125 
L 45.015625 6.78125 
L 45.015625 0 
z
" id="LiberationSans-122"/>
      <path d="M 18.796875 10.6875 
L 18.796875 2.484375 
Q 18.796875 -2.6875 17.859375 -6.15625 
Q 16.9375 -9.625 14.984375 -12.796875 
L 8.984375 -12.796875 
Q 13.578125 -6.15625 13.578125 0 
L 9.28125 0 
L 9.28125 10.6875 
z
" id="LiberationSans-44"/>
      <path d="M 5.90625 72.90625 
L 67.578125 72.90625 
L 66.015625 64.59375 
L 39.984375 64.59375 
L 27.484375 0 
L 17.578125 0 
L 30.078125 64.59375 
L 4.296875 64.59375 
z
" id="DejaVuSans-Oblique-84"/>
      <path d="M 18.3125 75.984375 
L 27.296875 75.984375 
L 25.09375 64.59375 
L 16.109375 64.59375 
z
M 14.203125 54.6875 
L 23.1875 54.6875 
L 12.5 0 
L 3.515625 0 
z
" id="DejaVuSans-Oblique-105"/>
      <path d="M 27.09375 25.78125 
Q 27.09375 11.671875 22.671875 0.4375 
Q 18.265625 -10.796875 9.078125 -20.703125 
L 0.59375 -20.703125 
Q 9.765625 -10.453125 14.015625 0.890625 
Q 18.265625 12.25 18.265625 25.875 
Q 18.265625 39.5 13.984375 50.875 
Q 9.71875 62.25 0.59375 72.46875 
L 9.078125 72.46875 
Q 18.3125 62.5 22.703125 51.234375 
Q 27.09375 39.984375 27.09375 25.984375 
z
" id="LiberationSans-41"/>
     </defs>
     <g style="fill:#262626;" transform="translate(57.004688 207.470625)scale(0.18 -0.18)">
      <use transform="translate(0 0.09375)" xlink:href="#LiberationSans-78"/>
      <use transform="translate(72.216797 0.09375)" xlink:href="#LiberationSans-117"/>
      <use transform="translate(127.832031 0.09375)" xlink:href="#LiberationSans-109"/>
      <use transform="translate(211.132812 0.09375)" xlink:href="#LiberationSans-98"/>
      <use transform="translate(266.748047 0.09375)" xlink:href="#LiberationSans-101"/>
      <use transform="translate(322.363281 0.09375)" xlink:href="#LiberationSans-114"/>
      <use transform="translate(355.664062 0.09375)" xlink:href="#LiberationSans-32"/>
      <use transform="translate(383.447266 0.09375)" xlink:href="#LiberationSans-111"/>
      <use transform="translate(439.0625 0.09375)" xlink:href="#LiberationSans-102"/>
      <use transform="translate(466.845703 0.09375)" xlink:href="#LiberationSans-32"/>
      <use transform="translate(494.628906 0.09375)" xlink:href="#LiberationSans-118"/>
      <use transform="translate(544.628906 0.09375)" xlink:href="#LiberationSans-105"/>
      <use transform="translate(566.845703 0.09375)" xlink:href="#LiberationSans-115"/>
      <use transform="translate(616.845703 0.09375)" xlink:href="#LiberationSans-105"/>
      <use transform="translate(639.0625 0.09375)" xlink:href="#LiberationSans-116"/>
      <use transform="translate(666.845703 0.09375)" xlink:href="#LiberationSans-115"/>
      <use transform="translate(716.845703 0.09375)" xlink:href="#LiberationSans-32"/>
      <use transform="translate(744.628906 0.09375)" xlink:href="#LiberationSans-112"/>
      <use transform="translate(800.244141 0.09375)" xlink:href="#LiberationSans-101"/>
      <use transform="translate(855.859375 0.09375)" xlink:href="#LiberationSans-114"/>
      <use transform="translate(889.160156 0.09375)" xlink:href="#LiberationSans-32"/>
      <use transform="translate(916.943359 0.09375)" xlink:href="#LiberationSans-112"/>
      <use transform="translate(972.558594 0.09375)" xlink:href="#LiberationSans-101"/>
      <use transform="translate(1028.173828 0.09375)" xlink:href="#LiberationSans-114"/>
      <use transform="translate(1061.474609 0.09375)" xlink:href="#LiberationSans-115"/>
      <use transform="translate(1111.474609 0.09375)" xlink:href="#LiberationSans-111"/>
      <use transform="translate(1167.089844 0.09375)" xlink:href="#LiberationSans-110"/>
      <use transform="translate(1222.705078 0.09375)" xlink:href="#LiberationSans-32"/>
      <use transform="translate(1250.488281 0.09375)" xlink:href="#LiberationSans-40"/>
      <use transform="translate(1283.789062 0.09375)" xlink:href="#LiberationSans-103"/>
      <use transform="translate(1339.404297 0.09375)" xlink:href="#LiberationSans-114"/>
      <use transform="translate(1372.705078 0.09375)" xlink:href="#LiberationSans-111"/>
      <use transform="translate(1428.320312 0.09375)" xlink:href="#LiberationSans-117"/>
      <use transform="translate(1483.935547 0.09375)" xlink:href="#LiberationSans-112"/>
      <use transform="translate(1539.550781 0.09375)" xlink:href="#LiberationSans-32"/>
      <use transform="translate(1567.333984 0.09375)" xlink:href="#LiberationSans-115"/>
      <use transform="translate(1617.333984 0.09375)" xlink:href="#LiberationSans-105"/>
      <use transform="translate(1639.550781 0.09375)" xlink:href="#LiberationSans-122"/>
      <use transform="translate(1689.550781 0.09375)" xlink:href="#LiberationSans-101"/>
      <use transform="translate(1745.166016 0.09375)" xlink:href="#LiberationSans-44"/>
      <use transform="translate(1772.949219 0.09375)" xlink:href="#LiberationSans-32"/>
      <use transform="translate(1800.732422 0.09375)" xlink:href="#DejaVuSans-Oblique-84"/>
      <use transform="translate(1861.816406 -16.3125)scale(0.7)" xlink:href="#DejaVuSans-Oblique-105"/>
      <use transform="translate(1883.999023 0.09375)" xlink:href="#LiberationSans-41"/>
     </g>
    </g>
   </g>
   <g id="matplotlib.axis_2">
    <g id="ytick_1">
     <g id="line2d_15">
      <path clip-path="url(#p55246203a8)" d="M 62.224688 170.28 
L 397.024688 170.28 
" style="fill:none;stroke:#ffffff;stroke-linecap:round;"/>
     </g>
     <g id="line2d_16"/>
     <g id="text_9">
      <!-- 0.00 -->
      <defs>
       <path d="M 9.125 0 
L 9.125 10.6875 
L 18.65625 10.6875 
L 18.65625 0 
z
" id="LiberationSans-46"/>
      </defs>
      <g style="fill:#262626;" transform="translate(27.979375 175.352812)scale(0.14 -0.14)">
       <use xlink:href="#LiberationSans-48"/>
       <use x="55.615234" xlink:href="#LiberationSans-46"/>
       <use x="83.398438" xlink:href="#LiberationSans-48"/>
       <use x="139.013672" xlink:href="#LiberationSans-48"/>
      </g>
     </g>
    </g>
    <g id="ytick_2">
     <g id="line2d_17">
      <path clip-path="url(#p55246203a8)" d="M 62.224688 125.456252 
L 397.024688 125.456252 
" style="fill:none;stroke:#ffffff;stroke-linecap:round;"/>
     </g>
     <g id="line2d_18"/>
     <g id="text_10">
      <!-- 0.02 -->
      <g style="fill:#262626;" transform="translate(27.979375 130.529065)scale(0.14 -0.14)">
       <use xlink:href="#LiberationSans-48"/>
       <use x="55.615234" xlink:href="#LiberationSans-46"/>
       <use x="83.398438" xlink:href="#LiberationSans-48"/>
       <use x="139.013672" xlink:href="#LiberationSans-50"/>
      </g>
     </g>
    </g>
    <g id="ytick_3">
     <g id="line2d_19">
      <path clip-path="url(#p55246203a8)" d="M 62.224688 80.632505 
L 397.024688 80.632505 
" style="fill:none;stroke:#ffffff;stroke-linecap:round;"/>
     </g>
     <g id="line2d_20"/>
     <g id="text_11">
      <!-- 0.04 -->
      <defs>
       <path d="M 43.015625 15.578125 
L 43.015625 0 
L 34.71875 0 
L 34.71875 15.578125 
L 2.296875 15.578125 
L 2.296875 22.40625 
L 33.796875 68.796875 
L 43.015625 68.796875 
L 43.015625 22.515625 
L 52.6875 22.515625 
L 52.6875 15.578125 
z
M 34.71875 58.890625 
Q 34.625 58.59375 33.34375 56.296875 
Q 32.078125 54 31.453125 53.078125 
L 13.8125 27.09375 
L 11.1875 23.484375 
L 10.40625 22.515625 
L 34.71875 22.515625 
z
" id="LiberationSans-52"/>
      </defs>
      <g style="fill:#262626;" transform="translate(27.979375 85.705317)scale(0.14 -0.14)">
       <use xlink:href="#LiberationSans-48"/>
       <use x="55.615234" xlink:href="#LiberationSans-46"/>
       <use x="83.398438" xlink:href="#LiberationSans-48"/>
       <use x="139.013672" xlink:href="#LiberationSans-52"/>
      </g>
     </g>
    </g>
    <g id="ytick_4">
     <g id="line2d_21">
      <path clip-path="url(#p55246203a8)" d="M 62.224688 35.808757 
L 397.024688 35.808757 
" style="fill:none;stroke:#ffffff;stroke-linecap:round;"/>
     </g>
     <g id="line2d_22"/>
     <g id="text_12">
      <!-- 0.06 -->
      <defs>
       <path d="M 51.21875 22.515625 
Q 51.21875 11.625 45.3125 5.3125 
Q 39.40625 -0.984375 29 -0.984375 
Q 17.390625 -0.984375 11.234375 7.65625 
Q 5.078125 16.3125 5.078125 32.8125 
Q 5.078125 50.6875 11.46875 60.25 
Q 17.875 69.828125 29.6875 69.828125 
Q 45.265625 69.828125 49.3125 55.8125 
L 40.921875 54.296875 
Q 38.328125 62.703125 29.59375 62.703125 
Q 22.078125 62.703125 17.9375 55.6875 
Q 13.8125 48.6875 13.8125 35.40625 
Q 16.21875 39.84375 20.5625 42.15625 
Q 24.90625 44.484375 30.515625 44.484375 
Q 40.046875 44.484375 45.625 38.515625 
Q 51.21875 32.5625 51.21875 22.515625 
z
M 42.28125 22.125 
Q 42.28125 29.59375 38.625 33.640625 
Q 34.96875 37.703125 28.421875 37.703125 
Q 22.265625 37.703125 18.484375 34.109375 
Q 14.703125 30.515625 14.703125 24.21875 
Q 14.703125 16.265625 18.625 11.1875 
Q 22.5625 6.109375 28.71875 6.109375 
Q 35.0625 6.109375 38.671875 10.375 
Q 42.28125 14.65625 42.28125 22.125 
z
" id="LiberationSans-54"/>
      </defs>
      <g style="fill:#262626;" transform="translate(27.979375 40.881569)scale(0.14 -0.14)">
       <use xlink:href="#LiberationSans-48"/>
       <use x="55.615234" xlink:href="#LiberationSans-46"/>
       <use x="83.398438" xlink:href="#LiberationSans-48"/>
       <use x="139.013672" xlink:href="#LiberationSans-54"/>
      </g>
     </g>
    </g>
    <g id="text_13">
     <!-- Probability mass -->
     <defs>
      <path d="M 61.421875 48.09375 
Q 61.421875 38.328125 55.046875 32.5625 
Q 48.6875 26.8125 37.75 26.8125 
L 17.53125 26.8125 
L 17.53125 0 
L 8.203125 0 
L 8.203125 68.796875 
L 37.15625 68.796875 
Q 48.734375 68.796875 55.078125 63.375 
Q 61.421875 57.953125 61.421875 48.09375 
z
M 52.046875 48 
Q 52.046875 61.328125 36.03125 61.328125 
L 17.53125 61.328125 
L 17.53125 34.1875 
L 36.421875 34.1875 
Q 52.046875 34.1875 52.046875 48 
z
" id="LiberationSans-80"/>
      <path d="M 20.21875 -0.984375 
Q 12.25 -0.984375 8.25 3.21875 
Q 4.25 7.421875 4.25 14.75 
Q 4.25 22.953125 9.640625 27.34375 
Q 15.046875 31.734375 27.046875 32.03125 
L 38.921875 32.234375 
L 38.921875 35.109375 
Q 38.921875 41.546875 36.1875 44.328125 
Q 33.453125 47.125 27.59375 47.125 
Q 21.6875 47.125 19 45.109375 
Q 16.3125 43.109375 15.765625 38.71875 
L 6.59375 39.546875 
Q 8.84375 53.8125 27.78125 53.8125 
Q 37.75 53.8125 42.765625 49.234375 
Q 47.796875 44.671875 47.796875 36.03125 
L 47.796875 13.28125 
Q 47.796875 9.375 48.828125 7.390625 
Q 49.859375 5.421875 52.734375 5.421875 
Q 54 5.421875 55.609375 5.765625 
L 55.609375 0.296875 
Q 52.296875 -0.484375 48.828125 -0.484375 
Q 43.953125 -0.484375 41.71875 2.078125 
Q 39.5 4.640625 39.203125 10.109375 
L 38.921875 10.109375 
Q 35.546875 4.046875 31.078125 1.53125 
Q 26.609375 -0.984375 20.21875 -0.984375 
z
M 22.21875 5.609375 
Q 27.046875 5.609375 30.8125 7.8125 
Q 34.578125 10.015625 36.75 13.84375 
Q 38.921875 17.671875 38.921875 21.734375 
L 38.921875 26.078125 
L 29.296875 25.875 
Q 23.09375 25.78125 19.890625 24.609375 
Q 16.703125 23.4375 14.984375 21 
Q 13.28125 18.5625 13.28125 14.59375 
Q 13.28125 10.296875 15.59375 7.953125 
Q 17.921875 5.609375 22.21875 5.609375 
z
" id="LiberationSans-97"/>
      <path d="M 6.734375 0 
L 6.734375 72.46875 
L 15.53125 72.46875 
L 15.53125 0 
z
" id="LiberationSans-108"/>
      <path d="M 9.328125 -20.75 
Q 5.71875 -20.75 3.265625 -20.21875 
L 3.265625 -13.625 
Q 5.125 -13.921875 7.375 -13.921875 
Q 15.578125 -13.921875 20.359375 -1.859375 
L 21.1875 0.25 
L 0.25 52.828125 
L 9.625 52.828125 
L 20.75 23.640625 
Q 21 22.953125 21.34375 22 
Q 21.6875 21.046875 23.53125 15.625 
Q 25.390625 10.203125 25.53125 9.578125 
L 28.953125 19.1875 
L 40.53125 52.828125 
L 49.8125 52.828125 
L 29.5 0 
Q 26.21875 -8.453125 23.390625 -12.578125 
Q 20.5625 -16.703125 17.109375 -18.71875 
Q 13.671875 -20.75 9.328125 -20.75 
z
" id="LiberationSans-121"/>
     </defs>
     <g style="fill:#262626;" transform="translate(20.244375 154.760625)rotate(-90)scale(0.18 -0.18)">
      <use xlink:href="#LiberationSans-80"/>
      <use x="66.699219" xlink:href="#LiberationSans-114"/>
      <use x="100" xlink:href="#LiberationSans-111"/>
      <use x="155.615234" xlink:href="#LiberationSans-98"/>
      <use x="211.230469" xlink:href="#LiberationSans-97"/>
      <use x="266.845703" xlink:href="#LiberationSans-98"/>
      <use x="322.460938" xlink:href="#LiberationSans-105"/>
      <use x="344.677734" xlink:href="#LiberationSans-108"/>
      <use x="366.894531" xlink:href="#LiberationSans-105"/>
      <use x="389.111328" xlink:href="#LiberationSans-116"/>
      <use x="416.894531" xlink:href="#LiberationSans-121"/>
      <use x="466.894531" xlink:href="#LiberationSans-32"/>
      <use x="494.677734" xlink:href="#LiberationSans-109"/>
      <use x="577.978516" xlink:href="#LiberationSans-97"/>
      <use x="633.59375" xlink:href="#LiberationSans-115"/>
      <use x="683.59375" xlink:href="#LiberationSans-115"/>
     </g>
    </g>
   </g>
   <g id="patch_3">
    <path clip-path="url(#p55246203a8)" d="M 77.442869 170.28 
L 82.432437 170.28 
L 82.432437 122.448278 
L 77.442869 122.448278 
z
" style="fill:#4c72b0;opacity:0.4;"/>
   </g>
   <g id="patch_4">
    <path clip-path="url(#p55246203a8)" d="M 82.432437 170.28 
L 87.422005 170.28 
L 87.422005 114.603338 
L 82.432437 114.603338 
z
" style="fill:#4c72b0;opacity:0.4;"/>
   </g>
   <g id="patch_5">
    <path clip-path="url(#p55246203a8)" d="M 87.422005 170.28 
L 92.411573 170.28 
L 92.411573 122.851732 
L 87.422005 122.851732 
z
" style="fill:#4c72b0;opacity:0.4;"/>
   </g>
   <g id="patch_6">
    <path clip-path="url(#p55246203a8)" d="M 92.411573 170.28 
L 97.401141 170.28 
L 97.401141 130.069077 
L 92.411573 130.069077 
z
" style="fill:#4c72b0;opacity:0.4;"/>
   </g>
   <g id="patch_7">
    <path clip-path="url(#p55246203a8)" d="M 97.401141 170.28 
L 102.390708 170.28 
L 102.390708 134.327759 
L 97.401141 134.327759 
z
" style="fill:#4c72b0;opacity:0.4;"/>
   </g>
   <g id="patch_8">
    <path clip-path="url(#p55246203a8)" d="M 102.390708 170.28 
L 107.380276 170.28 
L 107.380276 140.603711 
L 102.390708 140.603711 
z
" style="fill:#4c72b0;opacity:0.4;"/>
   </g>
   <g id="patch_9">
    <path clip-path="url(#p55246203a8)" d="M 107.380276 170.28 
L 112.369844 170.28 
L 112.369844 144.369283 
L 107.380276 144.369283 
z
" style="fill:#4c72b0;opacity:0.4;"/>
   </g>
   <g id="patch_10">
    <path clip-path="url(#p55246203a8)" d="M 112.369844 170.28 
L 117.359412 170.28 
L 117.359412 147.865885 
L 112.369844 147.865885 
z
" style="fill:#4c72b0;opacity:0.4;"/>
   </g>
   <g id="patch_11">
    <path clip-path="url(#p55246203a8)" d="M 117.359412 170.28 
L 122.34898 170.28 
L 122.34898 150.376266 
L 117.359412 150.376266 
z
" style="fill:#4c72b0;opacity:0.4;"/>
   </g>
   <g id="patch_12">
    <path clip-path="url(#p55246203a8)" d="M 122.34898 170.28 
L 127.338547 170.28 
L 127.338547 152.572849 
L 122.34898 152.572849 
z
" style="fill:#4c72b0;opacity:0.4;"/>
   </g>
   <g id="patch_13">
    <path clip-path="url(#p55246203a8)" d="M 127.338547 170.28 
L 132.328115 170.28 
L 132.328115 156.562561 
L 127.338547 156.562561 
z
" style="fill:#4c72b0;opacity:0.4;"/>
   </g>
   <g id="patch_14">
    <path clip-path="url(#p55246203a8)" d="M 132.328115 170.28 
L 137.317683 170.28 
L 137.317683 158.176378 
L 132.328115 158.176378 
z
" style="fill:#4c72b0;opacity:0.4;"/>
   </g>
   <g id="patch_15">
    <path clip-path="url(#p55246203a8)" d="M 137.317683 170.28 
L 142.307251 170.28 
L 142.307251 159.610881 
L 137.317683 159.610881 
z
" style="fill:#4c72b0;opacity:0.4;"/>
   </g>
   <g id="patch_16">
    <path clip-path="url(#p55246203a8)" d="M 142.307251 170.28 
L 147.296819 170.28 
L 147.296819 160.866072 
L 142.307251 160.866072 
z
" style="fill:#4c72b0;opacity:0.4;"/>
   </g>
   <g id="patch_17">
    <path clip-path="url(#p55246203a8)" d="M 147.296819 170.28 
L 152.286386 170.28 
L 152.286386 162.345403 
L 147.296819 162.345403 
z
" style="fill:#4c72b0;opacity:0.4;"/>
   </g>
   <g id="patch_18">
    <path clip-path="url(#p55246203a8)" d="M 152.286386 170.28 
L 157.275954 170.28 
L 157.275954 163.017827 
L 152.286386 163.017827 
z
" style="fill:#4c72b0;opacity:0.4;"/>
   </g>
   <g id="patch_19">
    <path clip-path="url(#p55246203a8)" d="M 157.275954 170.28 
L 162.265522 170.28 
L 162.265522 164.362674 
L 157.275954 164.362674 
z
" style="fill:#4c72b0;opacity:0.4;"/>
   </g>
   <g id="patch_20">
    <path clip-path="url(#p55246203a8)" d="M 162.265522 170.28 
L 167.25509 170.28 
L 167.25509 165.752349 
L 162.265522 165.752349 
z
" style="fill:#4c72b0;opacity:0.4;"/>
   </g>
   <g id="patch_21">
    <path clip-path="url(#p55246203a8)" d="M 167.25509 170.28 
L 172.244658 170.28 
L 172.244658 165.97649 
L 167.25509 165.97649 
z
" style="fill:#4c72b0;opacity:0.4;"/>
   </g>
   <g id="patch_22">
    <path clip-path="url(#p55246203a8)" d="M 172.244658 170.28 
L 177.234226 170.28 
L 177.234226 165.662692 
L 172.244658 165.662692 
z
" style="fill:#4c72b0;opacity:0.4;"/>
   </g>
   <g id="patch_23">
    <path clip-path="url(#p55246203a8)" d="M 177.234226 170.28 
L 182.223793 170.28 
L 182.223793 166.873054 
L 177.234226 166.873054 
z
" style="fill:#4c72b0;opacity:0.4;"/>
   </g>
   <g id="patch_24">
    <path clip-path="url(#p55246203a8)" d="M 182.223793 170.28 
L 187.213361 170.28 
L 187.213361 167.052367 
L 182.223793 167.052367 
z
" style="fill:#4c72b0;opacity:0.4;"/>
   </g>
   <g id="patch_25">
    <path clip-path="url(#p55246203a8)" d="M 187.213361 170.28 
L 192.202929 170.28 
L 192.202929 167.904104 
L 187.213361 167.904104 
z
" style="fill:#4c72b0;opacity:0.4;"/>
   </g>
   <g id="patch_26">
    <path clip-path="url(#p55246203a8)" d="M 192.202929 170.28 
L 197.192497 170.28 
L 197.192497 167.590306 
L 192.202929 167.590306 
z
" style="fill:#4c72b0;opacity:0.4;"/>
   </g>
   <g id="patch_27">
    <path clip-path="url(#p55246203a8)" d="M 197.192497 170.28 
L 202.182065 170.28 
L 202.182065 168.531699 
L 197.192497 168.531699 
z
" style="fill:#4c72b0;opacity:0.4;"/>
   </g>
   <g id="patch_28">
    <path clip-path="url(#p55246203a8)" d="M 202.182065 170.28 
L 207.171632 170.28 
L 207.171632 168.486871 
L 202.182065 168.486871 
z
" style="fill:#4c72b0;opacity:0.4;"/>
   </g>
   <g id="patch_29">
    <path clip-path="url(#p55246203a8)" d="M 207.171632 170.28 
L 212.1612 170.28 
L 212.1612 168.75584 
L 207.171632 168.75584 
z
" style="fill:#4c72b0;opacity:0.4;"/>
   </g>
   <g id="patch_30">
    <path clip-path="url(#p55246203a8)" d="M 212.1612 170.28 
L 217.150768 170.28 
L 217.150768 169.114466 
L 212.1612 169.114466 
z
" style="fill:#4c72b0;opacity:0.4;"/>
   </g>
   <g id="patch_31">
    <path clip-path="url(#p55246203a8)" d="M 217.150768 170.28 
L 222.140336 170.28 
L 222.140336 169.697233 
L 217.150768 169.697233 
z
" style="fill:#4c72b0;opacity:0.4;"/>
   </g>
   <g id="patch_32">
    <path clip-path="url(#p55246203a8)" d="M 222.140336 170.28 
L 227.129904 170.28 
L 227.129904 169.652405 
L 222.140336 169.652405 
z
" style="fill:#4c72b0;opacity:0.4;"/>
   </g>
   <g id="patch_33">
    <path clip-path="url(#p55246203a8)" d="M 227.129904 170.28 
L 232.119471 170.28 
L 232.119471 169.51792 
L 227.129904 169.51792 
z
" style="fill:#4c72b0;opacity:0.4;"/>
   </g>
   <g id="patch_34">
    <path clip-path="url(#p55246203a8)" d="M 232.119471 170.28 
L 237.109039 170.28 
L 237.109039 169.697233 
L 232.119471 169.697233 
z
" style="fill:#4c72b0;opacity:0.4;"/>
   </g>
   <g id="patch_35">
    <path clip-path="url(#p55246203a8)" d="M 237.109039 170.28 
L 242.098607 170.28 
L 242.098607 169.607577 
L 237.109039 169.607577 
z
" style="fill:#4c72b0;opacity:0.4;"/>
   </g>
   <g id="patch_36">
    <path clip-path="url(#p55246203a8)" d="M 242.098607 170.28 
L 247.088175 170.28 
L 247.088175 169.966202 
L 242.098607 169.966202 
z
" style="fill:#4c72b0;opacity:0.4;"/>
   </g>
   <g id="patch_37">
    <path clip-path="url(#p55246203a8)" d="M 247.088175 170.28 
L 252.077743 170.28 
L 252.077743 169.876546 
L 247.088175 169.876546 
z
" style="fill:#4c72b0;opacity:0.4;"/>
   </g>
   <g id="patch_38">
    <path clip-path="url(#p55246203a8)" d="M 252.077743 170.28 
L 257.06731 170.28 
L 257.06731 169.876546 
L 252.077743 169.876546 
z
" style="fill:#4c72b0;opacity:0.4;"/>
   </g>
   <g id="patch_39">
    <path clip-path="url(#p55246203a8)" d="M 257.06731 170.28 
L 262.056878 170.28 
L 262.056878 169.921374 
L 257.06731 169.921374 
z
" style="fill:#4c72b0;opacity:0.4;"/>
   </g>
   <g id="patch_40">
    <path clip-path="url(#p55246203a8)" d="M 262.056878 170.28 
L 267.046446 170.28 
L 267.046446 169.921374 
L 262.056878 169.921374 
z
" style="fill:#4c72b0;opacity:0.4;"/>
   </g>
   <g id="patch_41">
    <path clip-path="url(#p55246203a8)" d="M 267.046446 170.28 
L 272.036014 170.28 
L 272.036014 170.055859 
L 267.046446 170.055859 
z
" style="fill:#4c72b0;opacity:0.4;"/>
   </g>
   <g id="patch_42">
    <path clip-path="url(#p55246203a8)" d="M 272.036014 170.28 
L 277.025582 170.28 
L 277.025582 170.100687 
L 272.036014 170.100687 
z
" style="fill:#4c72b0;opacity:0.4;"/>
   </g>
   <g id="patch_43">
    <path clip-path="url(#p55246203a8)" d="M 277.025582 170.28 
L 282.015149 170.28 
L 282.015149 170.011031 
L 277.025582 170.011031 
z
" style="fill:#4c72b0;opacity:0.4;"/>
   </g>
   <g id="patch_44">
    <path clip-path="url(#p55246203a8)" d="M 282.015149 170.28 
L 287.004717 170.28 
L 287.004717 170.100687 
L 282.015149 170.100687 
z
" style="fill:#4c72b0;opacity:0.4;"/>
   </g>
   <g id="patch_45">
    <path clip-path="url(#p55246203a8)" d="M 287.004717 170.28 
L 291.994285 170.28 
L 291.994285 170.011031 
L 287.004717 170.011031 
z
" style="fill:#4c72b0;opacity:0.4;"/>
   </g>
   <g id="patch_46">
    <path clip-path="url(#p55246203a8)" d="M 291.994285 170.28 
L 296.983853 170.28 
L 296.983853 170.145515 
L 291.994285 170.145515 
z
" style="fill:#4c72b0;opacity:0.4;"/>
   </g>
   <g id="patch_47">
    <path clip-path="url(#p55246203a8)" d="M 296.983853 170.28 
L 301.973421 170.28 
L 301.973421 170.190344 
L 296.983853 170.190344 
z
" style="fill:#4c72b0;opacity:0.4;"/>
   </g>
   <g id="patch_48">
    <path clip-path="url(#p55246203a8)" d="M 301.973421 170.28 
L 306.962989 170.28 
L 306.962989 170.235172 
L 301.973421 170.235172 
z
" style="fill:#4c72b0;opacity:0.4;"/>
   </g>
   <g id="patch_49">
    <path clip-path="url(#p55246203a8)" d="M 306.962989 170.28 
L 311.952556 170.28 
L 311.952556 170.145515 
L 306.962989 170.145515 
z
" style="fill:#4c72b0;opacity:0.4;"/>
   </g>
   <g id="patch_50">
    <path clip-path="url(#p55246203a8)" d="M 311.952556 170.28 
L 316.942124 170.28 
L 316.942124 170.190344 
L 311.952556 170.190344 
z
" style="fill:#4c72b0;opacity:0.4;"/>
   </g>
   <g id="patch_51">
    <path clip-path="url(#p55246203a8)" d="M 316.942124 170.28 
L 321.931692 170.28 
L 321.931692 170.28 
L 316.942124 170.28 
z
" style="fill:#4c72b0;opacity:0.4;"/>
   </g>
   <g id="patch_52">
    <path clip-path="url(#p55246203a8)" d="M 321.931692 170.28 
L 326.92126 170.28 
L 326.92126 170.235172 
L 321.931692 170.235172 
z
" style="fill:#4c72b0;opacity:0.4;"/>
   </g>
   <g id="patch_53">
    <path clip-path="url(#p55246203a8)" d="M 326.92126 170.28 
L 331.910828 170.28 
L 331.910828 170.235172 
L 326.92126 170.235172 
z
" style="fill:#4c72b0;opacity:0.4;"/>
   </g>
   <g id="patch_54">
    <path clip-path="url(#p55246203a8)" d="M 331.910828 170.28 
L 336.900395 170.28 
L 336.900395 170.28 
L 331.910828 170.28 
z
" style="fill:#4c72b0;opacity:0.4;"/>
   </g>
   <g id="patch_55">
    <path clip-path="url(#p55246203a8)" d="M 336.900395 170.28 
L 341.889963 170.28 
L 341.889963 170.235172 
L 336.900395 170.235172 
z
" style="fill:#4c72b0;opacity:0.4;"/>
   </g>
   <g id="patch_56">
    <path clip-path="url(#p55246203a8)" d="M 341.889963 170.28 
L 346.879531 170.28 
L 346.879531 170.235172 
L 341.889963 170.235172 
z
" style="fill:#4c72b0;opacity:0.4;"/>
   </g>
   <g id="patch_57">
    <path clip-path="url(#p55246203a8)" d="M 346.879531 170.28 
L 351.869099 170.28 
L 351.869099 170.235172 
L 346.879531 170.235172 
z
" style="fill:#4c72b0;opacity:0.4;"/>
   </g>
   <g id="patch_58">
    <path clip-path="url(#p55246203a8)" d="M 351.869099 170.28 
L 356.858667 170.28 
L 356.858667 170.28 
L 351.869099 170.28 
z
" style="fill:#4c72b0;opacity:0.4;"/>
   </g>
   <g id="patch_59">
    <path clip-path="url(#p55246203a8)" d="M 356.858667 170.28 
L 361.848234 170.28 
L 361.848234 170.145515 
L 356.858667 170.145515 
z
" style="fill:#4c72b0;opacity:0.4;"/>
   </g>
   <g id="patch_60">
    <path clip-path="url(#p55246203a8)" d="M 361.848234 170.28 
L 366.837802 170.28 
L 366.837802 170.28 
L 361.848234 170.28 
z
" style="fill:#4c72b0;opacity:0.4;"/>
   </g>
   <g id="patch_61">
    <path clip-path="url(#p55246203a8)" d="M 366.837802 170.28 
L 371.82737 170.28 
L 371.82737 170.235172 
L 366.837802 170.235172 
z
" style="fill:#4c72b0;opacity:0.4;"/>
   </g>
   <g id="patch_62">
    <path clip-path="url(#p55246203a8)" d="M 371.82737 170.28 
L 376.816938 170.28 
L 376.816938 170.28 
L 371.82737 170.28 
z
" style="fill:#4c72b0;opacity:0.4;"/>
   </g>
   <g id="patch_63">
    <path clip-path="url(#p55246203a8)" d="M 376.816938 170.28 
L 381.806506 170.28 
L 381.806506 170.235172 
L 376.816938 170.235172 
z
" style="fill:#4c72b0;opacity:0.4;"/>
   </g>
   <g id="patch_64">
    <path clip-path="url(#p55246203a8)" d="M 77.442869 170.28 
L 82.432437 170.28 
L 82.432437 14.965714 
L 77.442869 14.965714 
z
" style="fill:#55a868;opacity:0.4;"/>
   </g>
   <g id="patch_65">
    <path clip-path="url(#p55246203a8)" d="M 82.432437 170.28 
L 87.422005 170.28 
L 87.422005 51.676364 
L 82.432437 51.676364 
z
" style="fill:#55a868;opacity:0.4;"/>
   </g>
   <g id="patch_66">
    <path clip-path="url(#p55246203a8)" d="M 87.422005 170.28 
L 92.411573 170.28 
L 92.411573 99.727421 
L 87.422005 99.727421 
z
" style="fill:#55a868;opacity:0.4;"/>
   </g>
   <g id="patch_67">
    <path clip-path="url(#p55246203a8)" d="M 92.411573 170.28 
L 97.401141 170.28 
L 97.401141 126.352727 
L 92.411573 126.352727 
z
" style="fill:#55a868;opacity:0.4;"/>
   </g>
   <g id="patch_68">
    <path clip-path="url(#p55246203a8)" d="M 97.401141 170.28 
L 102.390708 170.28 
L 102.390708 144.820111 
L 97.401141 144.820111 
z
" style="fill:#55a868;opacity:0.4;"/>
   </g>
   <g id="patch_69">
    <path clip-path="url(#p55246203a8)" d="M 102.390708 170.28 
L 107.380276 170.28 
L 107.380276 155.532987 
L 102.390708 155.532987 
z
" style="fill:#55a868;opacity:0.4;"/>
   </g>
   <g id="patch_70">
    <path clip-path="url(#p55246203a8)" d="M 107.380276 170.28 
L 112.369844 170.28 
L 112.369844 162.615139 
L 107.380276 162.615139 
z
" style="fill:#55a868;opacity:0.4;"/>
   </g>
   <g id="patch_71">
    <path clip-path="url(#p55246203a8)" d="M 112.369844 170.28 
L 117.359412 170.28 
L 117.359412 164.856327 
L 112.369844 164.856327 
z
" style="fill:#55a868;opacity:0.4;"/>
   </g>
   <g id="patch_72">
    <path clip-path="url(#p55246203a8)" d="M 117.359412 170.28 
L 122.34898 170.28 
L 122.34898 167.456104 
L 117.359412 167.456104 
z
" style="fill:#55a868;opacity:0.4;"/>
   </g>
   <g id="patch_73">
    <path clip-path="url(#p55246203a8)" d="M 122.34898 170.28 
L 127.338547 170.28 
L 127.338547 168.666345 
L 122.34898 168.666345 
z
" style="fill:#55a868;opacity:0.4;"/>
   </g>
   <g id="patch_74">
    <path clip-path="url(#p55246203a8)" d="M 127.338547 170.28 
L 132.328115 170.28 
L 132.328115 169.383525 
L 127.338547 169.383525 
z
" style="fill:#55a868;opacity:0.4;"/>
   </g>
   <g id="patch_75">
    <path clip-path="url(#p55246203a8)" d="M 132.328115 170.28 
L 137.317683 170.28 
L 137.317683 169.966234 
L 132.328115 169.966234 
z
" style="fill:#55a868;opacity:0.4;"/>
   </g>
   <g id="patch_76">
    <path clip-path="url(#p55246203a8)" d="M 137.317683 170.28 
L 142.307251 170.28 
L 142.307251 169.92141 
L 137.317683 169.92141 
z
" style="fill:#55a868;opacity:0.4;"/>
   </g>
   <g id="patch_77">
    <path clip-path="url(#p55246203a8)" d="M 142.307251 170.28 
L 147.296819 170.28 
L 147.296819 170.100705 
L 142.307251 170.100705 
z
" style="fill:#55a868;opacity:0.4;"/>
   </g>
   <g id="patch_78">
    <path clip-path="url(#p55246203a8)" d="M 147.296819 170.28 
L 152.286386 170.28 
L 152.286386 170.145529 
L 147.296819 170.145529 
z
" style="fill:#55a868;opacity:0.4;"/>
   </g>
   <g id="patch_79">
    <path clip-path="url(#p55246203a8)" d="M 152.286386 170.28 
L 157.275954 170.28 
L 157.275954 170.28 
L 152.286386 170.28 
z
" style="fill:#55a868;opacity:0.4;"/>
   </g>
   <g id="patch_80">
    <path clip-path="url(#p55246203a8)" d="M 157.275954 170.28 
L 162.265522 170.28 
L 162.265522 170.235176 
L 157.275954 170.235176 
z
" style="fill:#55a868;opacity:0.4;"/>
   </g>
   <g id="patch_81">
    <path clip-path="url(#p55246203a8)" d="M 162.265522 170.28 
L 167.25509 170.28 
L 167.25509 170.190353 
L 162.265522 170.190353 
z
" style="fill:#55a868;opacity:0.4;"/>
   </g>
   <g id="patch_82">
    <path clip-path="url(#p55246203a8)" d="M 167.25509 170.28 
L 172.244658 170.28 
L 172.244658 170.28 
L 167.25509 170.28 
z
" style="fill:#55a868;opacity:0.4;"/>
   </g>
   <g id="patch_83">
    <path clip-path="url(#p55246203a8)" d="M 172.244658 170.28 
L 177.234226 170.28 
L 177.234226 170.235176 
L 172.244658 170.235176 
z
" style="fill:#55a868;opacity:0.4;"/>
   </g>
   <g id="patch_84">
    <path clip-path="url(#p55246203a8)" d="M 177.234226 170.28 
L 182.223793 170.28 
L 182.223793 170.235176 
L 177.234226 170.235176 
z
" style="fill:#55a868;opacity:0.4;"/>
   </g>
   <g id="patch_85">
    <path clip-path="url(#p55246203a8)" d="M 182.223793 170.28 
L 187.213361 170.28 
L 187.213361 170.28 
L 182.223793 170.28 
z
" style="fill:#55a868;opacity:0.4;"/>
   </g>
   <g id="patch_86">
    <path clip-path="url(#p55246203a8)" d="M 187.213361 170.28 
L 192.202929 170.28 
L 192.202929 170.28 
L 187.213361 170.28 
z
" style="fill:#55a868;opacity:0.4;"/>
   </g>
   <g id="patch_87">
    <path clip-path="url(#p55246203a8)" d="M 192.202929 170.28 
L 197.192497 170.28 
L 197.192497 170.28 
L 192.202929 170.28 
z
" style="fill:#55a868;opacity:0.4;"/>
   </g>
   <g id="patch_88">
    <path clip-path="url(#p55246203a8)" d="M 197.192497 170.28 
L 202.182065 170.28 
L 202.182065 170.28 
L 197.192497 170.28 
z
" style="fill:#55a868;opacity:0.4;"/>
   </g>
   <g id="patch_89">
    <path clip-path="url(#p55246203a8)" d="M 202.182065 170.28 
L 207.171632 170.28 
L 207.171632 170.28 
L 202.182065 170.28 
z
" style="fill:#55a868;opacity:0.4;"/>
   </g>
   <g id="patch_90">
    <path clip-path="url(#p55246203a8)" d="M 207.171632 170.28 
L 212.1612 170.28 
L 212.1612 170.28 
L 207.171632 170.28 
z
" style="fill:#55a868;opacity:0.4;"/>
   </g>
   <g id="patch_91">
    <path clip-path="url(#p55246203a8)" d="M 212.1612 170.28 
L 217.150768 170.28 
L 217.150768 170.28 
L 212.1612 170.28 
z
" style="fill:#55a868;opacity:0.4;"/>
   </g>
   <g id="patch_92">
    <path clip-path="url(#p55246203a8)" d="M 217.150768 170.28 
L 222.140336 170.28 
L 222.140336 170.28 
L 217.150768 170.28 
z
" style="fill:#55a868;opacity:0.4;"/>
   </g>
   <g id="patch_93">
    <path clip-path="url(#p55246203a8)" d="M 222.140336 170.28 
L 227.129904 170.28 
L 227.129904 170.28 
L 222.140336 170.28 
z
" style="fill:#55a868;opacity:0.4;"/>
   </g>
   <g id="patch_94">
    <path clip-path="url(#p55246203a8)" d="M 227.129904 170.28 
L 232.119471 170.28 
L 232.119471 170.28 
L 227.129904 170.28 
z
" style="fill:#55a868;opacity:0.4;"/>
   </g>
   <g id="patch_95">
    <path clip-path="url(#p55246203a8)" d="M 232.119471 170.28 
L 237.109039 170.28 
L 237.109039 170.28 
L 232.119471 170.28 
z
" style="fill:#55a868;opacity:0.4;"/>
   </g>
   <g id="patch_96">
    <path clip-path="url(#p55246203a8)" d="M 237.109039 170.28 
L 242.098607 170.28 
L 242.098607 170.28 
L 237.109039 170.28 
z
" style="fill:#55a868;opacity:0.4;"/>
   </g>
   <g id="patch_97">
    <path clip-path="url(#p55246203a8)" d="M 242.098607 170.28 
L 247.088175 170.28 
L 247.088175 170.28 
L 242.098607 170.28 
z
" style="fill:#55a868;opacity:0.4;"/>
   </g>
   <g id="patch_98">
    <path clip-path="url(#p55246203a8)" d="M 247.088175 170.28 
L 252.077743 170.28 
L 252.077743 170.28 
L 247.088175 170.28 
z
" style="fill:#55a868;opacity:0.4;"/>
   </g>
   <g id="patch_99">
    <path clip-path="url(#p55246203a8)" d="M 252.077743 170.28 
L 257.06731 170.28 
L 257.06731 170.28 
L 252.077743 170.28 
z
" style="fill:#55a868;opacity:0.4;"/>
   </g>
   <g id="patch_100">
    <path clip-path="url(#p55246203a8)" d="M 257.06731 170.28 
L 262.056878 170.28 
L 262.056878 170.28 
L 257.06731 170.28 
z
" style="fill:#55a868;opacity:0.4;"/>
   </g>
   <g id="patch_101">
    <path clip-path="url(#p55246203a8)" d="M 262.056878 170.28 
L 267.046446 170.28 
L 267.046446 170.28 
L 262.056878 170.28 
z
" style="fill:#55a868;opacity:0.4;"/>
   </g>
   <g id="patch_102">
    <path clip-path="url(#p55246203a8)" d="M 267.046446 170.28 
L 272.036014 170.28 
L 272.036014 170.28 
L 267.046446 170.28 
z
" style="fill:#55a868;opacity:0.4;"/>
   </g>
   <g id="patch_103">
    <path clip-path="url(#p55246203a8)" d="M 272.036014 170.28 
L 277.025582 170.28 
L 277.025582 170.28 
L 272.036014 170.28 
z
" style="fill:#55a868;opacity:0.4;"/>
   </g>
   <g id="patch_104">
    <path clip-path="url(#p55246203a8)" d="M 277.025582 170.28 
L 282.015149 170.28 
L 282.015149 170.28 
L 277.025582 170.28 
z
" style="fill:#55a868;opacity:0.4;"/>
   </g>
   <g id="patch_105">
    <path clip-path="url(#p55246203a8)" d="M 282.015149 170.28 
L 287.004717 170.28 
L 287.004717 170.28 
L 282.015149 170.28 
z
" style="fill:#55a868;opacity:0.4;"/>
   </g>
   <g id="patch_106">
    <path clip-path="url(#p55246203a8)" d="M 287.004717 170.28 
L 291.994285 170.28 
L 291.994285 170.28 
L 287.004717 170.28 
z
" style="fill:#55a868;opacity:0.4;"/>
   </g>
   <g id="patch_107">
    <path clip-path="url(#p55246203a8)" d="M 291.994285 170.28 
L 296.983853 170.28 
L 296.983853 170.28 
L 291.994285 170.28 
z
" style="fill:#55a868;opacity:0.4;"/>
   </g>
   <g id="patch_108">
    <path clip-path="url(#p55246203a8)" d="M 296.983853 170.28 
L 301.973421 170.28 
L 301.973421 170.28 
L 296.983853 170.28 
z
" style="fill:#55a868;opacity:0.4;"/>
   </g>
   <g id="patch_109">
    <path clip-path="url(#p55246203a8)" d="M 301.973421 170.28 
L 306.962989 170.28 
L 306.962989 170.28 
L 301.973421 170.28 
z
" style="fill:#55a868;opacity:0.4;"/>
   </g>
   <g id="patch_110">
    <path clip-path="url(#p55246203a8)" d="M 306.962989 170.28 
L 311.952556 170.28 
L 311.952556 170.28 
L 306.962989 170.28 
z
" style="fill:#55a868;opacity:0.4;"/>
   </g>
   <g id="patch_111">
    <path clip-path="url(#p55246203a8)" d="M 311.952556 170.28 
L 316.942124 170.28 
L 316.942124 170.28 
L 311.952556 170.28 
z
" style="fill:#55a868;opacity:0.4;"/>
   </g>
   <g id="patch_112">
    <path clip-path="url(#p55246203a8)" d="M 316.942124 170.28 
L 321.931692 170.28 
L 321.931692 170.28 
L 316.942124 170.28 
z
" style="fill:#55a868;opacity:0.4;"/>
   </g>
   <g id="patch_113">
    <path clip-path="url(#p55246203a8)" d="M 321.931692 170.28 
L 326.92126 170.28 
L 326.92126 170.28 
L 321.931692 170.28 
z
" style="fill:#55a868;opacity:0.4;"/>
   </g>
   <g id="patch_114">
    <path clip-path="url(#p55246203a8)" d="M 326.92126 170.28 
L 331.910828 170.28 
L 331.910828 170.28 
L 326.92126 170.28 
z
" style="fill:#55a868;opacity:0.4;"/>
   </g>
   <g id="patch_115">
    <path clip-path="url(#p55246203a8)" d="M 331.910828 170.28 
L 336.900395 170.28 
L 336.900395 170.28 
L 331.910828 170.28 
z
" style="fill:#55a868;opacity:0.4;"/>
   </g>
   <g id="patch_116">
    <path clip-path="url(#p55246203a8)" d="M 336.900395 170.28 
L 341.889963 170.28 
L 341.889963 170.28 
L 336.900395 170.28 
z
" style="fill:#55a868;opacity:0.4;"/>
   </g>
   <g id="patch_117">
    <path clip-path="url(#p55246203a8)" d="M 341.889963 170.28 
L 346.879531 170.28 
L 346.879531 170.28 
L 341.889963 170.28 
z
" style="fill:#55a868;opacity:0.4;"/>
   </g>
   <g id="patch_118">
    <path clip-path="url(#p55246203a8)" d="M 346.879531 170.28 
L 351.869099 170.28 
L 351.869099 170.28 
L 346.879531 170.28 
z
" style="fill:#55a868;opacity:0.4;"/>
   </g>
   <g id="patch_119">
    <path clip-path="url(#p55246203a8)" d="M 351.869099 170.28 
L 356.858667 170.28 
L 356.858667 170.28 
L 351.869099 170.28 
z
" style="fill:#55a868;opacity:0.4;"/>
   </g>
   <g id="patch_120">
    <path clip-path="url(#p55246203a8)" d="M 356.858667 170.28 
L 361.848234 170.28 
L 361.848234 170.28 
L 356.858667 170.28 
z
" style="fill:#55a868;opacity:0.4;"/>
   </g>
   <g id="patch_121">
    <path clip-path="url(#p55246203a8)" d="M 361.848234 170.28 
L 366.837802 170.28 
L 366.837802 170.28 
L 361.848234 170.28 
z
" style="fill:#55a868;opacity:0.4;"/>
   </g>
   <g id="patch_122">
    <path clip-path="url(#p55246203a8)" d="M 366.837802 170.28 
L 371.82737 170.28 
L 371.82737 170.28 
L 366.837802 170.28 
z
" style="fill:#55a868;opacity:0.4;"/>
   </g>
   <g id="patch_123">
    <path clip-path="url(#p55246203a8)" d="M 371.82737 170.28 
L 376.816938 170.28 
L 376.816938 170.28 
L 371.82737 170.28 
z
" style="fill:#55a868;opacity:0.4;"/>
   </g>
   <g id="patch_124">
    <path clip-path="url(#p55246203a8)" d="M 376.816938 170.28 
L 381.806506 170.28 
L 381.806506 170.28 
L 376.816938 170.28 
z
" style="fill:#55a868;opacity:0.4;"/>
   </g>
   <g id="patch_125">
    <path d="M 62.224688 170.28 
L 62.224688 7.2 
" style="fill:none;"/>
   </g>
   <g id="patch_126">
    <path d="M 397.024688 170.28 
L 397.024688 7.2 
" style="fill:none;"/>
   </g>
   <g id="patch_127">
    <path d="M 62.224688 170.28 
L 397.024688 170.28 
" style="fill:none;"/>
   </g>
   <g id="patch_128">
    <path d="M 62.224688 7.2 
L 397.024688 7.2 
" style="fill:none;"/>
   </g>
   <g id="legend_1">
    <g id="patch_129">
     <path d="M 217.21 29.945625 
L 245.21 29.945625 
L 245.21 20.145625 
L 217.21 20.145625 
z
" style="fill:#4c72b0;opacity:0.4;"/>
    </g>
    <g id="text_14">
     <!-- Avg. group size = 33 -->
     <defs>
      <path d="M 56.984375 0 
L 49.125 20.125 
L 17.78125 20.125 
L 9.859375 0 
L 0.203125 0 
L 28.265625 68.796875 
L 38.875 68.796875 
L 66.5 0 
z
M 33.453125 61.765625 
L 33.015625 60.40625 
Q 31.78125 56.34375 29.390625 50 
L 20.609375 27.390625 
L 46.34375 27.390625 
L 37.5 50.09375 
Q 36.140625 53.46875 34.765625 57.71875 
z
" id="LiberationSans-65"/>
      <path d="M 4.890625 41.796875 
L 4.890625 49.03125 
L 53.46875 49.03125 
L 53.46875 41.796875 
z
M 4.890625 16.796875 
L 4.890625 24.03125 
L 53.46875 24.03125 
L 53.46875 16.796875 
z
" id="LiberationSans-61"/>
     </defs>
     <g style="fill:#262626;" transform="translate(256.41 29.945625)scale(0.14 -0.14)">
      <use xlink:href="#LiberationSans-65"/>
      <use x="66.683594" xlink:href="#LiberationSans-118"/>
      <use x="116.683594" xlink:href="#LiberationSans-103"/>
      <use x="172.298828" xlink:href="#LiberationSans-46"/>
      <use x="200.082031" xlink:href="#LiberationSans-32"/>
      <use x="227.865234" xlink:href="#LiberationSans-103"/>
      <use x="283.480469" xlink:href="#LiberationSans-114"/>
      <use x="316.78125" xlink:href="#LiberationSans-111"/>
      <use x="372.396484" xlink:href="#LiberationSans-117"/>
      <use x="428.011719" xlink:href="#LiberationSans-112"/>
      <use x="483.626953" xlink:href="#LiberationSans-32"/>
      <use x="511.410156" xlink:href="#LiberationSans-115"/>
      <use x="561.410156" xlink:href="#LiberationSans-105"/>
      <use x="583.626953" xlink:href="#LiberationSans-122"/>
      <use x="633.626953" xlink:href="#LiberationSans-101"/>
      <use x="689.242188" xlink:href="#LiberationSans-32"/>
      <use x="717.025391" xlink:href="#LiberationSans-61"/>
      <use x="775.423828" xlink:href="#LiberationSans-32"/>
      <use x="803.207031" xlink:href="#LiberationSans-51"/>
      <use x="858.822266" xlink:href="#LiberationSans-51"/>
     </g>
    </g>
    <g id="patch_130">
     <path d="M 217.21 49.99625 
L 245.21 49.99625 
L 245.21 40.19625 
L 217.21 40.19625 
z
" style="fill:#55a868;opacity:0.4;"/>
    </g>
    <g id="text_15">
     <!-- Avg. group size = 9 -->
     <defs>
      <path d="M 50.875 35.796875 
Q 50.875 18.0625 44.40625 8.53125 
Q 37.9375 -0.984375 25.984375 -0.984375 
Q 17.921875 -0.984375 13.0625 2.40625 
Q 8.203125 5.8125 6.109375 13.375 
L 14.5 14.703125 
Q 17.140625 6.109375 26.125 6.109375 
Q 33.6875 6.109375 37.84375 13.140625 
Q 42 20.171875 42.1875 33.203125 
Q 40.234375 28.8125 35.5 26.140625 
Q 30.765625 23.484375 25.09375 23.484375 
Q 15.828125 23.484375 10.25 29.828125 
Q 4.6875 36.1875 4.6875 46.6875 
Q 4.6875 57.46875 10.734375 63.640625 
Q 16.796875 69.828125 27.59375 69.828125 
Q 39.0625 69.828125 44.96875 61.328125 
Q 50.875 52.828125 50.875 35.796875 
z
M 41.3125 44.28125 
Q 41.3125 52.59375 37.5 57.640625 
Q 33.6875 62.703125 27.296875 62.703125 
Q 20.953125 62.703125 17.28125 58.375 
Q 13.625 54.046875 13.625 46.6875 
Q 13.625 39.15625 17.28125 34.78125 
Q 20.953125 30.421875 27.203125 30.421875 
Q 31 30.421875 34.265625 32.15625 
Q 37.546875 33.890625 39.421875 37.0625 
Q 41.3125 40.234375 41.3125 44.28125 
z
" id="LiberationSans-57"/>
     </defs>
     <g style="fill:#262626;" transform="translate(256.41 49.99625)scale(0.14 -0.14)">
      <use xlink:href="#LiberationSans-65"/>
      <use x="66.683594" xlink:href="#LiberationSans-118"/>
      <use x="116.683594" xlink:href="#LiberationSans-103"/>
      <use x="172.298828" xlink:href="#LiberationSans-46"/>
      <use x="200.082031" xlink:href="#LiberationSans-32"/>
      <use x="227.865234" xlink:href="#LiberationSans-103"/>
      <use x="283.480469" xlink:href="#LiberationSans-114"/>
      <use x="316.78125" xlink:href="#LiberationSans-111"/>
      <use x="372.396484" xlink:href="#LiberationSans-117"/>
      <use x="428.011719" xlink:href="#LiberationSans-112"/>
      <use x="483.626953" xlink:href="#LiberationSans-32"/>
      <use x="511.410156" xlink:href="#LiberationSans-115"/>
      <use x="561.410156" xlink:href="#LiberationSans-105"/>
      <use x="583.626953" xlink:href="#LiberationSans-122"/>
      <use x="633.626953" xlink:href="#LiberationSans-101"/>
      <use x="689.242188" xlink:href="#LiberationSans-32"/>
      <use x="717.025391" xlink:href="#LiberationSans-61"/>
      <use x="775.423828" xlink:href="#LiberationSans-32"/>
      <use x="803.207031" xlink:href="#LiberationSans-57"/>
     </g>
    </g>
   </g>
  </g>
 </g>
 <defs>
  <clipPath id="p55246203a8">
   <rect height="163.08" width="334.8" x="62.224688" y="7.2"/>
  </clipPath>
 </defs>
</svg>
