<?xml version="1.0" encoding="utf-8" standalone="no"?>
<!DOCTYPE svg PUBLIC "-//W3C//DTD SVG 1.1//EN"
  "http://www.w3.org/Graphics/SVG/1.1/DTD/svg11.dtd">
<!-- Created with matplotlib (https://matplotlib.org/) -->
<svg height="222.074062pt" version="1.1" viewBox="0 0 407.139091 222.074062" width="407.139091pt" xmlns="http://www.w3.org/2000/svg" xmlns:xlink="http://www.w3.org/1999/xlink">
 <defs>
  <style type="text/css">
*{stroke-linecap:butt;stroke-linejoin:round;}
  </style>
 </defs>
 <g id="figure_1">
  <g id="patch_1">
   <path d="M 0 222.074062 
L 407.139091 222.074062 
L 407.139091 0 
L 0 0 
z
" style="fill:#ffffff;"/>
  </g>
  <g id="axes_1">
   <g id="patch_2">
    <path d="M 58.189091 173.903437 
L 210.370909 173.903437 
L 210.370909 10.823437 
L 58.189091 10.823437 
z
" style="fill:#eaeaf2;"/>
   </g>
   <g id="matplotlib.axis_1">
    <g id="xtick_1">
     <g id="line2d_1">
      <path clip-path="url(#p5e2811bfd2)" d="M 95.850248 173.903437 
L 95.850248 10.823437 
" style="fill:none;stroke:#ffffff;stroke-linecap:round;"/>
     </g>
     <g id="line2d_2"/>
     <g id="text_1">
      <!-- 0.25 -->
      <defs>
       <path d="M 51.703125 34.421875 
Q 51.703125 17.1875 45.625 8.09375 
Q 39.546875 -0.984375 27.6875 -0.984375 
Q 15.828125 -0.984375 9.859375 8.046875 
Q 3.90625 17.09375 3.90625 34.421875 
Q 3.90625 52.15625 9.6875 60.984375 
Q 15.484375 69.828125 27.984375 69.828125 
Q 40.140625 69.828125 45.921875 60.890625 
Q 51.703125 51.953125 51.703125 34.421875 
z
M 42.78125 34.421875 
Q 42.78125 49.3125 39.328125 56 
Q 35.890625 62.703125 27.984375 62.703125 
Q 19.875 62.703125 16.328125 56.109375 
Q 12.796875 49.515625 12.796875 34.421875 
Q 12.796875 19.78125 16.375 12.984375 
Q 19.96875 6.203125 27.78125 6.203125 
Q 35.546875 6.203125 39.15625 13.125 
Q 42.78125 20.0625 42.78125 34.421875 
z
" id="LiberationSans-48"/>
       <path d="M 9.125 0 
L 9.125 10.6875 
L 18.65625 10.6875 
L 18.65625 0 
z
" id="LiberationSans-46"/>
       <path d="M 5.03125 0 
L 5.03125 6.203125 
Q 7.515625 11.921875 11.109375 16.28125 
Q 14.703125 20.65625 18.65625 24.1875 
Q 22.609375 27.734375 26.484375 30.765625 
Q 30.375 33.796875 33.5 36.8125 
Q 36.625 39.84375 38.546875 43.15625 
Q 40.484375 46.484375 40.484375 50.6875 
Q 40.484375 56.34375 37.15625 59.46875 
Q 33.84375 62.59375 27.9375 62.59375 
Q 22.3125 62.59375 18.671875 59.546875 
Q 15.046875 56.5 14.40625 50.984375 
L 5.421875 51.8125 
Q 6.390625 60.0625 12.421875 64.9375 
Q 18.453125 69.828125 27.9375 69.828125 
Q 38.328125 69.828125 43.921875 64.921875 
Q 49.515625 60.015625 49.515625 50.984375 
Q 49.515625 46.96875 47.671875 43.015625 
Q 45.84375 39.0625 42.234375 35.109375 
Q 38.625 31.15625 28.421875 22.859375 
Q 22.796875 18.265625 19.46875 14.578125 
Q 16.15625 10.890625 14.703125 7.46875 
L 50.59375 7.46875 
L 50.59375 0 
z
" id="LiberationSans-50"/>
       <path d="M 51.421875 22.40625 
Q 51.421875 11.53125 44.953125 5.265625 
Q 38.484375 -0.984375 27 -0.984375 
Q 17.390625 -0.984375 11.46875 3.21875 
Q 5.5625 7.421875 4 15.375 
L 12.890625 16.40625 
Q 15.671875 6.203125 27.203125 6.203125 
Q 34.28125 6.203125 38.28125 10.46875 
Q 42.28125 14.75 42.28125 22.21875 
Q 42.28125 28.71875 38.25 32.71875 
Q 34.234375 36.71875 27.390625 36.71875 
Q 23.828125 36.71875 20.75 35.59375 
Q 17.671875 34.46875 14.59375 31.78125 
L 6 31.78125 
L 8.296875 68.796875 
L 47.40625 68.796875 
L 47.40625 61.328125 
L 16.3125 61.328125 
L 14.984375 39.5 
Q 20.703125 43.890625 29.203125 43.890625 
Q 39.359375 43.890625 45.390625 37.9375 
Q 51.421875 31.984375 51.421875 22.40625 
z
" id="LiberationSans-53"/>
      </defs>
      <g style="fill:#262626;" transform="translate(82.227592 191.049062)scale(0.14 -0.14)">
       <use xlink:href="#LiberationSans-48"/>
       <use x="55.615234" xlink:href="#LiberationSans-46"/>
       <use x="83.398438" xlink:href="#LiberationSans-50"/>
       <use x="139.013672" xlink:href="#LiberationSans-53"/>
      </g>
     </g>
    </g>
    <g id="xtick_2">
     <g id="line2d_3">
      <path clip-path="url(#p5e2811bfd2)" d="M 134.28 173.903437 
L 134.28 10.823437 
" style="fill:none;stroke:#ffffff;stroke-linecap:round;"/>
     </g>
     <g id="line2d_4"/>
     <g id="text_2">
      <!-- 0.50 -->
      <g style="fill:#262626;" transform="translate(120.657344 191.049062)scale(0.14 -0.14)">
       <use xlink:href="#LiberationSans-48"/>
       <use x="55.615234" xlink:href="#LiberationSans-46"/>
       <use x="83.398438" xlink:href="#LiberationSans-53"/>
       <use x="139.013672" xlink:href="#LiberationSans-48"/>
      </g>
     </g>
    </g>
    <g id="xtick_3">
     <g id="line2d_5">
      <path clip-path="url(#p5e2811bfd2)" d="M 172.709752 173.903437 
L 172.709752 10.823437 
" style="fill:none;stroke:#ffffff;stroke-linecap:round;"/>
     </g>
     <g id="line2d_6"/>
     <g id="text_3">
      <!-- 0.75 -->
      <defs>
       <path d="M 50.59375 61.671875 
Q 40.046875 45.5625 35.6875 36.421875 
Q 31.34375 27.296875 29.171875 18.40625 
Q 27 9.515625 27 0 
L 17.828125 0 
Q 17.828125 13.1875 23.40625 27.75 
Q 29 42.328125 42.09375 61.328125 
L 5.125 61.328125 
L 5.125 68.796875 
L 50.59375 68.796875 
z
" id="LiberationSans-55"/>
      </defs>
      <g style="fill:#262626;" transform="translate(159.087096 191.049062)scale(0.14 -0.14)">
       <use xlink:href="#LiberationSans-48"/>
       <use x="55.615234" xlink:href="#LiberationSans-46"/>
       <use x="83.398438" xlink:href="#LiberationSans-55"/>
       <use x="139.013672" xlink:href="#LiberationSans-53"/>
      </g>
     </g>
    </g>
    <g id="text_4">
     <!-- Individual propensity to post ($c_i$) -->
     <defs>
      <path d="M 9.234375 0 
L 9.234375 68.796875 
L 18.5625 68.796875 
L 18.5625 0 
z
" id="LiberationSans-73"/>
      <path d="M 40.28125 0 
L 40.28125 33.5 
Q 40.28125 38.71875 39.25 41.59375 
Q 38.234375 44.484375 35.984375 45.75 
Q 33.734375 47.015625 29.390625 47.015625 
Q 23.046875 47.015625 19.375 42.671875 
Q 15.71875 38.328125 15.71875 30.609375 
L 15.71875 0 
L 6.9375 0 
L 6.9375 41.546875 
Q 6.9375 50.78125 6.640625 52.828125 
L 14.9375 52.828125 
Q 14.984375 52.59375 15.03125 51.515625 
Q 15.09375 50.4375 15.15625 49.046875 
Q 15.234375 47.65625 15.328125 43.796875 
L 15.484375 43.796875 
Q 18.5 49.265625 22.484375 51.53125 
Q 26.46875 53.8125 32.375 53.8125 
Q 41.0625 53.8125 45.09375 49.484375 
Q 49.125 45.171875 49.125 35.203125 
L 49.125 0 
z
" id="LiberationSans-110"/>
      <path d="M 40.09375 8.5 
Q 37.640625 3.421875 33.609375 1.21875 
Q 29.59375 -0.984375 23.640625 -0.984375 
Q 13.625 -0.984375 8.90625 5.75 
Q 4.203125 12.5 4.203125 26.171875 
Q 4.203125 53.8125 23.640625 53.8125 
Q 29.640625 53.8125 33.640625 51.609375 
Q 37.640625 49.421875 40.09375 44.625 
L 40.1875 44.625 
L 40.09375 50.53125 
L 40.09375 72.46875 
L 48.875 72.46875 
L 48.875 10.890625 
Q 48.875 2.640625 49.171875 0 
L 40.765625 0 
Q 40.625 0.78125 40.453125 3.609375 
Q 40.28125 6.453125 40.28125 8.5 
z
M 13.421875 26.46875 
Q 13.421875 15.375 16.34375 10.59375 
Q 19.28125 5.8125 25.875 5.8125 
Q 33.34375 5.8125 36.71875 10.984375 
Q 40.09375 16.15625 40.09375 27.046875 
Q 40.09375 37.546875 36.71875 42.421875 
Q 33.34375 47.3125 25.984375 47.3125 
Q 19.34375 47.3125 16.375 42.40625 
Q 13.421875 37.5 13.421875 26.46875 
z
" id="LiberationSans-100"/>
      <path d="M 6.6875 64.0625 
L 6.6875 72.46875 
L 15.484375 72.46875 
L 15.484375 64.0625 
z
M 6.6875 0 
L 6.6875 52.828125 
L 15.484375 52.828125 
L 15.484375 0 
z
" id="LiberationSans-105"/>
      <path d="M 29.9375 0 
L 19.53125 0 
L 0.34375 52.828125 
L 9.71875 52.828125 
L 21.34375 18.453125 
Q 21.96875 16.5 24.703125 6.890625 
L 26.421875 12.59375 
L 28.328125 18.359375 
L 40.328125 52.828125 
L 49.65625 52.828125 
z
" id="LiberationSans-118"/>
      <path d="M 15.328125 52.828125 
L 15.328125 19.34375 
Q 15.328125 14.109375 16.359375 11.21875 
Q 17.390625 8.34375 19.625 7.078125 
Q 21.875 5.8125 26.21875 5.8125 
Q 32.5625 5.8125 36.21875 10.15625 
Q 39.890625 14.5 39.890625 22.21875 
L 39.890625 52.828125 
L 48.6875 52.828125 
L 48.6875 11.28125 
Q 48.6875 2.046875 48.96875 0 
L 40.671875 0 
Q 40.625 0.25 40.578125 1.3125 
Q 40.53125 2.390625 40.453125 3.78125 
Q 40.375 5.171875 40.28125 9.03125 
L 40.140625 9.03125 
Q 37.109375 3.5625 33.125 1.28125 
Q 29.15625 -0.984375 23.25 -0.984375 
Q 14.546875 -0.984375 10.515625 3.34375 
Q 6.5 7.671875 6.5 17.625 
L 6.5 52.828125 
z
" id="LiberationSans-117"/>
      <path d="M 20.21875 -0.984375 
Q 12.25 -0.984375 8.25 3.21875 
Q 4.25 7.421875 4.25 14.75 
Q 4.25 22.953125 9.640625 27.34375 
Q 15.046875 31.734375 27.046875 32.03125 
L 38.921875 32.234375 
L 38.921875 35.109375 
Q 38.921875 41.546875 36.1875 44.328125 
Q 33.453125 47.125 27.59375 47.125 
Q 21.6875 47.125 19 45.109375 
Q 16.3125 43.109375 15.765625 38.71875 
L 6.59375 39.546875 
Q 8.84375 53.8125 27.78125 53.8125 
Q 37.75 53.8125 42.765625 49.234375 
Q 47.796875 44.671875 47.796875 36.03125 
L 47.796875 13.28125 
Q 47.796875 9.375 48.828125 7.390625 
Q 49.859375 5.421875 52.734375 5.421875 
Q 54 5.421875 55.609375 5.765625 
L 55.609375 0.296875 
Q 52.296875 -0.484375 48.828125 -0.484375 
Q 43.953125 -0.484375 41.71875 2.078125 
Q 39.5 4.640625 39.203125 10.109375 
L 38.921875 10.109375 
Q 35.546875 4.046875 31.078125 1.53125 
Q 26.609375 -0.984375 20.21875 -0.984375 
z
M 22.21875 5.609375 
Q 27.046875 5.609375 30.8125 7.8125 
Q 34.578125 10.015625 36.75 13.84375 
Q 38.921875 17.671875 38.921875 21.734375 
L 38.921875 26.078125 
L 29.296875 25.875 
Q 23.09375 25.78125 19.890625 24.609375 
Q 16.703125 23.4375 14.984375 21 
Q 13.28125 18.5625 13.28125 14.59375 
Q 13.28125 10.296875 15.59375 7.953125 
Q 17.921875 5.609375 22.21875 5.609375 
z
" id="LiberationSans-97"/>
      <path d="M 6.734375 0 
L 6.734375 72.46875 
L 15.53125 72.46875 
L 15.53125 0 
z
" id="LiberationSans-108"/>
      <path id="LiberationSans-32"/>
      <path d="M 51.421875 26.65625 
Q 51.421875 -0.984375 31.984375 -0.984375 
Q 19.78125 -0.984375 15.578125 8.203125 
L 15.328125 8.203125 
Q 15.53125 7.8125 15.53125 -0.09375 
L 15.53125 -20.75 
L 6.734375 -20.75 
L 6.734375 42.046875 
Q 6.734375 50.203125 6.453125 52.828125 
L 14.9375 52.828125 
Q 14.984375 52.640625 15.078125 51.4375 
Q 15.1875 50.25 15.3125 47.75 
Q 15.4375 45.265625 15.4375 44.34375 
L 15.625 44.34375 
Q 17.96875 49.21875 21.828125 51.484375 
Q 25.6875 53.765625 31.984375 53.765625 
Q 41.75 53.765625 46.578125 47.21875 
Q 51.421875 40.671875 51.421875 26.65625 
z
M 42.1875 26.46875 
Q 42.1875 37.5 39.203125 42.234375 
Q 36.234375 46.96875 29.734375 46.96875 
Q 24.515625 46.96875 21.5625 44.765625 
Q 18.609375 42.578125 17.0625 37.90625 
Q 15.53125 33.25 15.53125 25.78125 
Q 15.53125 15.375 18.84375 10.4375 
Q 22.171875 5.515625 29.640625 5.515625 
Q 36.1875 5.515625 39.1875 10.328125 
Q 42.1875 15.140625 42.1875 26.46875 
z
" id="LiberationSans-112"/>
      <path d="M 6.9375 0 
L 6.9375 40.53125 
Q 6.9375 46.09375 6.640625 52.828125 
L 14.9375 52.828125 
Q 15.328125 43.84375 15.328125 42.046875 
L 15.53125 42.046875 
Q 17.625 48.828125 20.359375 51.3125 
Q 23.09375 53.8125 28.078125 53.8125 
Q 29.828125 53.8125 31.640625 53.328125 
L 31.640625 45.265625 
Q 29.890625 45.75 26.953125 45.75 
Q 21.484375 45.75 18.59375 41.03125 
Q 15.71875 36.328125 15.71875 27.546875 
L 15.71875 0 
z
" id="LiberationSans-114"/>
      <path d="M 51.421875 26.46875 
Q 51.421875 12.59375 45.3125 5.796875 
Q 39.203125 -0.984375 27.59375 -0.984375 
Q 16.015625 -0.984375 10.109375 6.078125 
Q 4.203125 13.140625 4.203125 26.46875 
Q 4.203125 53.8125 27.875 53.8125 
Q 39.984375 53.8125 45.703125 47.140625 
Q 51.421875 40.484375 51.421875 26.46875 
z
M 42.1875 26.46875 
Q 42.1875 37.40625 38.9375 42.359375 
Q 35.6875 47.3125 28.03125 47.3125 
Q 20.3125 47.3125 16.859375 42.25 
Q 13.421875 37.203125 13.421875 26.46875 
Q 13.421875 16.015625 16.8125 10.765625 
Q 20.21875 5.515625 27.484375 5.515625 
Q 35.40625 5.515625 38.796875 10.59375 
Q 42.1875 15.671875 42.1875 26.46875 
z
" id="LiberationSans-111"/>
      <path d="M 13.484375 24.5625 
Q 13.484375 15.484375 17.234375 10.546875 
Q 21 5.609375 28.21875 5.609375 
Q 33.9375 5.609375 37.375 7.90625 
Q 40.828125 10.203125 42.046875 13.71875 
L 49.75 11.53125 
Q 45.015625 -0.984375 28.21875 -0.984375 
Q 16.5 -0.984375 10.375 6 
Q 4.25 12.984375 4.25 26.765625 
Q 4.25 39.84375 10.375 46.828125 
Q 16.5 53.8125 27.875 53.8125 
Q 51.171875 53.8125 51.171875 25.734375 
L 51.171875 24.5625 
z
M 42.09375 31.296875 
Q 41.359375 39.65625 37.84375 43.484375 
Q 34.328125 47.3125 27.734375 47.3125 
Q 21.34375 47.3125 17.609375 43.03125 
Q 13.875 38.765625 13.578125 31.296875 
z
" id="LiberationSans-101"/>
      <path d="M 46.390625 14.59375 
Q 46.390625 7.125 40.75 3.0625 
Q 35.109375 -0.984375 24.953125 -0.984375 
Q 15.09375 -0.984375 9.734375 2.265625 
Q 4.390625 5.515625 2.78125 12.40625 
L 10.546875 13.921875 
Q 11.671875 9.671875 15.1875 7.6875 
Q 18.703125 5.71875 24.953125 5.71875 
Q 31.640625 5.71875 34.734375 7.765625 
Q 37.84375 9.8125 37.84375 13.921875 
Q 37.84375 17.046875 35.6875 19 
Q 33.546875 20.953125 28.765625 22.21875 
L 22.46875 23.875 
Q 14.890625 25.828125 11.6875 27.703125 
Q 8.5 29.59375 6.6875 32.28125 
Q 4.890625 34.96875 4.890625 38.875 
Q 4.890625 46.09375 10.03125 49.875 
Q 15.1875 53.65625 25.046875 53.65625 
Q 33.796875 53.65625 38.9375 50.578125 
Q 44.09375 47.515625 45.453125 40.71875 
L 37.546875 39.75 
Q 36.8125 43.265625 33.609375 45.140625 
Q 30.421875 47.015625 25.046875 47.015625 
Q 19.09375 47.015625 16.25 45.203125 
Q 13.421875 43.40625 13.421875 39.75 
Q 13.421875 37.5 14.59375 36.03125 
Q 15.765625 34.578125 18.0625 33.546875 
Q 20.359375 32.515625 27.734375 30.71875 
Q 34.71875 28.953125 37.796875 27.46875 
Q 40.875 25.984375 42.65625 24.171875 
Q 44.4375 22.359375 45.40625 19.984375 
Q 46.390625 17.625 46.390625 14.59375 
z
" id="LiberationSans-115"/>
      <path d="M 27.046875 0.390625 
Q 22.703125 -0.78125 18.171875 -0.78125 
Q 7.625 -0.78125 7.625 11.1875 
L 7.625 46.4375 
L 1.515625 46.4375 
L 1.515625 52.828125 
L 7.953125 52.828125 
L 10.546875 64.65625 
L 16.40625 64.65625 
L 16.40625 52.828125 
L 26.171875 52.828125 
L 26.171875 46.4375 
L 16.40625 46.4375 
L 16.40625 13.09375 
Q 16.40625 9.28125 17.640625 7.734375 
Q 18.890625 6.203125 21.96875 6.203125 
Q 23.734375 6.203125 27.046875 6.890625 
z
" id="LiberationSans-116"/>
      <path d="M 9.328125 -20.75 
Q 5.71875 -20.75 3.265625 -20.21875 
L 3.265625 -13.625 
Q 5.125 -13.921875 7.375 -13.921875 
Q 15.578125 -13.921875 20.359375 -1.859375 
L 21.1875 0.25 
L 0.25 52.828125 
L 9.625 52.828125 
L 20.75 23.640625 
Q 21 22.953125 21.34375 22 
Q 21.6875 21.046875 23.53125 15.625 
Q 25.390625 10.203125 25.53125 9.578125 
L 28.953125 19.1875 
L 40.53125 52.828125 
L 49.8125 52.828125 
L 29.5 0 
Q 26.21875 -8.453125 23.390625 -12.578125 
Q 20.5625 -16.703125 17.109375 -18.71875 
Q 13.671875 -20.75 9.328125 -20.75 
z
" id="LiberationSans-121"/>
      <path d="M 6.203125 25.984375 
Q 6.203125 40.09375 10.625 51.3125 
Q 15.046875 62.546875 24.21875 72.46875 
L 32.71875 72.46875 
Q 23.578125 62.3125 19.3125 50.875 
Q 15.046875 39.453125 15.046875 25.875 
Q 15.046875 12.359375 19.265625 0.96875 
Q 23.484375 -10.40625 32.71875 -20.703125 
L 24.21875 -20.703125 
Q 14.984375 -10.75 10.59375 0.5 
Q 6.203125 11.765625 6.203125 25.78125 
z
" id="LiberationSans-40"/>
      <path d="M 53.609375 52.59375 
L 51.8125 43.703125 
Q 48.578125 46.046875 44.9375 47.21875 
Q 41.3125 48.390625 37.40625 48.390625 
Q 33.109375 48.390625 29.21875 46.875 
Q 25.34375 45.359375 22.703125 42.578125 
Q 18.5 38.328125 16.203125 32.609375 
Q 13.921875 26.90625 13.921875 20.796875 
Q 13.921875 13.421875 17.609375 9.8125 
Q 21.296875 6.203125 28.8125 6.203125 
Q 32.515625 6.203125 36.6875 7.328125 
Q 40.875 8.453125 45.40625 10.6875 
L 43.703125 1.8125 
Q 39.796875 0.203125 35.671875 -0.609375 
Q 31.546875 -1.421875 27.203125 -1.421875 
Q 16.3125 -1.421875 10.453125 4.015625 
Q 4.59375 9.46875 4.59375 19.578125 
Q 4.59375 28.078125 7.640625 35.234375 
Q 10.6875 42.390625 16.703125 48.09375 
Q 20.796875 52 26.3125 54 
Q 31.84375 56 38.375 56 
Q 42.1875 56 45.9375 55.140625 
Q 49.703125 54.296875 53.609375 52.59375 
z
" id="DejaVuSans-Oblique-99"/>
      <path d="M 18.3125 75.984375 
L 27.296875 75.984375 
L 25.09375 64.59375 
L 16.109375 64.59375 
z
M 14.203125 54.6875 
L 23.1875 54.6875 
L 12.5 0 
L 3.515625 0 
z
" id="DejaVuSans-Oblique-105"/>
      <path d="M 27.09375 25.78125 
Q 27.09375 11.671875 22.671875 0.4375 
Q 18.265625 -10.796875 9.078125 -20.703125 
L 0.59375 -20.703125 
Q 9.765625 -10.453125 14.015625 0.890625 
Q 18.265625 12.25 18.265625 25.875 
Q 18.265625 39.5 13.984375 50.875 
Q 9.71875 62.25 0.59375 72.46875 
L 9.078125 72.46875 
Q 18.3125 62.5 22.703125 51.234375 
Q 27.09375 39.984375 27.09375 25.984375 
z
" id="LiberationSans-41"/>
     </defs>
     <g style="fill:#262626;" transform="translate(7.2 211.094063)scale(0.18 -0.18)">
      <use transform="translate(0 0.53125)" xlink:href="#LiberationSans-73"/>
      <use transform="translate(27.783203 0.53125)" xlink:href="#LiberationSans-110"/>
      <use transform="translate(83.398438 0.53125)" xlink:href="#LiberationSans-100"/>
      <use transform="translate(139.013672 0.53125)" xlink:href="#LiberationSans-105"/>
      <use transform="translate(161.230469 0.53125)" xlink:href="#LiberationSans-118"/>
      <use transform="translate(211.230469 0.53125)" xlink:href="#LiberationSans-105"/>
      <use transform="translate(233.447266 0.53125)" xlink:href="#LiberationSans-100"/>
      <use transform="translate(289.0625 0.53125)" xlink:href="#LiberationSans-117"/>
      <use transform="translate(344.677734 0.53125)" xlink:href="#LiberationSans-97"/>
      <use transform="translate(400.292969 0.53125)" xlink:href="#LiberationSans-108"/>
      <use transform="translate(422.509766 0.53125)" xlink:href="#LiberationSans-32"/>
      <use transform="translate(450.292969 0.53125)" xlink:href="#LiberationSans-112"/>
      <use transform="translate(505.908203 0.53125)" xlink:href="#LiberationSans-114"/>
      <use transform="translate(539.208984 0.53125)" xlink:href="#LiberationSans-111"/>
      <use transform="translate(594.824219 0.53125)" xlink:href="#LiberationSans-112"/>
      <use transform="translate(650.439453 0.53125)" xlink:href="#LiberationSans-101"/>
      <use transform="translate(706.054688 0.53125)" xlink:href="#LiberationSans-110"/>
      <use transform="translate(761.669922 0.53125)" xlink:href="#LiberationSans-115"/>
      <use transform="translate(811.669922 0.53125)" xlink:href="#LiberationSans-105"/>
      <use transform="translate(833.886719 0.53125)" xlink:href="#LiberationSans-116"/>
      <use transform="translate(861.669922 0.53125)" xlink:href="#LiberationSans-121"/>
      <use transform="translate(911.669922 0.53125)" xlink:href="#LiberationSans-32"/>
      <use transform="translate(939.453125 0.53125)" xlink:href="#LiberationSans-116"/>
      <use transform="translate(967.236328 0.53125)" xlink:href="#LiberationSans-111"/>
      <use transform="translate(1022.851562 0.53125)" xlink:href="#LiberationSans-32"/>
      <use transform="translate(1050.634766 0.53125)" xlink:href="#LiberationSans-112"/>
      <use transform="translate(1106.25 0.53125)" xlink:href="#LiberationSans-111"/>
      <use transform="translate(1161.865234 0.53125)" xlink:href="#LiberationSans-115"/>
      <use transform="translate(1211.865234 0.53125)" xlink:href="#LiberationSans-116"/>
      <use transform="translate(1239.648438 0.53125)" xlink:href="#LiberationSans-32"/>
      <use transform="translate(1267.431641 0.53125)" xlink:href="#LiberationSans-40"/>
      <use transform="translate(1300.732422 0.53125)" xlink:href="#DejaVuSans-Oblique-99"/>
      <use transform="translate(1355.712891 -15.875)scale(0.7)" xlink:href="#DejaVuSans-Oblique-105"/>
      <use transform="translate(1377.895508 0.53125)" xlink:href="#LiberationSans-41"/>
     </g>
    </g>
   </g>
   <g id="matplotlib.axis_2">
    <g id="ytick_1">
     <g id="line2d_7">
      <path clip-path="url(#p5e2811bfd2)" d="M 58.189091 173.903437 
L 210.370909 173.903437 
" style="fill:none;stroke:#ffffff;stroke-linecap:round;"/>
     </g>
     <g id="line2d_8"/>
     <g id="text_5">
      <!-- 0 -->
      <g style="fill:#262626;" transform="translate(43.403778 178.97625)scale(0.14 -0.14)">
       <use xlink:href="#LiberationSans-48"/>
      </g>
     </g>
    </g>
    <g id="ytick_2">
     <g id="line2d_9">
      <path clip-path="url(#p5e2811bfd2)" d="M 58.189091 133.782066 
L 210.370909 133.782066 
" style="fill:none;stroke:#ffffff;stroke-linecap:round;"/>
     </g>
     <g id="line2d_10"/>
     <g id="text_6">
      <!-- 5 -->
      <g style="fill:#262626;" transform="translate(43.403778 138.854879)scale(0.14 -0.14)">
       <use xlink:href="#LiberationSans-53"/>
      </g>
     </g>
    </g>
    <g id="ytick_3">
     <g id="line2d_11">
      <path clip-path="url(#p5e2811bfd2)" d="M 58.189091 93.660695 
L 210.370909 93.660695 
" style="fill:none;stroke:#ffffff;stroke-linecap:round;"/>
     </g>
     <g id="line2d_12"/>
     <g id="text_7">
      <!-- 10 -->
      <defs>
       <path d="M 7.625 0 
L 7.625 7.46875 
L 25.140625 7.46875 
L 25.140625 60.40625 
L 9.625 49.3125 
L 9.625 57.625 
L 25.875 68.796875 
L 33.984375 68.796875 
L 33.984375 7.46875 
L 50.734375 7.46875 
L 50.734375 0 
z
" id="LiberationSans-49"/>
      </defs>
      <g style="fill:#262626;" transform="translate(35.618466 98.733508)scale(0.14 -0.14)">
       <use xlink:href="#LiberationSans-49"/>
       <use x="55.615234" xlink:href="#LiberationSans-48"/>
      </g>
     </g>
    </g>
    <g id="ytick_4">
     <g id="line2d_13">
      <path clip-path="url(#p5e2811bfd2)" d="M 58.189091 53.539324 
L 210.370909 53.539324 
" style="fill:none;stroke:#ffffff;stroke-linecap:round;"/>
     </g>
     <g id="line2d_14"/>
     <g id="text_8">
      <!-- 15 -->
      <g style="fill:#262626;" transform="translate(35.618466 58.612137)scale(0.14 -0.14)">
       <use xlink:href="#LiberationSans-49"/>
       <use x="55.615234" xlink:href="#LiberationSans-53"/>
      </g>
     </g>
    </g>
    <g id="ytick_5">
     <g id="line2d_15">
      <path clip-path="url(#p5e2811bfd2)" d="M 58.189091 13.417953 
L 210.370909 13.417953 
" style="fill:none;stroke:#ffffff;stroke-linecap:round;"/>
     </g>
     <g id="line2d_16"/>
     <g id="text_9">
      <!-- 20 -->
      <g style="fill:#262626;" transform="translate(35.618466 18.490765)scale(0.14 -0.14)">
       <use xlink:href="#LiberationSans-50"/>
       <use x="55.615234" xlink:href="#LiberationSans-48"/>
      </g>
     </g>
    </g>
    <g id="text_10">
     <!-- Probability density -->
     <defs>
      <path d="M 61.421875 48.09375 
Q 61.421875 38.328125 55.046875 32.5625 
Q 48.6875 26.8125 37.75 26.8125 
L 17.53125 26.8125 
L 17.53125 0 
L 8.203125 0 
L 8.203125 68.796875 
L 37.15625 68.796875 
Q 48.734375 68.796875 55.078125 63.375 
Q 61.421875 57.953125 61.421875 48.09375 
z
M 52.046875 48 
Q 52.046875 61.328125 36.03125 61.328125 
L 17.53125 61.328125 
L 17.53125 34.1875 
L 36.421875 34.1875 
Q 52.046875 34.1875 52.046875 48 
z
" id="LiberationSans-80"/>
      <path d="M 51.421875 26.65625 
Q 51.421875 -0.984375 31.984375 -0.984375 
Q 25.984375 -0.984375 22 1.1875 
Q 18.015625 3.375 15.53125 8.203125 
L 15.4375 8.203125 
Q 15.4375 6.6875 15.234375 3.578125 
Q 15.046875 0.484375 14.9375 0 
L 6.453125 0 
Q 6.734375 2.640625 6.734375 10.890625 
L 6.734375 72.46875 
L 15.53125 72.46875 
L 15.53125 51.8125 
Q 15.53125 48.640625 15.328125 44.34375 
L 15.53125 44.34375 
Q 17.96875 49.421875 22 51.609375 
Q 26.03125 53.8125 31.984375 53.8125 
Q 42 53.8125 46.703125 47.0625 
Q 51.421875 40.328125 51.421875 26.65625 
z
M 42.1875 26.375 
Q 42.1875 37.453125 39.25 42.234375 
Q 36.328125 47.015625 29.734375 47.015625 
Q 22.3125 47.015625 18.921875 41.9375 
Q 15.53125 36.859375 15.53125 25.828125 
Q 15.53125 15.4375 18.84375 10.46875 
Q 22.171875 5.515625 29.640625 5.515625 
Q 36.28125 5.515625 39.234375 10.421875 
Q 42.1875 15.328125 42.1875 26.375 
z
" id="LiberationSans-98"/>
     </defs>
     <g style="fill:#262626;" transform="translate(27.883466 165.397031)rotate(-90)scale(0.18 -0.18)">
      <use xlink:href="#LiberationSans-80"/>
      <use x="66.699219" xlink:href="#LiberationSans-114"/>
      <use x="100" xlink:href="#LiberationSans-111"/>
      <use x="155.615234" xlink:href="#LiberationSans-98"/>
      <use x="211.230469" xlink:href="#LiberationSans-97"/>
      <use x="266.845703" xlink:href="#LiberationSans-98"/>
      <use x="322.460938" xlink:href="#LiberationSans-105"/>
      <use x="344.677734" xlink:href="#LiberationSans-108"/>
      <use x="366.894531" xlink:href="#LiberationSans-105"/>
      <use x="389.111328" xlink:href="#LiberationSans-116"/>
      <use x="416.894531" xlink:href="#LiberationSans-121"/>
      <use x="466.894531" xlink:href="#LiberationSans-32"/>
      <use x="494.677734" xlink:href="#LiberationSans-100"/>
      <use x="550.292969" xlink:href="#LiberationSans-101"/>
      <use x="605.908203" xlink:href="#LiberationSans-110"/>
      <use x="661.523438" xlink:href="#LiberationSans-115"/>
      <use x="711.523438" xlink:href="#LiberationSans-105"/>
      <use x="733.740234" xlink:href="#LiberationSans-116"/>
      <use x="761.523438" xlink:href="#LiberationSans-121"/>
     </g>
    </g>
   </g>
   <g id="patch_3">
    <path clip-path="url(#p5e2811bfd2)" d="M 65.106446 173.903437 
L 66.489917 173.903437 
L 66.489917 21.620544 
L 65.106446 21.620544 
z
" style="fill:#4c72b0;opacity:0.4;"/>
   </g>
   <g id="patch_4">
    <path clip-path="url(#p5e2811bfd2)" d="M 66.489917 173.903437 
L 67.873388 173.903437 
L 67.873388 142.073816 
L 66.489917 142.073816 
z
" style="fill:#4c72b0;opacity:0.4;"/>
   </g>
   <g id="patch_5">
    <path clip-path="url(#p5e2811bfd2)" d="M 67.873388 173.903437 
L 69.25686 173.903437 
L 69.25686 156.51751 
L 67.873388 156.51751 
z
" style="fill:#4c72b0;opacity:0.4;"/>
   </g>
   <g id="patch_6">
    <path clip-path="url(#p5e2811bfd2)" d="M 69.25686 173.903437 
L 70.640331 173.903437 
L 70.640331 159.370585 
L 69.25686 159.370585 
z
" style="fill:#4c72b0;opacity:0.4;"/>
   </g>
   <g id="patch_7">
    <path clip-path="url(#p5e2811bfd2)" d="M 70.640331 173.903437 
L 72.023802 173.903437 
L 72.023802 159.72722 
L 70.640331 159.72722 
z
" style="fill:#4c72b0;opacity:0.4;"/>
   </g>
   <g id="patch_8">
    <path clip-path="url(#p5e2811bfd2)" d="M 72.023802 173.903437 
L 73.407273 173.903437 
L 73.407273 161.867026 
L 72.023802 161.867026 
z
" style="fill:#4c72b0;opacity:0.4;"/>
   </g>
   <g id="patch_9">
    <path clip-path="url(#p5e2811bfd2)" d="M 73.407273 173.903437 
L 74.790744 173.903437 
L 74.790744 164.720101 
L 73.407273 164.720101 
z
" style="fill:#4c72b0;opacity:0.4;"/>
   </g>
   <g id="patch_10">
    <path clip-path="url(#p5e2811bfd2)" d="M 74.790744 173.903437 
L 76.174215 173.903437 
L 76.174215 166.235798 
L 74.790744 166.235798 
z
" style="fill:#4c72b0;opacity:0.4;"/>
   </g>
   <g id="patch_11">
    <path clip-path="url(#p5e2811bfd2)" d="M 76.174215 173.903437 
L 77.557686 173.903437 
L 77.557686 165.879163 
L 76.174215 165.879163 
z
" style="fill:#4c72b0;opacity:0.4;"/>
   </g>
   <g id="patch_12">
    <path clip-path="url(#p5e2811bfd2)" d="M 77.557686 173.903437 
L 78.941157 173.903437 
L 78.941157 166.681591 
L 77.557686 166.681591 
z
" style="fill:#4c72b0;opacity:0.4;"/>
   </g>
   <g id="patch_13">
    <path clip-path="url(#p5e2811bfd2)" d="M 78.941157 173.903437 
L 80.324628 173.903437 
L 80.324628 167.840653 
L 78.941157 167.840653 
z
" style="fill:#4c72b0;opacity:0.4;"/>
   </g>
   <g id="patch_14">
    <path clip-path="url(#p5e2811bfd2)" d="M 80.324628 173.903437 
L 81.708099 173.903437 
L 81.708099 166.592432 
L 80.324628 166.592432 
z
" style="fill:#4c72b0;opacity:0.4;"/>
   </g>
   <g id="patch_15">
    <path clip-path="url(#p5e2811bfd2)" d="M 81.708099 173.903437 
L 83.09157 173.903437 
L 83.09157 167.573177 
L 81.708099 167.573177 
z
" style="fill:#4c72b0;opacity:0.4;"/>
   </g>
   <g id="patch_16">
    <path clip-path="url(#p5e2811bfd2)" d="M 83.09157 173.903437 
L 84.475041 173.903437 
L 84.475041 168.108128 
L 83.09157 168.108128 
z
" style="fill:#4c72b0;opacity:0.4;"/>
   </g>
   <g id="patch_17">
    <path clip-path="url(#p5e2811bfd2)" d="M 84.475041 173.903437 
L 85.858512 173.903437 
L 85.858512 168.286446 
L 84.475041 168.286446 
z
" style="fill:#4c72b0;opacity:0.4;"/>
   </g>
   <g id="patch_18">
    <path clip-path="url(#p5e2811bfd2)" d="M 85.858512 173.903437 
L 87.241983 173.903437 
L 87.241983 168.553921 
L 85.858512 168.553921 
z
" style="fill:#4c72b0;opacity:0.4;"/>
   </g>
   <g id="patch_19">
    <path clip-path="url(#p5e2811bfd2)" d="M 87.241983 173.903437 
L 88.625455 173.903437 
L 88.625455 169.088873 
L 87.241983 169.088873 
z
" style="fill:#4c72b0;opacity:0.4;"/>
   </g>
   <g id="patch_20">
    <path clip-path="url(#p5e2811bfd2)" d="M 88.625455 173.903437 
L 90.008926 173.903437 
L 90.008926 168.286446 
L 88.625455 168.286446 
z
" style="fill:#4c72b0;opacity:0.4;"/>
   </g>
   <g id="patch_21">
    <path clip-path="url(#p5e2811bfd2)" d="M 90.008926 173.903437 
L 91.392397 173.903437 
L 91.392397 168.910556 
L 90.008926 168.910556 
z
" style="fill:#4c72b0;opacity:0.4;"/>
   </g>
   <g id="patch_22">
    <path clip-path="url(#p5e2811bfd2)" d="M 91.392397 173.903437 
L 92.775868 173.903437 
L 92.775868 169.8913 
L 91.392397 169.8913 
z
" style="fill:#4c72b0;opacity:0.4;"/>
   </g>
   <g id="patch_23">
    <path clip-path="url(#p5e2811bfd2)" d="M 92.775868 173.903437 
L 94.159339 173.903437 
L 94.159339 168.64308 
L 92.775868 168.64308 
z
" style="fill:#4c72b0;opacity:0.4;"/>
   </g>
   <g id="patch_24">
    <path clip-path="url(#p5e2811bfd2)" d="M 94.159339 173.903437 
L 95.54281 173.903437 
L 95.54281 168.910556 
L 94.159339 168.910556 
z
" style="fill:#4c72b0;opacity:0.4;"/>
   </g>
   <g id="patch_25">
    <path clip-path="url(#p5e2811bfd2)" d="M 95.54281 173.903437 
L 96.926281 173.903437 
L 96.926281 169.178032 
L 95.54281 169.178032 
z
" style="fill:#4c72b0;opacity:0.4;"/>
   </g>
   <g id="patch_26">
    <path clip-path="url(#p5e2811bfd2)" d="M 96.926281 173.903437 
L 98.309752 173.903437 
L 98.309752 170.515411 
L 96.926281 170.515411 
z
" style="fill:#4c72b0;opacity:0.4;"/>
   </g>
   <g id="patch_27">
    <path clip-path="url(#p5e2811bfd2)" d="M 98.309752 173.903437 
L 99.693223 173.903437 
L 99.693223 169.712983 
L 98.309752 169.712983 
z
" style="fill:#4c72b0;opacity:0.4;"/>
   </g>
   <g id="patch_28">
    <path clip-path="url(#p5e2811bfd2)" d="M 99.693223 173.903437 
L 101.076694 173.903437 
L 101.076694 169.802142 
L 99.693223 169.802142 
z
" style="fill:#4c72b0;opacity:0.4;"/>
   </g>
   <g id="patch_29">
    <path clip-path="url(#p5e2811bfd2)" d="M 101.076694 173.903437 
L 102.460165 173.903437 
L 102.460165 170.515411 
L 101.076694 170.515411 
z
" style="fill:#4c72b0;opacity:0.4;"/>
   </g>
   <g id="patch_30">
    <path clip-path="url(#p5e2811bfd2)" d="M 102.460165 173.903437 
L 103.843636 173.903437 
L 103.843636 169.178032 
L 102.460165 169.178032 
z
" style="fill:#4c72b0;opacity:0.4;"/>
   </g>
   <g id="patch_31">
    <path clip-path="url(#p5e2811bfd2)" d="M 103.843636 173.903437 
L 105.227107 173.903437 
L 105.227107 169.623825 
L 103.843636 169.623825 
z
" style="fill:#4c72b0;opacity:0.4;"/>
   </g>
   <g id="patch_32">
    <path clip-path="url(#p5e2811bfd2)" d="M 105.227107 173.903437 
L 106.610579 173.903437 
L 106.610579 170.604569 
L 105.227107 170.604569 
z
" style="fill:#4c72b0;opacity:0.4;"/>
   </g>
   <g id="patch_33">
    <path clip-path="url(#p5e2811bfd2)" d="M 106.610579 173.903437 
L 107.99405 173.903437 
L 107.99405 169.8913 
L 106.610579 169.8913 
z
" style="fill:#4c72b0;opacity:0.4;"/>
   </g>
   <g id="patch_34">
    <path clip-path="url(#p5e2811bfd2)" d="M 107.99405 173.903437 
L 109.377521 173.903437 
L 109.377521 169.712983 
L 107.99405 169.712983 
z
" style="fill:#4c72b0;opacity:0.4;"/>
   </g>
   <g id="patch_35">
    <path clip-path="url(#p5e2811bfd2)" d="M 109.377521 173.903437 
L 110.760992 173.903437 
L 110.760992 170.158776 
L 109.377521 170.158776 
z
" style="fill:#4c72b0;opacity:0.4;"/>
   </g>
   <g id="patch_36">
    <path clip-path="url(#p5e2811bfd2)" d="M 110.760992 173.903437 
L 112.144463 173.903437 
L 112.144463 169.088873 
L 110.760992 169.088873 
z
" style="fill:#4c72b0;opacity:0.4;"/>
   </g>
   <g id="patch_37">
    <path clip-path="url(#p5e2811bfd2)" d="M 112.144463 173.903437 
L 113.527934 173.903437 
L 113.527934 170.782886 
L 112.144463 170.782886 
z
" style="fill:#4c72b0;opacity:0.4;"/>
   </g>
   <g id="patch_38">
    <path clip-path="url(#p5e2811bfd2)" d="M 113.527934 173.903437 
L 114.911405 173.903437 
L 114.911405 170.693728 
L 113.527934 170.693728 
z
" style="fill:#4c72b0;opacity:0.4;"/>
   </g>
   <g id="patch_39">
    <path clip-path="url(#p5e2811bfd2)" d="M 114.911405 173.903437 
L 116.294876 173.903437 
L 116.294876 169.980459 
L 114.911405 169.980459 
z
" style="fill:#4c72b0;opacity:0.4;"/>
   </g>
   <g id="patch_40">
    <path clip-path="url(#p5e2811bfd2)" d="M 116.294876 173.903437 
L 117.678347 173.903437 
L 117.678347 170.604569 
L 116.294876 170.604569 
z
" style="fill:#4c72b0;opacity:0.4;"/>
   </g>
   <g id="patch_41">
    <path clip-path="url(#p5e2811bfd2)" d="M 117.678347 173.903437 
L 119.061818 173.903437 
L 119.061818 170.337093 
L 117.678347 170.337093 
z
" style="fill:#4c72b0;opacity:0.4;"/>
   </g>
   <g id="patch_42">
    <path clip-path="url(#p5e2811bfd2)" d="M 119.061818 173.903437 
L 120.445289 173.903437 
L 120.445289 170.515411 
L 119.061818 170.515411 
z
" style="fill:#4c72b0;opacity:0.4;"/>
   </g>
   <g id="patch_43">
    <path clip-path="url(#p5e2811bfd2)" d="M 120.445289 173.903437 
L 121.82876 173.903437 
L 121.82876 170.604569 
L 120.445289 170.604569 
z
" style="fill:#4c72b0;opacity:0.4;"/>
   </g>
   <g id="patch_44">
    <path clip-path="url(#p5e2811bfd2)" d="M 121.82876 173.903437 
L 123.212231 173.903437 
L 123.212231 170.604569 
L 121.82876 170.604569 
z
" style="fill:#4c72b0;opacity:0.4;"/>
   </g>
   <g id="patch_45">
    <path clip-path="url(#p5e2811bfd2)" d="M 123.212231 173.903437 
L 124.595702 173.903437 
L 124.595702 171.139521 
L 123.212231 171.139521 
z
" style="fill:#4c72b0;opacity:0.4;"/>
   </g>
   <g id="patch_46">
    <path clip-path="url(#p5e2811bfd2)" d="M 124.595702 173.903437 
L 125.979174 173.903437 
L 125.979174 169.445507 
L 124.595702 169.445507 
z
" style="fill:#4c72b0;opacity:0.4;"/>
   </g>
   <g id="patch_47">
    <path clip-path="url(#p5e2811bfd2)" d="M 125.979174 173.903437 
L 127.362645 173.903437 
L 127.362645 168.999714 
L 125.979174 168.999714 
z
" style="fill:#4c72b0;opacity:0.4;"/>
   </g>
   <g id="patch_48">
    <path clip-path="url(#p5e2811bfd2)" d="M 127.362645 173.903437 
L 128.746116 173.903437 
L 128.746116 169.980459 
L 127.362645 169.980459 
z
" style="fill:#4c72b0;opacity:0.4;"/>
   </g>
   <g id="patch_49">
    <path clip-path="url(#p5e2811bfd2)" d="M 128.746116 173.903437 
L 130.129587 173.903437 
L 130.129587 170.782886 
L 128.746116 170.782886 
z
" style="fill:#4c72b0;opacity:0.4;"/>
   </g>
   <g id="patch_50">
    <path clip-path="url(#p5e2811bfd2)" d="M 130.129587 173.903437 
L 131.513058 173.903437 
L 131.513058 171.050362 
L 130.129587 171.050362 
z
" style="fill:#4c72b0;opacity:0.4;"/>
   </g>
   <g id="patch_51">
    <path clip-path="url(#p5e2811bfd2)" d="M 131.513058 173.903437 
L 132.896529 173.903437 
L 132.896529 170.782886 
L 131.513058 170.782886 
z
" style="fill:#4c72b0;opacity:0.4;"/>
   </g>
   <g id="patch_52">
    <path clip-path="url(#p5e2811bfd2)" d="M 132.896529 173.903437 
L 134.28 173.903437 
L 134.28 171.139521 
L 132.896529 171.139521 
z
" style="fill:#4c72b0;opacity:0.4;"/>
   </g>
   <g id="patch_53">
    <path clip-path="url(#p5e2811bfd2)" d="M 134.28 173.903437 
L 135.663471 173.903437 
L 135.663471 169.623825 
L 134.28 169.623825 
z
" style="fill:#4c72b0;opacity:0.4;"/>
   </g>
   <g id="patch_54">
    <path clip-path="url(#p5e2811bfd2)" d="M 135.663471 173.903437 
L 137.046942 173.903437 
L 137.046942 170.782886 
L 135.663471 170.782886 
z
" style="fill:#4c72b0;opacity:0.4;"/>
   </g>
   <g id="patch_55">
    <path clip-path="url(#p5e2811bfd2)" d="M 137.046942 173.903437 
L 138.430413 173.903437 
L 138.430413 170.337093 
L 137.046942 170.337093 
z
" style="fill:#4c72b0;opacity:0.4;"/>
   </g>
   <g id="patch_56">
    <path clip-path="url(#p5e2811bfd2)" d="M 138.430413 173.903437 
L 139.813884 173.903437 
L 139.813884 169.534666 
L 138.430413 169.534666 
z
" style="fill:#4c72b0;opacity:0.4;"/>
   </g>
   <g id="patch_57">
    <path clip-path="url(#p5e2811bfd2)" d="M 139.813884 173.903437 
L 141.197355 173.903437 
L 141.197355 171.050362 
L 139.813884 171.050362 
z
" style="fill:#4c72b0;opacity:0.4;"/>
   </g>
   <g id="patch_58">
    <path clip-path="url(#p5e2811bfd2)" d="M 141.197355 173.903437 
L 142.580826 173.903437 
L 142.580826 169.980459 
L 141.197355 169.980459 
z
" style="fill:#4c72b0;opacity:0.4;"/>
   </g>
   <g id="patch_59">
    <path clip-path="url(#p5e2811bfd2)" d="M 142.580826 173.903437 
L 143.964298 173.903437 
L 143.964298 169.712983 
L 142.580826 169.712983 
z
" style="fill:#4c72b0;opacity:0.4;"/>
   </g>
   <g id="patch_60">
    <path clip-path="url(#p5e2811bfd2)" d="M 143.964298 173.903437 
L 145.347769 173.903437 
L 145.347769 171.496155 
L 143.964298 171.496155 
z
" style="fill:#4c72b0;opacity:0.4;"/>
   </g>
   <g id="patch_61">
    <path clip-path="url(#p5e2811bfd2)" d="M 145.347769 173.903437 
L 146.73124 173.903437 
L 146.73124 170.961204 
L 145.347769 170.961204 
z
" style="fill:#4c72b0;opacity:0.4;"/>
   </g>
   <g id="patch_62">
    <path clip-path="url(#p5e2811bfd2)" d="M 146.73124 173.903437 
L 148.114711 173.903437 
L 148.114711 170.693728 
L 146.73124 170.693728 
z
" style="fill:#4c72b0;opacity:0.4;"/>
   </g>
   <g id="patch_63">
    <path clip-path="url(#p5e2811bfd2)" d="M 148.114711 173.903437 
L 149.498182 173.903437 
L 149.498182 170.693728 
L 148.114711 170.693728 
z
" style="fill:#4c72b0;opacity:0.4;"/>
   </g>
   <g id="patch_64">
    <path clip-path="url(#p5e2811bfd2)" d="M 149.498182 173.903437 
L 150.881653 173.903437 
L 150.881653 171.228679 
L 149.498182 171.228679 
z
" style="fill:#4c72b0;opacity:0.4;"/>
   </g>
   <g id="patch_65">
    <path clip-path="url(#p5e2811bfd2)" d="M 150.881653 173.903437 
L 152.265124 173.903437 
L 152.265124 169.445507 
L 150.881653 169.445507 
z
" style="fill:#4c72b0;opacity:0.4;"/>
   </g>
   <g id="patch_66">
    <path clip-path="url(#p5e2811bfd2)" d="M 152.265124 173.903437 
L 153.648595 173.903437 
L 153.648595 170.872045 
L 152.265124 170.872045 
z
" style="fill:#4c72b0;opacity:0.4;"/>
   </g>
   <g id="patch_67">
    <path clip-path="url(#p5e2811bfd2)" d="M 153.648595 173.903437 
L 155.032066 173.903437 
L 155.032066 169.534666 
L 153.648595 169.534666 
z
" style="fill:#4c72b0;opacity:0.4;"/>
   </g>
   <g id="patch_68">
    <path clip-path="url(#p5e2811bfd2)" d="M 155.032066 173.903437 
L 156.415537 173.903437 
L 156.415537 171.228679 
L 155.032066 171.228679 
z
" style="fill:#4c72b0;opacity:0.4;"/>
   </g>
   <g id="patch_69">
    <path clip-path="url(#p5e2811bfd2)" d="M 156.415537 173.903437 
L 157.799008 173.903437 
L 157.799008 169.712983 
L 156.415537 169.712983 
z
" style="fill:#4c72b0;opacity:0.4;"/>
   </g>
   <g id="patch_70">
    <path clip-path="url(#p5e2811bfd2)" d="M 157.799008 173.903437 
L 159.182479 173.903437 
L 159.182479 170.337093 
L 157.799008 170.337093 
z
" style="fill:#4c72b0;opacity:0.4;"/>
   </g>
   <g id="patch_71">
    <path clip-path="url(#p5e2811bfd2)" d="M 159.182479 173.903437 
L 160.56595 173.903437 
L 160.56595 169.088873 
L 159.182479 169.088873 
z
" style="fill:#4c72b0;opacity:0.4;"/>
   </g>
   <g id="patch_72">
    <path clip-path="url(#p5e2811bfd2)" d="M 160.56595 173.903437 
L 161.949421 173.903437 
L 161.949421 169.802142 
L 160.56595 169.802142 
z
" style="fill:#4c72b0;opacity:0.4;"/>
   </g>
   <g id="patch_73">
    <path clip-path="url(#p5e2811bfd2)" d="M 161.949421 173.903437 
L 163.332893 173.903437 
L 163.332893 169.980459 
L 161.949421 169.980459 
z
" style="fill:#4c72b0;opacity:0.4;"/>
   </g>
   <g id="patch_74">
    <path clip-path="url(#p5e2811bfd2)" d="M 163.332893 173.903437 
L 164.716364 173.903437 
L 164.716364 170.337093 
L 163.332893 170.337093 
z
" style="fill:#4c72b0;opacity:0.4;"/>
   </g>
   <g id="patch_75">
    <path clip-path="url(#p5e2811bfd2)" d="M 164.716364 173.903437 
L 166.099835 173.903437 
L 166.099835 169.802142 
L 164.716364 169.802142 
z
" style="fill:#4c72b0;opacity:0.4;"/>
   </g>
   <g id="patch_76">
    <path clip-path="url(#p5e2811bfd2)" d="M 166.099835 173.903437 
L 167.483306 173.903437 
L 167.483306 169.088873 
L 166.099835 169.088873 
z
" style="fill:#4c72b0;opacity:0.4;"/>
   </g>
   <g id="patch_77">
    <path clip-path="url(#p5e2811bfd2)" d="M 167.483306 173.903437 
L 168.866777 173.903437 
L 168.866777 170.158776 
L 167.483306 170.158776 
z
" style="fill:#4c72b0;opacity:0.4;"/>
   </g>
   <g id="patch_78">
    <path clip-path="url(#p5e2811bfd2)" d="M 168.866777 173.903437 
L 170.250248 173.903437 
L 170.250248 169.26719 
L 168.866777 169.26719 
z
" style="fill:#4c72b0;opacity:0.4;"/>
   </g>
   <g id="patch_79">
    <path clip-path="url(#p5e2811bfd2)" d="M 170.250248 173.903437 
L 171.633719 173.903437 
L 171.633719 168.464763 
L 170.250248 168.464763 
z
" style="fill:#4c72b0;opacity:0.4;"/>
   </g>
   <g id="patch_80">
    <path clip-path="url(#p5e2811bfd2)" d="M 171.633719 173.903437 
L 173.01719 173.903437 
L 173.01719 168.910556 
L 171.633719 168.910556 
z
" style="fill:#4c72b0;opacity:0.4;"/>
   </g>
   <g id="patch_81">
    <path clip-path="url(#p5e2811bfd2)" d="M 173.01719 173.903437 
L 174.400661 173.903437 
L 174.400661 170.247935 
L 173.01719 170.247935 
z
" style="fill:#4c72b0;opacity:0.4;"/>
   </g>
   <g id="patch_82">
    <path clip-path="url(#p5e2811bfd2)" d="M 174.400661 173.903437 
L 175.784132 173.903437 
L 175.784132 169.802142 
L 174.400661 169.802142 
z
" style="fill:#4c72b0;opacity:0.4;"/>
   </g>
   <g id="patch_83">
    <path clip-path="url(#p5e2811bfd2)" d="M 175.784132 173.903437 
L 177.167603 173.903437 
L 177.167603 167.840653 
L 175.784132 167.840653 
z
" style="fill:#4c72b0;opacity:0.4;"/>
   </g>
   <g id="patch_84">
    <path clip-path="url(#p5e2811bfd2)" d="M 177.167603 173.903437 
L 178.551074 173.903437 
L 178.551074 169.802142 
L 177.167603 169.802142 
z
" style="fill:#4c72b0;opacity:0.4;"/>
   </g>
   <g id="patch_85">
    <path clip-path="url(#p5e2811bfd2)" d="M 178.551074 173.903437 
L 179.934545 173.903437 
L 179.934545 170.069618 
L 178.551074 170.069618 
z
" style="fill:#4c72b0;opacity:0.4;"/>
   </g>
   <g id="patch_86">
    <path clip-path="url(#p5e2811bfd2)" d="M 179.934545 173.903437 
L 181.318017 173.903437 
L 181.318017 168.286446 
L 179.934545 168.286446 
z
" style="fill:#4c72b0;opacity:0.4;"/>
   </g>
   <g id="patch_87">
    <path clip-path="url(#p5e2811bfd2)" d="M 181.318017 173.903437 
L 182.701488 173.903437 
L 182.701488 168.64308 
L 181.318017 168.64308 
z
" style="fill:#4c72b0;opacity:0.4;"/>
   </g>
   <g id="patch_88">
    <path clip-path="url(#p5e2811bfd2)" d="M 182.701488 173.903437 
L 184.084959 173.903437 
L 184.084959 168.553921 
L 182.701488 168.553921 
z
" style="fill:#4c72b0;opacity:0.4;"/>
   </g>
   <g id="patch_89">
    <path clip-path="url(#p5e2811bfd2)" d="M 184.084959 173.903437 
L 185.46843 173.903437 
L 185.46843 167.662335 
L 184.084959 167.662335 
z
" style="fill:#4c72b0;opacity:0.4;"/>
   </g>
   <g id="patch_90">
    <path clip-path="url(#p5e2811bfd2)" d="M 185.46843 173.903437 
L 186.851901 173.903437 
L 186.851901 168.197287 
L 185.46843 168.197287 
z
" style="fill:#4c72b0;opacity:0.4;"/>
   </g>
   <g id="patch_91">
    <path clip-path="url(#p5e2811bfd2)" d="M 186.851901 173.903437 
L 188.235372 173.903437 
L 188.235372 167.484018 
L 186.851901 167.484018 
z
" style="fill:#4c72b0;opacity:0.4;"/>
   </g>
   <g id="patch_92">
    <path clip-path="url(#p5e2811bfd2)" d="M 188.235372 173.903437 
L 189.618843 173.903437 
L 189.618843 167.929811 
L 188.235372 167.929811 
z
" style="fill:#4c72b0;opacity:0.4;"/>
   </g>
   <g id="patch_93">
    <path clip-path="url(#p5e2811bfd2)" d="M 189.618843 173.903437 
L 191.002314 173.903437 
L 191.002314 166.949066 
L 189.618843 166.949066 
z
" style="fill:#4c72b0;opacity:0.4;"/>
   </g>
   <g id="patch_94">
    <path clip-path="url(#p5e2811bfd2)" d="M 191.002314 173.903437 
L 192.385785 173.903437 
L 192.385785 165.255053 
L 191.002314 165.255053 
z
" style="fill:#4c72b0;opacity:0.4;"/>
   </g>
   <g id="patch_95">
    <path clip-path="url(#p5e2811bfd2)" d="M 192.385785 173.903437 
L 193.769256 173.903437 
L 193.769256 165.076736 
L 192.385785 165.076736 
z
" style="fill:#4c72b0;opacity:0.4;"/>
   </g>
   <g id="patch_96">
    <path clip-path="url(#p5e2811bfd2)" d="M 193.769256 173.903437 
L 195.152727 173.903437 
L 195.152727 166.05748 
L 193.769256 166.05748 
z
" style="fill:#4c72b0;opacity:0.4;"/>
   </g>
   <g id="patch_97">
    <path clip-path="url(#p5e2811bfd2)" d="M 195.152727 173.903437 
L 196.536198 173.903437 
L 196.536198 161.59955 
L 195.152727 161.59955 
z
" style="fill:#4c72b0;opacity:0.4;"/>
   </g>
   <g id="patch_98">
    <path clip-path="url(#p5e2811bfd2)" d="M 196.536198 173.903437 
L 197.919669 173.903437 
L 197.919669 159.72722 
L 196.536198 159.72722 
z
" style="fill:#4c72b0;opacity:0.4;"/>
   </g>
   <g id="patch_99">
    <path clip-path="url(#p5e2811bfd2)" d="M 197.919669 173.903437 
L 199.30314 173.903437 
L 199.30314 159.013951 
L 197.919669 159.013951 
z
" style="fill:#4c72b0;opacity:0.4;"/>
   </g>
   <g id="patch_100">
    <path clip-path="url(#p5e2811bfd2)" d="M 199.30314 173.903437 
L 200.686612 173.903437 
L 200.686612 154.823497 
L 199.30314 154.823497 
z
" style="fill:#4c72b0;opacity:0.4;"/>
   </g>
   <g id="patch_101">
    <path clip-path="url(#p5e2811bfd2)" d="M 200.686612 173.903437 
L 202.070083 173.903437 
L 202.070083 144.213623 
L 200.686612 144.213623 
z
" style="fill:#4c72b0;opacity:0.4;"/>
   </g>
   <g id="patch_102">
    <path clip-path="url(#p5e2811bfd2)" d="M 202.070083 173.903437 
L 203.453554 173.903437 
L 203.453554 18.589152 
L 202.070083 18.589152 
z
" style="fill:#4c72b0;opacity:0.4;"/>
   </g>
   <g id="patch_103">
    <path clip-path="url(#p5e2811bfd2)" d="M 71.324893 173.903437 
L 72.608769 173.903437 
L 72.608769 173.423062 
L 71.324893 173.423062 
z
" style="fill:#55a868;opacity:0.4;"/>
   </g>
   <g id="patch_104">
    <path clip-path="url(#p5e2811bfd2)" d="M 72.608769 173.903437 
L 73.892645 173.903437 
L 73.892645 173.903437 
L 72.608769 173.903437 
z
" style="fill:#55a868;opacity:0.4;"/>
   </g>
   <g id="patch_105">
    <path clip-path="url(#p5e2811bfd2)" d="M 73.892645 173.903437 
L 75.17652 173.903437 
L 75.17652 173.615212 
L 73.892645 173.615212 
z
" style="fill:#55a868;opacity:0.4;"/>
   </g>
   <g id="patch_106">
    <path clip-path="url(#p5e2811bfd2)" d="M 75.17652 173.903437 
L 76.460396 173.903437 
L 76.460396 173.615212 
L 75.17652 173.615212 
z
" style="fill:#55a868;opacity:0.4;"/>
   </g>
   <g id="patch_107">
    <path clip-path="url(#p5e2811bfd2)" d="M 76.460396 173.903437 
L 77.744271 173.903437 
L 77.744271 173.615212 
L 76.460396 173.615212 
z
" style="fill:#55a868;opacity:0.4;"/>
   </g>
   <g id="patch_108">
    <path clip-path="url(#p5e2811bfd2)" d="M 77.744271 173.903437 
L 79.028147 173.903437 
L 79.028147 173.326987 
L 77.744271 173.326987 
z
" style="fill:#55a868;opacity:0.4;"/>
   </g>
   <g id="patch_109">
    <path clip-path="url(#p5e2811bfd2)" d="M 79.028147 173.903437 
L 80.312022 173.903437 
L 80.312022 172.558387 
L 79.028147 172.558387 
z
" style="fill:#55a868;opacity:0.4;"/>
   </g>
   <g id="patch_110">
    <path clip-path="url(#p5e2811bfd2)" d="M 80.312022 173.903437 
L 81.595898 173.903437 
L 81.595898 172.462312 
L 80.312022 172.462312 
z
" style="fill:#55a868;opacity:0.4;"/>
   </g>
   <g id="patch_111">
    <path clip-path="url(#p5e2811bfd2)" d="M 81.595898 173.903437 
L 82.879773 173.903437 
L 82.879773 172.654462 
L 81.595898 172.654462 
z
" style="fill:#55a868;opacity:0.4;"/>
   </g>
   <g id="patch_112">
    <path clip-path="url(#p5e2811bfd2)" d="M 82.879773 173.903437 
L 84.163649 173.903437 
L 84.163649 172.270162 
L 82.879773 172.270162 
z
" style="fill:#55a868;opacity:0.4;"/>
   </g>
   <g id="patch_113">
    <path clip-path="url(#p5e2811bfd2)" d="M 84.163649 173.903437 
L 85.447524 173.903437 
L 85.447524 171.405487 
L 84.163649 171.405487 
z
" style="fill:#55a868;opacity:0.4;"/>
   </g>
   <g id="patch_114">
    <path clip-path="url(#p5e2811bfd2)" d="M 85.447524 173.903437 
L 86.7314 173.903437 
L 86.7314 171.021187 
L 85.447524 171.021187 
z
" style="fill:#55a868;opacity:0.4;"/>
   </g>
   <g id="patch_115">
    <path clip-path="url(#p5e2811bfd2)" d="M 86.7314 173.903437 
L 88.015275 173.903437 
L 88.015275 171.117262 
L 86.7314 171.117262 
z
" style="fill:#55a868;opacity:0.4;"/>
   </g>
   <g id="patch_116">
    <path clip-path="url(#p5e2811bfd2)" d="M 88.015275 173.903437 
L 89.299151 173.903437 
L 89.299151 170.829037 
L 88.015275 170.829037 
z
" style="fill:#55a868;opacity:0.4;"/>
   </g>
   <g id="patch_117">
    <path clip-path="url(#p5e2811bfd2)" d="M 89.299151 173.903437 
L 90.583026 173.903437 
L 90.583026 170.925112 
L 89.299151 170.925112 
z
" style="fill:#55a868;opacity:0.4;"/>
   </g>
   <g id="patch_118">
    <path clip-path="url(#p5e2811bfd2)" d="M 90.583026 173.903437 
L 91.866902 173.903437 
L 91.866902 169.291837 
L 90.583026 169.291837 
z
" style="fill:#55a868;opacity:0.4;"/>
   </g>
   <g id="patch_119">
    <path clip-path="url(#p5e2811bfd2)" d="M 91.866902 173.903437 
L 93.150778 173.903437 
L 93.150778 168.619312 
L 91.866902 168.619312 
z
" style="fill:#55a868;opacity:0.4;"/>
   </g>
   <g id="patch_120">
    <path clip-path="url(#p5e2811bfd2)" d="M 93.150778 173.903437 
L 94.434653 173.903437 
L 94.434653 169.676137 
L 93.150778 169.676137 
z
" style="fill:#55a868;opacity:0.4;"/>
   </g>
   <g id="patch_121">
    <path clip-path="url(#p5e2811bfd2)" d="M 94.434653 173.903437 
L 95.718529 173.903437 
L 95.718529 167.466412 
L 94.434653 167.466412 
z
" style="fill:#55a868;opacity:0.4;"/>
   </g>
   <g id="patch_122">
    <path clip-path="url(#p5e2811bfd2)" d="M 95.718529 173.903437 
L 97.002404 173.903437 
L 97.002404 166.986037 
L 95.718529 166.986037 
z
" style="fill:#55a868;opacity:0.4;"/>
   </g>
   <g id="patch_123">
    <path clip-path="url(#p5e2811bfd2)" d="M 97.002404 173.903437 
L 98.28628 173.903437 
L 98.28628 166.505662 
L 97.002404 166.505662 
z
" style="fill:#55a868;opacity:0.4;"/>
   </g>
   <g id="patch_124">
    <path clip-path="url(#p5e2811bfd2)" d="M 98.28628 173.903437 
L 99.570155 173.903437 
L 99.570155 166.986037 
L 98.28628 166.986037 
z
" style="fill:#55a868;opacity:0.4;"/>
   </g>
   <g id="patch_125">
    <path clip-path="url(#p5e2811bfd2)" d="M 99.570155 173.903437 
L 100.854031 173.903437 
L 100.854031 166.986037 
L 99.570155 166.986037 
z
" style="fill:#55a868;opacity:0.4;"/>
   </g>
   <g id="patch_126">
    <path clip-path="url(#p5e2811bfd2)" d="M 100.854031 173.903437 
L 102.137906 173.903437 
L 102.137906 164.968462 
L 100.854031 164.968462 
z
" style="fill:#55a868;opacity:0.4;"/>
   </g>
   <g id="patch_127">
    <path clip-path="url(#p5e2811bfd2)" d="M 102.137906 173.903437 
L 103.421782 173.903437 
L 103.421782 164.776312 
L 102.137906 164.776312 
z
" style="fill:#55a868;opacity:0.4;"/>
   </g>
   <g id="patch_128">
    <path clip-path="url(#p5e2811bfd2)" d="M 103.421782 173.903437 
L 104.705657 173.903437 
L 104.705657 163.143037 
L 103.421782 163.143037 
z
" style="fill:#55a868;opacity:0.4;"/>
   </g>
   <g id="patch_129">
    <path clip-path="url(#p5e2811bfd2)" d="M 104.705657 173.903437 
L 105.989533 173.903437 
L 105.989533 164.776312 
L 104.705657 164.776312 
z
" style="fill:#55a868;opacity:0.4;"/>
   </g>
   <g id="patch_130">
    <path clip-path="url(#p5e2811bfd2)" d="M 105.989533 173.903437 
L 107.273408 173.903437 
L 107.273408 161.317612 
L 105.989533 161.317612 
z
" style="fill:#55a868;opacity:0.4;"/>
   </g>
   <g id="patch_131">
    <path clip-path="url(#p5e2811bfd2)" d="M 107.273408 173.903437 
L 108.557284 173.903437 
L 108.557284 162.086212 
L 107.273408 162.086212 
z
" style="fill:#55a868;opacity:0.4;"/>
   </g>
   <g id="patch_132">
    <path clip-path="url(#p5e2811bfd2)" d="M 108.557284 173.903437 
L 109.84116 173.903437 
L 109.84116 160.164712 
L 108.557284 160.164712 
z
" style="fill:#55a868;opacity:0.4;"/>
   </g>
   <g id="patch_133">
    <path clip-path="url(#p5e2811bfd2)" d="M 109.84116 173.903437 
L 111.125035 173.903437 
L 111.125035 159.203962 
L 109.84116 159.203962 
z
" style="fill:#55a868;opacity:0.4;"/>
   </g>
   <g id="patch_134">
    <path clip-path="url(#p5e2811bfd2)" d="M 111.125035 173.903437 
L 112.408911 173.903437 
L 112.408911 159.972562 
L 111.125035 159.972562 
z
" style="fill:#55a868;opacity:0.4;"/>
   </g>
   <g id="patch_135">
    <path clip-path="url(#p5e2811bfd2)" d="M 112.408911 173.903437 
L 113.692786 173.903437 
L 113.692786 160.356862 
L 112.408911 160.356862 
z
" style="fill:#55a868;opacity:0.4;"/>
   </g>
   <g id="patch_136">
    <path clip-path="url(#p5e2811bfd2)" d="M 113.692786 173.903437 
L 114.976662 173.903437 
L 114.976662 160.260787 
L 113.692786 160.260787 
z
" style="fill:#55a868;opacity:0.4;"/>
   </g>
   <g id="patch_137">
    <path clip-path="url(#p5e2811bfd2)" d="M 114.976662 173.903437 
L 116.260537 173.903437 
L 116.260537 159.396112 
L 114.976662 159.396112 
z
" style="fill:#55a868;opacity:0.4;"/>
   </g>
   <g id="patch_138">
    <path clip-path="url(#p5e2811bfd2)" d="M 116.260537 173.903437 
L 117.544413 173.903437 
L 117.544413 157.570687 
L 116.260537 157.570687 
z
" style="fill:#55a868;opacity:0.4;"/>
   </g>
   <g id="patch_139">
    <path clip-path="url(#p5e2811bfd2)" d="M 117.544413 173.903437 
L 118.828288 173.903437 
L 118.828288 157.378537 
L 117.544413 157.378537 
z
" style="fill:#55a868;opacity:0.4;"/>
   </g>
   <g id="patch_140">
    <path clip-path="url(#p5e2811bfd2)" d="M 118.828288 173.903437 
L 120.112164 173.903437 
L 120.112164 156.033487 
L 118.828288 156.033487 
z
" style="fill:#55a868;opacity:0.4;"/>
   </g>
   <g id="patch_141">
    <path clip-path="url(#p5e2811bfd2)" d="M 120.112164 173.903437 
L 121.396039 173.903437 
L 121.396039 156.417787 
L 120.112164 156.417787 
z
" style="fill:#55a868;opacity:0.4;"/>
   </g>
   <g id="patch_142">
    <path clip-path="url(#p5e2811bfd2)" d="M 121.396039 173.903437 
L 122.679915 173.903437 
L 122.679915 156.706012 
L 121.396039 156.706012 
z
" style="fill:#55a868;opacity:0.4;"/>
   </g>
   <g id="patch_143">
    <path clip-path="url(#p5e2811bfd2)" d="M 122.679915 173.903437 
L 123.96379 173.903437 
L 123.96379 154.688437 
L 122.679915 154.688437 
z
" style="fill:#55a868;opacity:0.4;"/>
   </g>
   <g id="patch_144">
    <path clip-path="url(#p5e2811bfd2)" d="M 123.96379 173.903437 
L 125.247666 173.903437 
L 125.247666 155.168812 
L 123.96379 155.168812 
z
" style="fill:#55a868;opacity:0.4;"/>
   </g>
   <g id="patch_145">
    <path clip-path="url(#p5e2811bfd2)" d="M 125.247666 173.903437 
L 126.531541 173.903437 
L 126.531541 155.745262 
L 125.247666 155.745262 
z
" style="fill:#55a868;opacity:0.4;"/>
   </g>
   <g id="patch_146">
    <path clip-path="url(#p5e2811bfd2)" d="M 126.531541 173.903437 
L 127.815417 173.903437 
L 127.815417 153.055162 
L 126.531541 153.055162 
z
" style="fill:#55a868;opacity:0.4;"/>
   </g>
   <g id="patch_147">
    <path clip-path="url(#p5e2811bfd2)" d="M 127.815417 173.903437 
L 129.099293 173.903437 
L 129.099293 152.863012 
L 127.815417 152.863012 
z
" style="fill:#55a868;opacity:0.4;"/>
   </g>
   <g id="patch_148">
    <path clip-path="url(#p5e2811bfd2)" d="M 129.099293 173.903437 
L 130.383168 173.903437 
L 130.383168 153.535537 
L 129.099293 153.535537 
z
" style="fill:#55a868;opacity:0.4;"/>
   </g>
   <g id="patch_149">
    <path clip-path="url(#p5e2811bfd2)" d="M 130.383168 173.903437 
L 131.667044 173.903437 
L 131.667044 155.841337 
L 130.383168 155.841337 
z
" style="fill:#55a868;opacity:0.4;"/>
   </g>
   <g id="patch_150">
    <path clip-path="url(#p5e2811bfd2)" d="M 131.667044 173.903437 
L 132.950919 173.903437 
L 132.950919 155.457037 
L 131.667044 155.457037 
z
" style="fill:#55a868;opacity:0.4;"/>
   </g>
   <g id="patch_151">
    <path clip-path="url(#p5e2811bfd2)" d="M 132.950919 173.903437 
L 134.234795 173.903437 
L 134.234795 154.208062 
L 132.950919 154.208062 
z
" style="fill:#55a868;opacity:0.4;"/>
   </g>
   <g id="patch_152">
    <path clip-path="url(#p5e2811bfd2)" d="M 134.234795 173.903437 
L 135.51867 173.903437 
L 135.51867 153.631612 
L 134.234795 153.631612 
z
" style="fill:#55a868;opacity:0.4;"/>
   </g>
   <g id="patch_153">
    <path clip-path="url(#p5e2811bfd2)" d="M 135.51867 173.903437 
L 136.802546 173.903437 
L 136.802546 155.745262 
L 135.51867 155.745262 
z
" style="fill:#55a868;opacity:0.4;"/>
   </g>
   <g id="patch_154">
    <path clip-path="url(#p5e2811bfd2)" d="M 136.802546 173.903437 
L 138.086421 173.903437 
L 138.086421 154.784512 
L 136.802546 154.784512 
z
" style="fill:#55a868;opacity:0.4;"/>
   </g>
   <g id="patch_155">
    <path clip-path="url(#p5e2811bfd2)" d="M 138.086421 173.903437 
L 139.370297 173.903437 
L 139.370297 155.168812 
L 138.086421 155.168812 
z
" style="fill:#55a868;opacity:0.4;"/>
   </g>
   <g id="patch_156">
    <path clip-path="url(#p5e2811bfd2)" d="M 139.370297 173.903437 
L 140.654172 173.903437 
L 140.654172 155.360962 
L 139.370297 155.360962 
z
" style="fill:#55a868;opacity:0.4;"/>
   </g>
   <g id="patch_157">
    <path clip-path="url(#p5e2811bfd2)" d="M 140.654172 173.903437 
L 141.938048 173.903437 
L 141.938048 155.649187 
L 140.654172 155.649187 
z
" style="fill:#55a868;opacity:0.4;"/>
   </g>
   <g id="patch_158">
    <path clip-path="url(#p5e2811bfd2)" d="M 141.938048 173.903437 
L 143.221923 173.903437 
L 143.221923 156.994237 
L 141.938048 156.994237 
z
" style="fill:#55a868;opacity:0.4;"/>
   </g>
   <g id="patch_159">
    <path clip-path="url(#p5e2811bfd2)" d="M 143.221923 173.903437 
L 144.505799 173.903437 
L 144.505799 156.321712 
L 143.221923 156.321712 
z
" style="fill:#55a868;opacity:0.4;"/>
   </g>
   <g id="patch_160">
    <path clip-path="url(#p5e2811bfd2)" d="M 144.505799 173.903437 
L 145.789675 173.903437 
L 145.789675 154.784512 
L 144.505799 154.784512 
z
" style="fill:#55a868;opacity:0.4;"/>
   </g>
   <g id="patch_161">
    <path clip-path="url(#p5e2811bfd2)" d="M 145.789675 173.903437 
L 147.07355 173.903437 
L 147.07355 154.784512 
L 145.789675 154.784512 
z
" style="fill:#55a868;opacity:0.4;"/>
   </g>
   <g id="patch_162">
    <path clip-path="url(#p5e2811bfd2)" d="M 147.07355 173.903437 
L 148.357426 173.903437 
L 148.357426 156.994237 
L 147.07355 156.994237 
z
" style="fill:#55a868;opacity:0.4;"/>
   </g>
   <g id="patch_163">
    <path clip-path="url(#p5e2811bfd2)" d="M 148.357426 173.903437 
L 149.641301 173.903437 
L 149.641301 156.321712 
L 148.357426 156.321712 
z
" style="fill:#55a868;opacity:0.4;"/>
   </g>
   <g id="patch_164">
    <path clip-path="url(#p5e2811bfd2)" d="M 149.641301 173.903437 
L 150.925177 173.903437 
L 150.925177 159.011812 
L 149.641301 159.011812 
z
" style="fill:#55a868;opacity:0.4;"/>
   </g>
   <g id="patch_165">
    <path clip-path="url(#p5e2811bfd2)" d="M 150.925177 173.903437 
L 152.209052 173.903437 
L 152.209052 155.457037 
L 150.925177 155.457037 
z
" style="fill:#55a868;opacity:0.4;"/>
   </g>
   <g id="patch_166">
    <path clip-path="url(#p5e2811bfd2)" d="M 152.209052 173.903437 
L 153.492928 173.903437 
L 153.492928 160.068637 
L 152.209052 160.068637 
z
" style="fill:#55a868;opacity:0.4;"/>
   </g>
   <g id="patch_167">
    <path clip-path="url(#p5e2811bfd2)" d="M 153.492928 173.903437 
L 154.776803 173.903437 
L 154.776803 158.051062 
L 153.492928 158.051062 
z
" style="fill:#55a868;opacity:0.4;"/>
   </g>
   <g id="patch_168">
    <path clip-path="url(#p5e2811bfd2)" d="M 154.776803 173.903437 
L 156.060679 173.903437 
L 156.060679 159.107887 
L 154.776803 159.107887 
z
" style="fill:#55a868;opacity:0.4;"/>
   </g>
   <g id="patch_169">
    <path clip-path="url(#p5e2811bfd2)" d="M 156.060679 173.903437 
L 157.344554 173.903437 
L 157.344554 158.339287 
L 156.060679 158.339287 
z
" style="fill:#55a868;opacity:0.4;"/>
   </g>
   <g id="patch_170">
    <path clip-path="url(#p5e2811bfd2)" d="M 157.344554 173.903437 
L 158.62843 173.903437 
L 158.62843 159.588262 
L 157.344554 159.588262 
z
" style="fill:#55a868;opacity:0.4;"/>
   </g>
   <g id="patch_171">
    <path clip-path="url(#p5e2811bfd2)" d="M 158.62843 173.903437 
L 159.912305 173.903437 
L 159.912305 160.549012 
L 158.62843 160.549012 
z
" style="fill:#55a868;opacity:0.4;"/>
   </g>
   <g id="patch_172">
    <path clip-path="url(#p5e2811bfd2)" d="M 159.912305 173.903437 
L 161.196181 173.903437 
L 161.196181 161.509762 
L 159.912305 161.509762 
z
" style="fill:#55a868;opacity:0.4;"/>
   </g>
   <g id="patch_173">
    <path clip-path="url(#p5e2811bfd2)" d="M 161.196181 173.903437 
L 162.480056 173.903437 
L 162.480056 160.645087 
L 161.196181 160.645087 
z
" style="fill:#55a868;opacity:0.4;"/>
   </g>
   <g id="patch_174">
    <path clip-path="url(#p5e2811bfd2)" d="M 162.480056 173.903437 
L 163.763932 173.903437 
L 163.763932 162.278362 
L 162.480056 162.278362 
z
" style="fill:#55a868;opacity:0.4;"/>
   </g>
   <g id="patch_175">
    <path clip-path="url(#p5e2811bfd2)" d="M 163.763932 173.903437 
L 165.047808 173.903437 
L 165.047808 162.374437 
L 163.763932 162.374437 
z
" style="fill:#55a868;opacity:0.4;"/>
   </g>
   <g id="patch_176">
    <path clip-path="url(#p5e2811bfd2)" d="M 165.047808 173.903437 
L 166.331683 173.903437 
L 166.331683 164.968462 
L 165.047808 164.968462 
z
" style="fill:#55a868;opacity:0.4;"/>
   </g>
   <g id="patch_177">
    <path clip-path="url(#p5e2811bfd2)" d="M 166.331683 173.903437 
L 167.615559 173.903437 
L 167.615559 164.488087 
L 166.331683 164.488087 
z
" style="fill:#55a868;opacity:0.4;"/>
   </g>
   <g id="patch_178">
    <path clip-path="url(#p5e2811bfd2)" d="M 167.615559 173.903437 
L 168.899434 173.903437 
L 168.899434 164.584162 
L 167.615559 164.584162 
z
" style="fill:#55a868;opacity:0.4;"/>
   </g>
   <g id="patch_179">
    <path clip-path="url(#p5e2811bfd2)" d="M 168.899434 173.903437 
L 170.18331 173.903437 
L 170.18331 164.872387 
L 168.899434 164.872387 
z
" style="fill:#55a868;opacity:0.4;"/>
   </g>
   <g id="patch_180">
    <path clip-path="url(#p5e2811bfd2)" d="M 170.18331 173.903437 
L 171.467185 173.903437 
L 171.467185 167.658562 
L 170.18331 167.658562 
z
" style="fill:#55a868;opacity:0.4;"/>
   </g>
   <g id="patch_181">
    <path clip-path="url(#p5e2811bfd2)" d="M 171.467185 173.903437 
L 172.751061 173.903437 
L 172.751061 167.274262 
L 171.467185 167.274262 
z
" style="fill:#55a868;opacity:0.4;"/>
   </g>
   <g id="patch_182">
    <path clip-path="url(#p5e2811bfd2)" d="M 172.751061 173.903437 
L 174.034936 173.903437 
L 174.034936 167.658562 
L 172.751061 167.658562 
z
" style="fill:#55a868;opacity:0.4;"/>
   </g>
   <g id="patch_183">
    <path clip-path="url(#p5e2811bfd2)" d="M 174.034936 173.903437 
L 175.318812 173.903437 
L 175.318812 169.291837 
L 174.034936 169.291837 
z
" style="fill:#55a868;opacity:0.4;"/>
   </g>
   <g id="patch_184">
    <path clip-path="url(#p5e2811bfd2)" d="M 175.318812 173.903437 
L 176.602687 173.903437 
L 176.602687 168.715387 
L 175.318812 168.715387 
z
" style="fill:#55a868;opacity:0.4;"/>
   </g>
   <g id="patch_185">
    <path clip-path="url(#p5e2811bfd2)" d="M 176.602687 173.903437 
L 177.886563 173.903437 
L 177.886563 169.676137 
L 176.602687 169.676137 
z
" style="fill:#55a868;opacity:0.4;"/>
   </g>
   <g id="patch_186">
    <path clip-path="url(#p5e2811bfd2)" d="M 177.886563 173.903437 
L 179.170438 173.903437 
L 179.170438 169.964362 
L 177.886563 169.964362 
z
" style="fill:#55a868;opacity:0.4;"/>
   </g>
   <g id="patch_187">
    <path clip-path="url(#p5e2811bfd2)" d="M 179.170438 173.903437 
L 180.454314 173.903437 
L 180.454314 170.252587 
L 179.170438 170.252587 
z
" style="fill:#55a868;opacity:0.4;"/>
   </g>
   <g id="patch_188">
    <path clip-path="url(#p5e2811bfd2)" d="M 180.454314 173.903437 
L 181.73819 173.903437 
L 181.73819 170.829037 
L 180.454314 170.829037 
z
" style="fill:#55a868;opacity:0.4;"/>
   </g>
   <g id="patch_189">
    <path clip-path="url(#p5e2811bfd2)" d="M 181.73819 173.903437 
L 183.022065 173.903437 
L 183.022065 171.117262 
L 181.73819 171.117262 
z
" style="fill:#55a868;opacity:0.4;"/>
   </g>
   <g id="patch_190">
    <path clip-path="url(#p5e2811bfd2)" d="M 183.022065 173.903437 
L 184.305941 173.903437 
L 184.305941 171.885862 
L 183.022065 171.885862 
z
" style="fill:#55a868;opacity:0.4;"/>
   </g>
   <g id="patch_191">
    <path clip-path="url(#p5e2811bfd2)" d="M 184.305941 173.903437 
L 185.589816 173.903437 
L 185.589816 171.693712 
L 184.305941 171.693712 
z
" style="fill:#55a868;opacity:0.4;"/>
   </g>
   <g id="patch_192">
    <path clip-path="url(#p5e2811bfd2)" d="M 185.589816 173.903437 
L 186.873692 173.903437 
L 186.873692 172.078012 
L 185.589816 172.078012 
z
" style="fill:#55a868;opacity:0.4;"/>
   </g>
   <g id="patch_193">
    <path clip-path="url(#p5e2811bfd2)" d="M 186.873692 173.903437 
L 188.157567 173.903437 
L 188.157567 172.654462 
L 186.873692 172.654462 
z
" style="fill:#55a868;opacity:0.4;"/>
   </g>
   <g id="patch_194">
    <path clip-path="url(#p5e2811bfd2)" d="M 188.157567 173.903437 
L 189.441443 173.903437 
L 189.441443 173.519137 
L 188.157567 173.519137 
z
" style="fill:#55a868;opacity:0.4;"/>
   </g>
   <g id="patch_195">
    <path clip-path="url(#p5e2811bfd2)" d="M 189.441443 173.903437 
L 190.725318 173.903437 
L 190.725318 173.134837 
L 189.441443 173.134837 
z
" style="fill:#55a868;opacity:0.4;"/>
   </g>
   <g id="patch_196">
    <path clip-path="url(#p5e2811bfd2)" d="M 190.725318 173.903437 
L 192.009194 173.903437 
L 192.009194 173.230912 
L 190.725318 173.230912 
z
" style="fill:#55a868;opacity:0.4;"/>
   </g>
   <g id="patch_197">
    <path clip-path="url(#p5e2811bfd2)" d="M 192.009194 173.903437 
L 193.293069 173.903437 
L 193.293069 173.326987 
L 192.009194 173.326987 
z
" style="fill:#55a868;opacity:0.4;"/>
   </g>
   <g id="patch_198">
    <path clip-path="url(#p5e2811bfd2)" d="M 193.293069 173.903437 
L 194.576945 173.903437 
L 194.576945 173.807362 
L 193.293069 173.807362 
z
" style="fill:#55a868;opacity:0.4;"/>
   </g>
   <g id="patch_199">
    <path clip-path="url(#p5e2811bfd2)" d="M 194.576945 173.903437 
L 195.86082 173.903437 
L 195.86082 173.519137 
L 194.576945 173.519137 
z
" style="fill:#55a868;opacity:0.4;"/>
   </g>
   <g id="patch_200">
    <path clip-path="url(#p5e2811bfd2)" d="M 195.86082 173.903437 
L 197.144696 173.903437 
L 197.144696 173.807362 
L 195.86082 173.807362 
z
" style="fill:#55a868;opacity:0.4;"/>
   </g>
   <g id="patch_201">
    <path clip-path="url(#p5e2811bfd2)" d="M 197.144696 173.903437 
L 198.428571 173.903437 
L 198.428571 173.903437 
L 197.144696 173.903437 
z
" style="fill:#55a868;opacity:0.4;"/>
   </g>
   <g id="patch_202">
    <path clip-path="url(#p5e2811bfd2)" d="M 198.428571 173.903437 
L 199.712447 173.903437 
L 199.712447 173.807362 
L 198.428571 173.807362 
z
" style="fill:#55a868;opacity:0.4;"/>
   </g>
   <g id="patch_203">
    <path d="M 58.189091 173.903437 
L 58.189091 10.823437 
" style="fill:none;"/>
   </g>
   <g id="patch_204">
    <path d="M 210.370909 173.903437 
L 210.370909 10.823437 
" style="fill:none;"/>
   </g>
   <g id="patch_205">
    <path d="M 58.189091 173.903437 
L 210.370909 173.903437 
" style="fill:none;"/>
   </g>
   <g id="patch_206">
    <path d="M 58.189091 10.823437 
L 210.370909 10.823437 
" style="fill:none;"/>
   </g>
   <g id="legend_1">
    <g id="patch_207">
     <path d="M 41.056222 33.569063 
L 69.056222 33.569063 
L 69.056222 23.769063 
L 41.056222 23.769063 
z
" style="fill:#4c72b0;opacity:0.4;"/>
    </g>
    <g id="text_11">
     <!-- High heterogeneity -->
     <defs>
      <path d="M 54.734375 0 
L 54.734375 31.890625 
L 17.53125 31.890625 
L 17.53125 0 
L 8.203125 0 
L 8.203125 68.796875 
L 17.53125 68.796875 
L 17.53125 39.703125 
L 54.734375 39.703125 
L 54.734375 68.796875 
L 64.0625 68.796875 
L 64.0625 0 
z
" id="LiberationSans-72"/>
      <path d="M 26.765625 -20.75 
Q 18.109375 -20.75 12.984375 -17.359375 
Q 7.859375 -13.96875 6.390625 -7.71875 
L 15.234375 -6.453125 
Q 16.109375 -10.109375 19.109375 -12.078125 
Q 22.125 -14.0625 27 -14.0625 
Q 40.140625 -14.0625 40.140625 1.3125 
L 40.140625 9.8125 
L 40.046875 9.8125 
Q 37.546875 4.734375 33.203125 2.171875 
Q 28.859375 -0.390625 23.046875 -0.390625 
Q 13.328125 -0.390625 8.765625 6.046875 
Q 4.203125 12.5 4.203125 26.3125 
Q 4.203125 40.328125 9.109375 46.984375 
Q 14.015625 53.65625 24.03125 53.65625 
Q 29.640625 53.65625 33.765625 51.09375 
Q 37.890625 48.53125 40.140625 43.796875 
L 40.234375 43.796875 
Q 40.234375 45.265625 40.421875 48.875 
Q 40.625 52.484375 40.828125 52.828125 
L 49.171875 52.828125 
Q 48.875 50.203125 48.875 41.890625 
L 48.875 1.515625 
Q 48.875 -20.75 26.765625 -20.75 
z
M 40.140625 26.421875 
Q 40.140625 32.859375 38.375 37.515625 
Q 36.625 42.1875 33.421875 44.65625 
Q 30.21875 47.125 26.171875 47.125 
Q 19.4375 47.125 16.359375 42.234375 
Q 13.28125 37.359375 13.28125 26.421875 
Q 13.28125 15.578125 16.15625 10.84375 
Q 19.046875 6.109375 26.03125 6.109375 
Q 30.171875 6.109375 33.390625 8.546875 
Q 36.625 10.984375 38.375 15.546875 
Q 40.140625 20.125 40.140625 26.421875 
z
" id="LiberationSans-103"/>
      <path d="M 15.484375 43.796875 
Q 18.3125 48.96875 22.28125 51.390625 
Q 26.265625 53.8125 32.375 53.8125 
Q 40.96875 53.8125 45.046875 49.53125 
Q 49.125 45.265625 49.125 35.203125 
L 49.125 0 
L 40.28125 0 
L 40.28125 33.5 
Q 40.28125 39.0625 39.25 41.765625 
Q 38.234375 44.484375 35.890625 45.75 
Q 33.546875 47.015625 29.390625 47.015625 
Q 23.1875 47.015625 19.453125 42.71875 
Q 15.71875 38.421875 15.71875 31.15625 
L 15.71875 0 
L 6.9375 0 
L 6.9375 72.46875 
L 15.71875 72.46875 
L 15.71875 53.609375 
Q 15.71875 50.640625 15.546875 47.453125 
Q 15.375 44.28125 15.328125 43.796875 
z
" id="LiberationSans-104"/>
     </defs>
     <g style="fill:#262626;" transform="translate(80.256222 33.569063)scale(0.14 -0.14)">
      <use xlink:href="#LiberationSans-72"/>
      <use x="72.216797" xlink:href="#LiberationSans-105"/>
      <use x="94.433594" xlink:href="#LiberationSans-103"/>
      <use x="150.048828" xlink:href="#LiberationSans-104"/>
      <use x="205.664062" xlink:href="#LiberationSans-32"/>
      <use x="233.447266" xlink:href="#LiberationSans-104"/>
      <use x="289.0625" xlink:href="#LiberationSans-101"/>
      <use x="344.677734" xlink:href="#LiberationSans-116"/>
      <use x="372.460938" xlink:href="#LiberationSans-101"/>
      <use x="428.076172" xlink:href="#LiberationSans-114"/>
      <use x="461.376953" xlink:href="#LiberationSans-111"/>
      <use x="516.992188" xlink:href="#LiberationSans-103"/>
      <use x="572.607422" xlink:href="#LiberationSans-101"/>
      <use x="628.222656" xlink:href="#LiberationSans-110"/>
      <use x="683.837891" xlink:href="#LiberationSans-101"/>
      <use x="739.453125" xlink:href="#LiberationSans-105"/>
      <use x="761.669922" xlink:href="#LiberationSans-116"/>
      <use x="789.453125" xlink:href="#LiberationSans-121"/>
     </g>
    </g>
    <g id="patch_208">
     <path d="M 41.056222 53.619687 
L 69.056222 53.619687 
L 69.056222 43.819688 
L 41.056222 43.819688 
z
" style="fill:#55a868;opacity:0.4;"/>
    </g>
    <g id="text_12">
     <!-- Low heterogeneity -->
     <defs>
      <path d="M 8.203125 0 
L 8.203125 68.796875 
L 17.53125 68.796875 
L 17.53125 7.625 
L 52.296875 7.625 
L 52.296875 0 
z
" id="LiberationSans-76"/>
      <path d="M 57.328125 0 
L 47.125 0 
L 37.890625 37.359375 
L 36.140625 45.609375 
Q 35.6875 43.40625 34.765625 39.28125 
Q 33.84375 35.15625 24.8125 0 
L 14.65625 0 
L -0.140625 52.828125 
L 8.546875 52.828125 
L 17.484375 16.9375 
Q 17.828125 15.765625 19.578125 7.28125 
L 20.40625 10.890625 
L 31.453125 52.828125 
L 40.875 52.828125 
L 50.09375 16.546875 
L 52.34375 7.28125 
L 53.859375 14.0625 
L 63.875 52.828125 
L 72.46875 52.828125 
z
" id="LiberationSans-119"/>
     </defs>
     <g style="fill:#262626;" transform="translate(80.256222 53.619687)scale(0.14 -0.14)">
      <use xlink:href="#LiberationSans-76"/>
      <use x="55.615234" xlink:href="#LiberationSans-111"/>
      <use x="111.230469" xlink:href="#LiberationSans-119"/>
      <use x="183.447266" xlink:href="#LiberationSans-32"/>
      <use x="211.230469" xlink:href="#LiberationSans-104"/>
      <use x="266.845703" xlink:href="#LiberationSans-101"/>
      <use x="322.460938" xlink:href="#LiberationSans-116"/>
      <use x="350.244141" xlink:href="#LiberationSans-101"/>
      <use x="405.859375" xlink:href="#LiberationSans-114"/>
      <use x="439.160156" xlink:href="#LiberationSans-111"/>
      <use x="494.775391" xlink:href="#LiberationSans-103"/>
      <use x="550.390625" xlink:href="#LiberationSans-101"/>
      <use x="606.005859" xlink:href="#LiberationSans-110"/>
      <use x="661.621094" xlink:href="#LiberationSans-101"/>
      <use x="717.236328" xlink:href="#LiberationSans-105"/>
      <use x="739.453125" xlink:href="#LiberationSans-116"/>
      <use x="767.236328" xlink:href="#LiberationSans-121"/>
     </g>
    </g>
   </g>
  </g>
  <g id="axes_2">
   <g id="patch_209">
    <path d="M 240.807273 173.903437 
L 392.989091 173.903437 
L 392.989091 10.823437 
L 240.807273 10.823437 
z
" style="fill:#eaeaf2;"/>
   </g>
   <g id="matplotlib.axis_3">
    <g id="xtick_4">
     <g id="line2d_17">
      <path clip-path="url(#pc390c07a88)" d="M 240.807273 173.903437 
L 240.807273 10.823437 
" style="fill:none;stroke:#ffffff;stroke-linecap:round;"/>
     </g>
     <g id="line2d_18"/>
     <g id="text_13">
      <!-- 0.0 -->
      <g style="fill:#262626;" transform="translate(233.857273 188.150312)scale(0.1 -0.1)">
       <use xlink:href="#LiberationSans-48"/>
       <use x="55.615234" xlink:href="#LiberationSans-46"/>
       <use x="83.398438" xlink:href="#LiberationSans-48"/>
      </g>
     </g>
    </g>
    <g id="xtick_5">
     <g id="line2d_19">
      <path clip-path="url(#pc390c07a88)" d="M 271.243636 173.903437 
L 271.243636 10.823437 
" style="fill:none;stroke:#ffffff;stroke-linecap:round;"/>
     </g>
     <g id="line2d_20"/>
     <g id="text_14">
      <!-- 0.2 -->
      <g style="fill:#262626;" transform="translate(264.293636 188.150312)scale(0.1 -0.1)">
       <use xlink:href="#LiberationSans-48"/>
       <use x="55.615234" xlink:href="#LiberationSans-46"/>
       <use x="83.398438" xlink:href="#LiberationSans-50"/>
      </g>
     </g>
    </g>
    <g id="xtick_6">
     <g id="line2d_21">
      <path clip-path="url(#pc390c07a88)" d="M 301.68 173.903437 
L 301.68 10.823437 
" style="fill:none;stroke:#ffffff;stroke-linecap:round;"/>
     </g>
     <g id="line2d_22"/>
     <g id="text_15">
      <!-- 0.4 -->
      <defs>
       <path d="M 43.015625 15.578125 
L 43.015625 0 
L 34.71875 0 
L 34.71875 15.578125 
L 2.296875 15.578125 
L 2.296875 22.40625 
L 33.796875 68.796875 
L 43.015625 68.796875 
L 43.015625 22.515625 
L 52.6875 22.515625 
L 52.6875 15.578125 
z
M 34.71875 58.890625 
Q 34.625 58.59375 33.34375 56.296875 
Q 32.078125 54 31.453125 53.078125 
L 13.8125 27.09375 
L 11.1875 23.484375 
L 10.40625 22.515625 
L 34.71875 22.515625 
z
" id="LiberationSans-52"/>
      </defs>
      <g style="fill:#262626;" transform="translate(294.73 188.150312)scale(0.1 -0.1)">
       <use xlink:href="#LiberationSans-48"/>
       <use x="55.615234" xlink:href="#LiberationSans-46"/>
       <use x="83.398438" xlink:href="#LiberationSans-52"/>
      </g>
     </g>
    </g>
    <g id="xtick_7">
     <g id="line2d_23">
      <path clip-path="url(#pc390c07a88)" d="M 332.116364 173.903437 
L 332.116364 10.823437 
" style="fill:none;stroke:#ffffff;stroke-linecap:round;"/>
     </g>
     <g id="line2d_24"/>
     <g id="text_16">
      <!-- 0.6 -->
      <defs>
       <path d="M 51.21875 22.515625 
Q 51.21875 11.625 45.3125 5.3125 
Q 39.40625 -0.984375 29 -0.984375 
Q 17.390625 -0.984375 11.234375 7.65625 
Q 5.078125 16.3125 5.078125 32.8125 
Q 5.078125 50.6875 11.46875 60.25 
Q 17.875 69.828125 29.6875 69.828125 
Q 45.265625 69.828125 49.3125 55.8125 
L 40.921875 54.296875 
Q 38.328125 62.703125 29.59375 62.703125 
Q 22.078125 62.703125 17.9375 55.6875 
Q 13.8125 48.6875 13.8125 35.40625 
Q 16.21875 39.84375 20.5625 42.15625 
Q 24.90625 44.484375 30.515625 44.484375 
Q 40.046875 44.484375 45.625 38.515625 
Q 51.21875 32.5625 51.21875 22.515625 
z
M 42.28125 22.125 
Q 42.28125 29.59375 38.625 33.640625 
Q 34.96875 37.703125 28.421875 37.703125 
Q 22.265625 37.703125 18.484375 34.109375 
Q 14.703125 30.515625 14.703125 24.21875 
Q 14.703125 16.265625 18.625 11.1875 
Q 22.5625 6.109375 28.71875 6.109375 
Q 35.0625 6.109375 38.671875 10.375 
Q 42.28125 14.65625 42.28125 22.125 
z
" id="LiberationSans-54"/>
      </defs>
      <g style="fill:#262626;" transform="translate(325.166364 188.150312)scale(0.1 -0.1)">
       <use xlink:href="#LiberationSans-48"/>
       <use x="55.615234" xlink:href="#LiberationSans-46"/>
       <use x="83.398438" xlink:href="#LiberationSans-54"/>
      </g>
     </g>
    </g>
    <g id="xtick_8">
     <g id="line2d_25">
      <path clip-path="url(#pc390c07a88)" d="M 362.552727 173.903437 
L 362.552727 10.823437 
" style="fill:none;stroke:#ffffff;stroke-linecap:round;"/>
     </g>
     <g id="line2d_26"/>
     <g id="text_17">
      <!-- 0.8 -->
      <defs>
       <path d="M 51.265625 19.1875 
Q 51.265625 9.671875 45.203125 4.34375 
Q 39.15625 -0.984375 27.828125 -0.984375 
Q 16.796875 -0.984375 10.5625 4.234375 
Q 4.34375 9.46875 4.34375 19.09375 
Q 4.34375 25.828125 8.203125 30.421875 
Q 12.0625 35.015625 18.0625 35.984375 
L 18.0625 36.1875 
Q 12.453125 37.5 9.203125 41.890625 
Q 5.953125 46.296875 5.953125 52.203125 
Q 5.953125 60.0625 11.828125 64.9375 
Q 17.71875 69.828125 27.640625 69.828125 
Q 37.796875 69.828125 43.671875 65.03125 
Q 49.5625 60.25 49.5625 52.09375 
Q 49.5625 46.1875 46.28125 41.796875 
Q 43.015625 37.40625 37.359375 36.28125 
L 37.359375 36.078125 
Q 43.953125 35.015625 47.609375 30.5 
Q 51.265625 25.984375 51.265625 19.1875 
z
M 40.4375 51.609375 
Q 40.4375 63.28125 27.640625 63.28125 
Q 21.4375 63.28125 18.1875 60.34375 
Q 14.9375 57.421875 14.9375 51.609375 
Q 14.9375 45.703125 18.28125 42.59375 
Q 21.625 39.5 27.734375 39.5 
Q 33.9375 39.5 37.1875 42.359375 
Q 40.4375 45.21875 40.4375 51.609375 
z
M 42.140625 20.015625 
Q 42.140625 26.421875 38.328125 29.65625 
Q 34.515625 32.90625 27.640625 32.90625 
Q 20.953125 32.90625 17.1875 29.40625 
Q 13.421875 25.921875 13.421875 19.828125 
Q 13.421875 5.609375 27.9375 5.609375 
Q 35.109375 5.609375 38.625 9.046875 
Q 42.140625 12.5 42.140625 20.015625 
z
" id="LiberationSans-56"/>
      </defs>
      <g style="fill:#262626;" transform="translate(355.602727 188.150312)scale(0.1 -0.1)">
       <use xlink:href="#LiberationSans-48"/>
       <use x="55.615234" xlink:href="#LiberationSans-46"/>
       <use x="83.398438" xlink:href="#LiberationSans-56"/>
      </g>
     </g>
    </g>
    <g id="xtick_9">
     <g id="line2d_27">
      <path clip-path="url(#pc390c07a88)" d="M 392.989091 173.903437 
L 392.989091 10.823437 
" style="fill:none;stroke:#ffffff;stroke-linecap:round;"/>
     </g>
     <g id="line2d_28"/>
     <g id="text_18">
      <!-- 1.0 -->
      <g style="fill:#262626;" transform="translate(386.039091 188.150312)scale(0.1 -0.1)">
       <use xlink:href="#LiberationSans-49"/>
       <use x="55.615234" xlink:href="#LiberationSans-46"/>
       <use x="83.398438" xlink:href="#LiberationSans-48"/>
      </g>
     </g>
    </g>
   </g>
   <g id="matplotlib.axis_4">
    <g id="ytick_6">
     <g id="line2d_29">
      <path clip-path="url(#pc390c07a88)" d="M 240.807273 173.903437 
L 392.989091 173.903437 
" style="fill:none;stroke:#ffffff;stroke-linecap:round;"/>
     </g>
     <g id="line2d_30"/>
     <g id="text_19">
      <!-- 0.0 -->
      <g style="fill:#262626;" transform="translate(219.907273 177.526875)scale(0.1 -0.1)">
       <use xlink:href="#LiberationSans-48"/>
       <use x="55.615234" xlink:href="#LiberationSans-46"/>
       <use x="83.398438" xlink:href="#LiberationSans-48"/>
      </g>
     </g>
    </g>
    <g id="ytick_7">
     <g id="line2d_31">
      <path clip-path="url(#pc390c07a88)" d="M 240.807273 141.287437 
L 392.989091 141.287437 
" style="fill:none;stroke:#ffffff;stroke-linecap:round;"/>
     </g>
     <g id="line2d_32"/>
     <g id="text_20">
      <!-- 0.2 -->
      <g style="fill:#262626;" transform="translate(219.907273 144.910875)scale(0.1 -0.1)">
       <use xlink:href="#LiberationSans-48"/>
       <use x="55.615234" xlink:href="#LiberationSans-46"/>
       <use x="83.398438" xlink:href="#LiberationSans-50"/>
      </g>
     </g>
    </g>
    <g id="ytick_8">
     <g id="line2d_33">
      <path clip-path="url(#pc390c07a88)" d="M 240.807273 108.671437 
L 392.989091 108.671437 
" style="fill:none;stroke:#ffffff;stroke-linecap:round;"/>
     </g>
     <g id="line2d_34"/>
     <g id="text_21">
      <!-- 0.4 -->
      <g style="fill:#262626;" transform="translate(219.907273 112.294875)scale(0.1 -0.1)">
       <use xlink:href="#LiberationSans-48"/>
       <use x="55.615234" xlink:href="#LiberationSans-46"/>
       <use x="83.398438" xlink:href="#LiberationSans-52"/>
      </g>
     </g>
    </g>
    <g id="ytick_9">
     <g id="line2d_35">
      <path clip-path="url(#pc390c07a88)" d="M 240.807273 76.055437 
L 392.989091 76.055437 
" style="fill:none;stroke:#ffffff;stroke-linecap:round;"/>
     </g>
     <g id="line2d_36"/>
     <g id="text_22">
      <!-- 0.6 -->
      <g style="fill:#262626;" transform="translate(219.907273 79.678875)scale(0.1 -0.1)">
       <use xlink:href="#LiberationSans-48"/>
       <use x="55.615234" xlink:href="#LiberationSans-46"/>
       <use x="83.398438" xlink:href="#LiberationSans-54"/>
      </g>
     </g>
    </g>
    <g id="ytick_10">
     <g id="line2d_37">
      <path clip-path="url(#pc390c07a88)" d="M 240.807273 43.439437 
L 392.989091 43.439437 
" style="fill:none;stroke:#ffffff;stroke-linecap:round;"/>
     </g>
     <g id="line2d_38"/>
     <g id="text_23">
      <!-- 0.8 -->
      <g style="fill:#262626;" transform="translate(219.907273 47.062875)scale(0.1 -0.1)">
       <use xlink:href="#LiberationSans-48"/>
       <use x="55.615234" xlink:href="#LiberationSans-46"/>
       <use x="83.398438" xlink:href="#LiberationSans-56"/>
      </g>
     </g>
    </g>
    <g id="ytick_11">
     <g id="line2d_39">
      <path clip-path="url(#pc390c07a88)" d="M 240.807273 10.823437 
L 392.989091 10.823437 
" style="fill:none;stroke:#ffffff;stroke-linecap:round;"/>
     </g>
     <g id="line2d_40"/>
     <g id="text_24">
      <!-- 1.0 -->
      <g style="fill:#262626;" transform="translate(219.907273 14.446875)scale(0.1 -0.1)">
       <use xlink:href="#LiberationSans-49"/>
       <use x="55.615234" xlink:href="#LiberationSans-46"/>
       <use x="83.398438" xlink:href="#LiberationSans-48"/>
      </g>
     </g>
    </g>
   </g>
   <g id="patch_210">
    <path d="M 240.807273 173.903437 
L 240.807273 10.823437 
" style="fill:none;"/>
   </g>
   <g id="patch_211">
    <path d="M 392.989091 173.903437 
L 392.989091 10.823437 
" style="fill:none;"/>
   </g>
   <g id="patch_212">
    <path d="M 240.807273 173.903437 
L 392.989091 173.903437 
" style="fill:none;"/>
   </g>
   <g id="patch_213">
    <path d="M 240.807273 10.823437 
L 392.989091 10.823437 
" style="fill:none;"/>
   </g>
  </g>
 </g>
 <defs>
  <clipPath id="p5e2811bfd2">
   <rect height="163.08" width="152.181818" x="58.189091" y="10.823437"/>
  </clipPath>
  <clipPath id="pc390c07a88">
   <rect height="163.08" width="152.181818" x="240.807273" y="10.823437"/>
  </clipPath>
 </defs>
</svg>
