<?xml version="1.0" encoding="utf-8" standalone="no"?>
<!DOCTYPE svg PUBLIC "-//W3C//DTD SVG 1.1//EN"
  "http://www.w3.org/Graphics/SVG/1.1/DTD/svg11.dtd">
<!-- Created with matplotlib (https://matplotlib.org/) -->
<svg height="243.810625pt" version="1.1" viewBox="0 0 712.994687 243.810625" width="712.994687pt" xmlns="http://www.w3.org/2000/svg" xmlns:xlink="http://www.w3.org/1999/xlink">
 <defs>
  <style type="text/css">
*{stroke-linecap:butt;stroke-linejoin:round;}
  </style>
 </defs>
 <g id="figure_1">
  <g id="patch_1">
   <path d="M 0 243.810625 
L 712.994687 243.810625 
L 712.994687 0 
L 0 0 
z
" style="fill:#ffffff;"/>
  </g>
  <g id="axes_1">
   <g id="patch_2">
    <path d="M 62.224688 195.1 
L 351.033659 195.1 
L 351.033659 26.34 
L 62.224688 26.34 
z
" style="fill:#eaeaf2;"/>
   </g>
   <g id="matplotlib.axis_1">
    <g id="xtick_1">
     <g id="line2d_1">
      <path clip-path="url(#p5260a960be)" d="M 75.352368 195.1 
L 75.352368 26.34 
" style="fill:none;stroke:#ffffff;stroke-linecap:round;"/>
     </g>
     <g id="line2d_2"/>
     <g id="text_1">
      <!-- 0 -->
      <defs>
       <path d="M 51.703125 34.421875 
Q 51.703125 17.1875 45.625 8.09375 
Q 39.546875 -0.984375 27.6875 -0.984375 
Q 15.828125 -0.984375 9.859375 8.046875 
Q 3.90625 17.09375 3.90625 34.421875 
Q 3.90625 52.15625 9.6875 60.984375 
Q 15.484375 69.828125 27.984375 69.828125 
Q 40.140625 69.828125 45.921875 60.890625 
Q 51.703125 51.953125 51.703125 34.421875 
z
M 42.78125 34.421875 
Q 42.78125 49.3125 39.328125 56 
Q 35.890625 62.703125 27.984375 62.703125 
Q 19.875 62.703125 16.328125 56.109375 
Q 12.796875 49.515625 12.796875 34.421875 
Q 12.796875 19.78125 16.375 12.984375 
Q 19.96875 6.203125 27.78125 6.203125 
Q 35.546875 6.203125 39.15625 13.125 
Q 42.78125 20.0625 42.78125 34.421875 
z
" id="LiberationSans-48"/>
      </defs>
      <g style="fill:#262626;" transform="translate(71.459712 212.245625)scale(0.14 -0.14)">
       <use xlink:href="#LiberationSans-48"/>
      </g>
     </g>
    </g>
    <g id="xtick_2">
     <g id="line2d_3">
      <path clip-path="url(#p5260a960be)" d="M 165.888096 195.1 
L 165.888096 26.34 
" style="fill:none;stroke:#ffffff;stroke-linecap:round;"/>
     </g>
     <g id="line2d_4"/>
     <g id="text_2">
      <!-- 100 -->
      <defs>
       <path d="M 7.625 0 
L 7.625 7.46875 
L 25.140625 7.46875 
L 25.140625 60.40625 
L 9.625 49.3125 
L 9.625 57.625 
L 25.875 68.796875 
L 33.984375 68.796875 
L 33.984375 7.46875 
L 50.734375 7.46875 
L 50.734375 0 
z
" id="LiberationSans-49"/>
      </defs>
      <g style="fill:#262626;" transform="translate(154.210127 212.245625)scale(0.14 -0.14)">
       <use xlink:href="#LiberationSans-49"/>
       <use x="55.615234" xlink:href="#LiberationSans-48"/>
       <use x="111.230469" xlink:href="#LiberationSans-48"/>
      </g>
     </g>
    </g>
    <g id="xtick_3">
     <g id="line2d_5">
      <path clip-path="url(#p5260a960be)" d="M 256.423823 195.1 
L 256.423823 26.34 
" style="fill:none;stroke:#ffffff;stroke-linecap:round;"/>
     </g>
     <g id="line2d_6"/>
     <g id="text_3">
      <!-- 200 -->
      <defs>
       <path d="M 5.03125 0 
L 5.03125 6.203125 
Q 7.515625 11.921875 11.109375 16.28125 
Q 14.703125 20.65625 18.65625 24.1875 
Q 22.609375 27.734375 26.484375 30.765625 
Q 30.375 33.796875 33.5 36.8125 
Q 36.625 39.84375 38.546875 43.15625 
Q 40.484375 46.484375 40.484375 50.6875 
Q 40.484375 56.34375 37.15625 59.46875 
Q 33.84375 62.59375 27.9375 62.59375 
Q 22.3125 62.59375 18.671875 59.546875 
Q 15.046875 56.5 14.40625 50.984375 
L 5.421875 51.8125 
Q 6.390625 60.0625 12.421875 64.9375 
Q 18.453125 69.828125 27.9375 69.828125 
Q 38.328125 69.828125 43.921875 64.921875 
Q 49.515625 60.015625 49.515625 50.984375 
Q 49.515625 46.96875 47.671875 43.015625 
Q 45.84375 39.0625 42.234375 35.109375 
Q 38.625 31.15625 28.421875 22.859375 
Q 22.796875 18.265625 19.46875 14.578125 
Q 16.15625 10.890625 14.703125 7.46875 
L 50.59375 7.46875 
L 50.59375 0 
z
" id="LiberationSans-50"/>
      </defs>
      <g style="fill:#262626;" transform="translate(244.745855 212.245625)scale(0.14 -0.14)">
       <use xlink:href="#LiberationSans-50"/>
       <use x="55.615234" xlink:href="#LiberationSans-48"/>
       <use x="111.230469" xlink:href="#LiberationSans-48"/>
      </g>
     </g>
    </g>
    <g id="xtick_4">
     <g id="line2d_7">
      <path clip-path="url(#p5260a960be)" d="M 346.959551 195.1 
L 346.959551 26.34 
" style="fill:none;stroke:#ffffff;stroke-linecap:round;"/>
     </g>
     <g id="line2d_8"/>
     <g id="text_4">
      <!-- 300 -->
      <defs>
       <path d="M 51.21875 19 
Q 51.21875 9.46875 45.15625 4.234375 
Q 39.109375 -0.984375 27.875 -0.984375 
Q 17.4375 -0.984375 11.203125 3.734375 
Q 4.984375 8.453125 3.8125 17.671875 
L 12.890625 18.5 
Q 14.65625 6.296875 27.875 6.296875 
Q 34.515625 6.296875 38.296875 9.5625 
Q 42.09375 12.84375 42.09375 19.28125 
Q 42.09375 24.90625 37.765625 28.046875 
Q 33.453125 31.203125 25.296875 31.203125 
L 20.3125 31.203125 
L 20.3125 38.8125 
L 25.09375 38.8125 
Q 32.328125 38.8125 36.296875 41.96875 
Q 40.28125 45.125 40.28125 50.6875 
Q 40.28125 56.203125 37.03125 59.390625 
Q 33.796875 62.59375 27.390625 62.59375 
Q 21.578125 62.59375 17.984375 59.609375 
Q 14.40625 56.640625 13.8125 51.21875 
L 4.984375 51.90625 
Q 5.953125 60.359375 11.984375 65.09375 
Q 18.015625 69.828125 27.484375 69.828125 
Q 37.84375 69.828125 43.578125 65.015625 
Q 49.3125 60.203125 49.3125 51.609375 
Q 49.3125 45.015625 45.625 40.890625 
Q 41.9375 36.765625 34.90625 35.296875 
L 34.90625 35.109375 
Q 42.625 34.28125 46.921875 29.9375 
Q 51.21875 25.59375 51.21875 19 
z
" id="LiberationSans-51"/>
      </defs>
      <g style="fill:#262626;" transform="translate(335.281582 212.245625)scale(0.14 -0.14)">
       <use xlink:href="#LiberationSans-51"/>
       <use x="55.615234" xlink:href="#LiberationSans-48"/>
       <use x="111.230469" xlink:href="#LiberationSans-48"/>
      </g>
     </g>
    </g>
    <g id="text_5">
     <!-- Visits per person (group size, $T_i$) -->
     <defs>
      <path d="M 38.1875 0 
L 28.515625 0 
L 0.4375 68.796875 
L 10.25 68.796875 
L 29.296875 20.359375 
L 33.40625 8.203125 
L 37.5 20.359375 
L 56.453125 68.796875 
L 66.265625 68.796875 
z
" id="LiberationSans-86"/>
      <path d="M 6.6875 64.0625 
L 6.6875 72.46875 
L 15.484375 72.46875 
L 15.484375 64.0625 
z
M 6.6875 0 
L 6.6875 52.828125 
L 15.484375 52.828125 
L 15.484375 0 
z
" id="LiberationSans-105"/>
      <path d="M 46.390625 14.59375 
Q 46.390625 7.125 40.75 3.0625 
Q 35.109375 -0.984375 24.953125 -0.984375 
Q 15.09375 -0.984375 9.734375 2.265625 
Q 4.390625 5.515625 2.78125 12.40625 
L 10.546875 13.921875 
Q 11.671875 9.671875 15.1875 7.6875 
Q 18.703125 5.71875 24.953125 5.71875 
Q 31.640625 5.71875 34.734375 7.765625 
Q 37.84375 9.8125 37.84375 13.921875 
Q 37.84375 17.046875 35.6875 19 
Q 33.546875 20.953125 28.765625 22.21875 
L 22.46875 23.875 
Q 14.890625 25.828125 11.6875 27.703125 
Q 8.5 29.59375 6.6875 32.28125 
Q 4.890625 34.96875 4.890625 38.875 
Q 4.890625 46.09375 10.03125 49.875 
Q 15.1875 53.65625 25.046875 53.65625 
Q 33.796875 53.65625 38.9375 50.578125 
Q 44.09375 47.515625 45.453125 40.71875 
L 37.546875 39.75 
Q 36.8125 43.265625 33.609375 45.140625 
Q 30.421875 47.015625 25.046875 47.015625 
Q 19.09375 47.015625 16.25 45.203125 
Q 13.421875 43.40625 13.421875 39.75 
Q 13.421875 37.5 14.59375 36.03125 
Q 15.765625 34.578125 18.0625 33.546875 
Q 20.359375 32.515625 27.734375 30.71875 
Q 34.71875 28.953125 37.796875 27.46875 
Q 40.875 25.984375 42.65625 24.171875 
Q 44.4375 22.359375 45.40625 19.984375 
Q 46.390625 17.625 46.390625 14.59375 
z
" id="LiberationSans-115"/>
      <path d="M 27.046875 0.390625 
Q 22.703125 -0.78125 18.171875 -0.78125 
Q 7.625 -0.78125 7.625 11.1875 
L 7.625 46.4375 
L 1.515625 46.4375 
L 1.515625 52.828125 
L 7.953125 52.828125 
L 10.546875 64.65625 
L 16.40625 64.65625 
L 16.40625 52.828125 
L 26.171875 52.828125 
L 26.171875 46.4375 
L 16.40625 46.4375 
L 16.40625 13.09375 
Q 16.40625 9.28125 17.640625 7.734375 
Q 18.890625 6.203125 21.96875 6.203125 
Q 23.734375 6.203125 27.046875 6.890625 
z
" id="LiberationSans-116"/>
      <path id="LiberationSans-32"/>
      <path d="M 51.421875 26.65625 
Q 51.421875 -0.984375 31.984375 -0.984375 
Q 19.78125 -0.984375 15.578125 8.203125 
L 15.328125 8.203125 
Q 15.53125 7.8125 15.53125 -0.09375 
L 15.53125 -20.75 
L 6.734375 -20.75 
L 6.734375 42.046875 
Q 6.734375 50.203125 6.453125 52.828125 
L 14.9375 52.828125 
Q 14.984375 52.640625 15.078125 51.4375 
Q 15.1875 50.25 15.3125 47.75 
Q 15.4375 45.265625 15.4375 44.34375 
L 15.625 44.34375 
Q 17.96875 49.21875 21.828125 51.484375 
Q 25.6875 53.765625 31.984375 53.765625 
Q 41.75 53.765625 46.578125 47.21875 
Q 51.421875 40.671875 51.421875 26.65625 
z
M 42.1875 26.46875 
Q 42.1875 37.5 39.203125 42.234375 
Q 36.234375 46.96875 29.734375 46.96875 
Q 24.515625 46.96875 21.5625 44.765625 
Q 18.609375 42.578125 17.0625 37.90625 
Q 15.53125 33.25 15.53125 25.78125 
Q 15.53125 15.375 18.84375 10.4375 
Q 22.171875 5.515625 29.640625 5.515625 
Q 36.1875 5.515625 39.1875 10.328125 
Q 42.1875 15.140625 42.1875 26.46875 
z
" id="LiberationSans-112"/>
      <path d="M 13.484375 24.5625 
Q 13.484375 15.484375 17.234375 10.546875 
Q 21 5.609375 28.21875 5.609375 
Q 33.9375 5.609375 37.375 7.90625 
Q 40.828125 10.203125 42.046875 13.71875 
L 49.75 11.53125 
Q 45.015625 -0.984375 28.21875 -0.984375 
Q 16.5 -0.984375 10.375 6 
Q 4.25 12.984375 4.25 26.765625 
Q 4.25 39.84375 10.375 46.828125 
Q 16.5 53.8125 27.875 53.8125 
Q 51.171875 53.8125 51.171875 25.734375 
L 51.171875 24.5625 
z
M 42.09375 31.296875 
Q 41.359375 39.65625 37.84375 43.484375 
Q 34.328125 47.3125 27.734375 47.3125 
Q 21.34375 47.3125 17.609375 43.03125 
Q 13.875 38.765625 13.578125 31.296875 
z
" id="LiberationSans-101"/>
      <path d="M 6.9375 0 
L 6.9375 40.53125 
Q 6.9375 46.09375 6.640625 52.828125 
L 14.9375 52.828125 
Q 15.328125 43.84375 15.328125 42.046875 
L 15.53125 42.046875 
Q 17.625 48.828125 20.359375 51.3125 
Q 23.09375 53.8125 28.078125 53.8125 
Q 29.828125 53.8125 31.640625 53.328125 
L 31.640625 45.265625 
Q 29.890625 45.75 26.953125 45.75 
Q 21.484375 45.75 18.59375 41.03125 
Q 15.71875 36.328125 15.71875 27.546875 
L 15.71875 0 
z
" id="LiberationSans-114"/>
      <path d="M 51.421875 26.46875 
Q 51.421875 12.59375 45.3125 5.796875 
Q 39.203125 -0.984375 27.59375 -0.984375 
Q 16.015625 -0.984375 10.109375 6.078125 
Q 4.203125 13.140625 4.203125 26.46875 
Q 4.203125 53.8125 27.875 53.8125 
Q 39.984375 53.8125 45.703125 47.140625 
Q 51.421875 40.484375 51.421875 26.46875 
z
M 42.1875 26.46875 
Q 42.1875 37.40625 38.9375 42.359375 
Q 35.6875 47.3125 28.03125 47.3125 
Q 20.3125 47.3125 16.859375 42.25 
Q 13.421875 37.203125 13.421875 26.46875 
Q 13.421875 16.015625 16.8125 10.765625 
Q 20.21875 5.515625 27.484375 5.515625 
Q 35.40625 5.515625 38.796875 10.59375 
Q 42.1875 15.671875 42.1875 26.46875 
z
" id="LiberationSans-111"/>
      <path d="M 40.28125 0 
L 40.28125 33.5 
Q 40.28125 38.71875 39.25 41.59375 
Q 38.234375 44.484375 35.984375 45.75 
Q 33.734375 47.015625 29.390625 47.015625 
Q 23.046875 47.015625 19.375 42.671875 
Q 15.71875 38.328125 15.71875 30.609375 
L 15.71875 0 
L 6.9375 0 
L 6.9375 41.546875 
Q 6.9375 50.78125 6.640625 52.828125 
L 14.9375 52.828125 
Q 14.984375 52.59375 15.03125 51.515625 
Q 15.09375 50.4375 15.15625 49.046875 
Q 15.234375 47.65625 15.328125 43.796875 
L 15.484375 43.796875 
Q 18.5 49.265625 22.484375 51.53125 
Q 26.46875 53.8125 32.375 53.8125 
Q 41.0625 53.8125 45.09375 49.484375 
Q 49.125 45.171875 49.125 35.203125 
L 49.125 0 
z
" id="LiberationSans-110"/>
      <path d="M 6.203125 25.984375 
Q 6.203125 40.09375 10.625 51.3125 
Q 15.046875 62.546875 24.21875 72.46875 
L 32.71875 72.46875 
Q 23.578125 62.3125 19.3125 50.875 
Q 15.046875 39.453125 15.046875 25.875 
Q 15.046875 12.359375 19.265625 0.96875 
Q 23.484375 -10.40625 32.71875 -20.703125 
L 24.21875 -20.703125 
Q 14.984375 -10.75 10.59375 0.5 
Q 6.203125 11.765625 6.203125 25.78125 
z
" id="LiberationSans-40"/>
      <path d="M 26.765625 -20.75 
Q 18.109375 -20.75 12.984375 -17.359375 
Q 7.859375 -13.96875 6.390625 -7.71875 
L 15.234375 -6.453125 
Q 16.109375 -10.109375 19.109375 -12.078125 
Q 22.125 -14.0625 27 -14.0625 
Q 40.140625 -14.0625 40.140625 1.3125 
L 40.140625 9.8125 
L 40.046875 9.8125 
Q 37.546875 4.734375 33.203125 2.171875 
Q 28.859375 -0.390625 23.046875 -0.390625 
Q 13.328125 -0.390625 8.765625 6.046875 
Q 4.203125 12.5 4.203125 26.3125 
Q 4.203125 40.328125 9.109375 46.984375 
Q 14.015625 53.65625 24.03125 53.65625 
Q 29.640625 53.65625 33.765625 51.09375 
Q 37.890625 48.53125 40.140625 43.796875 
L 40.234375 43.796875 
Q 40.234375 45.265625 40.421875 48.875 
Q 40.625 52.484375 40.828125 52.828125 
L 49.171875 52.828125 
Q 48.875 50.203125 48.875 41.890625 
L 48.875 1.515625 
Q 48.875 -20.75 26.765625 -20.75 
z
M 40.140625 26.421875 
Q 40.140625 32.859375 38.375 37.515625 
Q 36.625 42.1875 33.421875 44.65625 
Q 30.21875 47.125 26.171875 47.125 
Q 19.4375 47.125 16.359375 42.234375 
Q 13.28125 37.359375 13.28125 26.421875 
Q 13.28125 15.578125 16.15625 10.84375 
Q 19.046875 6.109375 26.03125 6.109375 
Q 30.171875 6.109375 33.390625 8.546875 
Q 36.625 10.984375 38.375 15.546875 
Q 40.140625 20.125 40.140625 26.421875 
z
" id="LiberationSans-103"/>
      <path d="M 15.328125 52.828125 
L 15.328125 19.34375 
Q 15.328125 14.109375 16.359375 11.21875 
Q 17.390625 8.34375 19.625 7.078125 
Q 21.875 5.8125 26.21875 5.8125 
Q 32.5625 5.8125 36.21875 10.15625 
Q 39.890625 14.5 39.890625 22.21875 
L 39.890625 52.828125 
L 48.6875 52.828125 
L 48.6875 11.28125 
Q 48.6875 2.046875 48.96875 0 
L 40.671875 0 
Q 40.625 0.25 40.578125 1.3125 
Q 40.53125 2.390625 40.453125 3.78125 
Q 40.375 5.171875 40.28125 9.03125 
L 40.140625 9.03125 
Q 37.109375 3.5625 33.125 1.28125 
Q 29.15625 -0.984375 23.25 -0.984375 
Q 14.546875 -0.984375 10.515625 3.34375 
Q 6.5 7.671875 6.5 17.625 
L 6.5 52.828125 
z
" id="LiberationSans-117"/>
      <path d="M 4.046875 0 
L 4.046875 6.6875 
L 33.59375 46.046875 
L 5.71875 46.046875 
L 5.71875 52.828125 
L 44 52.828125 
L 44 46.140625 
L 14.40625 6.78125 
L 45.015625 6.78125 
L 45.015625 0 
z
" id="LiberationSans-122"/>
      <path d="M 18.796875 10.6875 
L 18.796875 2.484375 
Q 18.796875 -2.6875 17.859375 -6.15625 
Q 16.9375 -9.625 14.984375 -12.796875 
L 8.984375 -12.796875 
Q 13.578125 -6.15625 13.578125 0 
L 9.28125 0 
L 9.28125 10.6875 
z
" id="LiberationSans-44"/>
      <path d="M 5.90625 72.90625 
L 67.578125 72.90625 
L 66.015625 64.59375 
L 39.984375 64.59375 
L 27.484375 0 
L 17.578125 0 
L 30.078125 64.59375 
L 4.296875 64.59375 
z
" id="DejaVuSans-Oblique-84"/>
      <path d="M 18.3125 75.984375 
L 27.296875 75.984375 
L 25.09375 64.59375 
L 16.109375 64.59375 
z
M 14.203125 54.6875 
L 23.1875 54.6875 
L 12.5 0 
L 3.515625 0 
z
" id="DejaVuSans-Oblique-105"/>
      <path d="M 27.09375 25.78125 
Q 27.09375 11.671875 22.671875 0.4375 
Q 18.265625 -10.796875 9.078125 -20.703125 
L 0.59375 -20.703125 
Q 9.765625 -10.453125 14.015625 0.890625 
Q 18.265625 12.25 18.265625 25.875 
Q 18.265625 39.5 13.984375 50.875 
Q 9.71875 62.25 0.59375 72.46875 
L 9.078125 72.46875 
Q 18.3125 62.5 22.703125 51.234375 
Q 27.09375 39.984375 27.09375 25.984375 
z
" id="LiberationSans-41"/>
     </defs>
     <g style="fill:#262626;" transform="translate(77.029173 232.290625)scale(0.18 -0.18)">
      <use transform="translate(0 0.09375)" xlink:href="#LiberationSans-86"/>
      <use transform="translate(66.699219 0.09375)" xlink:href="#LiberationSans-105"/>
      <use transform="translate(88.916016 0.09375)" xlink:href="#LiberationSans-115"/>
      <use transform="translate(138.916016 0.09375)" xlink:href="#LiberationSans-105"/>
      <use transform="translate(161.132812 0.09375)" xlink:href="#LiberationSans-116"/>
      <use transform="translate(188.916016 0.09375)" xlink:href="#LiberationSans-115"/>
      <use transform="translate(238.916016 0.09375)" xlink:href="#LiberationSans-32"/>
      <use transform="translate(266.699219 0.09375)" xlink:href="#LiberationSans-112"/>
      <use transform="translate(322.314453 0.09375)" xlink:href="#LiberationSans-101"/>
      <use transform="translate(377.929688 0.09375)" xlink:href="#LiberationSans-114"/>
      <use transform="translate(411.230469 0.09375)" xlink:href="#LiberationSans-32"/>
      <use transform="translate(439.013672 0.09375)" xlink:href="#LiberationSans-112"/>
      <use transform="translate(494.628906 0.09375)" xlink:href="#LiberationSans-101"/>
      <use transform="translate(550.244141 0.09375)" xlink:href="#LiberationSans-114"/>
      <use transform="translate(583.544922 0.09375)" xlink:href="#LiberationSans-115"/>
      <use transform="translate(633.544922 0.09375)" xlink:href="#LiberationSans-111"/>
      <use transform="translate(689.160156 0.09375)" xlink:href="#LiberationSans-110"/>
      <use transform="translate(744.775391 0.09375)" xlink:href="#LiberationSans-32"/>
      <use transform="translate(772.558594 0.09375)" xlink:href="#LiberationSans-40"/>
      <use transform="translate(805.859375 0.09375)" xlink:href="#LiberationSans-103"/>
      <use transform="translate(861.474609 0.09375)" xlink:href="#LiberationSans-114"/>
      <use transform="translate(894.775391 0.09375)" xlink:href="#LiberationSans-111"/>
      <use transform="translate(950.390625 0.09375)" xlink:href="#LiberationSans-117"/>
      <use transform="translate(1006.005859 0.09375)" xlink:href="#LiberationSans-112"/>
      <use transform="translate(1061.621094 0.09375)" xlink:href="#LiberationSans-32"/>
      <use transform="translate(1089.404297 0.09375)" xlink:href="#LiberationSans-115"/>
      <use transform="translate(1139.404297 0.09375)" xlink:href="#LiberationSans-105"/>
      <use transform="translate(1161.621094 0.09375)" xlink:href="#LiberationSans-122"/>
      <use transform="translate(1211.621094 0.09375)" xlink:href="#LiberationSans-101"/>
      <use transform="translate(1267.236328 0.09375)" xlink:href="#LiberationSans-44"/>
      <use transform="translate(1295.019531 0.09375)" xlink:href="#LiberationSans-32"/>
      <use transform="translate(1322.802734 0.09375)" xlink:href="#DejaVuSans-Oblique-84"/>
      <use transform="translate(1383.886719 -16.3125)scale(0.7)" xlink:href="#DejaVuSans-Oblique-105"/>
      <use transform="translate(1406.069336 0.09375)" xlink:href="#LiberationSans-41"/>
     </g>
    </g>
   </g>
   <g id="matplotlib.axis_2">
    <g id="ytick_1">
     <g id="line2d_9">
      <path clip-path="url(#p5260a960be)" d="M 62.224688 195.1 
L 351.033659 195.1 
" style="fill:none;stroke:#ffffff;stroke-linecap:round;"/>
     </g>
     <g id="line2d_10"/>
     <g id="text_6">
      <!-- 0.00 -->
      <defs>
       <path d="M 9.125 0 
L 9.125 10.6875 
L 18.65625 10.6875 
L 18.65625 0 
z
" id="LiberationSans-46"/>
      </defs>
      <g style="fill:#262626;" transform="translate(27.979375 200.172812)scale(0.14 -0.14)">
       <use xlink:href="#LiberationSans-48"/>
       <use x="55.615234" xlink:href="#LiberationSans-46"/>
       <use x="83.398438" xlink:href="#LiberationSans-48"/>
       <use x="139.013672" xlink:href="#LiberationSans-48"/>
      </g>
     </g>
    </g>
    <g id="ytick_2">
     <g id="line2d_11">
      <path clip-path="url(#p5260a960be)" d="M 62.224688 148.594268 
L 351.033659 148.594268 
" style="fill:none;stroke:#ffffff;stroke-linecap:round;"/>
     </g>
     <g id="line2d_12"/>
     <g id="text_7">
      <!-- 0.02 -->
      <g style="fill:#262626;" transform="translate(27.979375 153.667081)scale(0.14 -0.14)">
       <use xlink:href="#LiberationSans-48"/>
       <use x="55.615234" xlink:href="#LiberationSans-46"/>
       <use x="83.398438" xlink:href="#LiberationSans-48"/>
       <use x="139.013672" xlink:href="#LiberationSans-50"/>
      </g>
     </g>
    </g>
    <g id="ytick_3">
     <g id="line2d_13">
      <path clip-path="url(#p5260a960be)" d="M 62.224688 102.088536 
L 351.033659 102.088536 
" style="fill:none;stroke:#ffffff;stroke-linecap:round;"/>
     </g>
     <g id="line2d_14"/>
     <g id="text_8">
      <!-- 0.04 -->
      <defs>
       <path d="M 43.015625 15.578125 
L 43.015625 0 
L 34.71875 0 
L 34.71875 15.578125 
L 2.296875 15.578125 
L 2.296875 22.40625 
L 33.796875 68.796875 
L 43.015625 68.796875 
L 43.015625 22.515625 
L 52.6875 22.515625 
L 52.6875 15.578125 
z
M 34.71875 58.890625 
Q 34.625 58.59375 33.34375 56.296875 
Q 32.078125 54 31.453125 53.078125 
L 13.8125 27.09375 
L 11.1875 23.484375 
L 10.40625 22.515625 
L 34.71875 22.515625 
z
" id="LiberationSans-52"/>
      </defs>
      <g style="fill:#262626;" transform="translate(27.979375 107.161349)scale(0.14 -0.14)">
       <use xlink:href="#LiberationSans-48"/>
       <use x="55.615234" xlink:href="#LiberationSans-46"/>
       <use x="83.398438" xlink:href="#LiberationSans-48"/>
       <use x="139.013672" xlink:href="#LiberationSans-52"/>
      </g>
     </g>
    </g>
    <g id="ytick_4">
     <g id="line2d_15">
      <path clip-path="url(#p5260a960be)" d="M 62.224688 55.582804 
L 351.033659 55.582804 
" style="fill:none;stroke:#ffffff;stroke-linecap:round;"/>
     </g>
     <g id="line2d_16"/>
     <g id="text_9">
      <!-- 0.06 -->
      <defs>
       <path d="M 51.21875 22.515625 
Q 51.21875 11.625 45.3125 5.3125 
Q 39.40625 -0.984375 29 -0.984375 
Q 17.390625 -0.984375 11.234375 7.65625 
Q 5.078125 16.3125 5.078125 32.8125 
Q 5.078125 50.6875 11.46875 60.25 
Q 17.875 69.828125 29.6875 69.828125 
Q 45.265625 69.828125 49.3125 55.8125 
L 40.921875 54.296875 
Q 38.328125 62.703125 29.59375 62.703125 
Q 22.078125 62.703125 17.9375 55.6875 
Q 13.8125 48.6875 13.8125 35.40625 
Q 16.21875 39.84375 20.5625 42.15625 
Q 24.90625 44.484375 30.515625 44.484375 
Q 40.046875 44.484375 45.625 38.515625 
Q 51.21875 32.5625 51.21875 22.515625 
z
M 42.28125 22.125 
Q 42.28125 29.59375 38.625 33.640625 
Q 34.96875 37.703125 28.421875 37.703125 
Q 22.265625 37.703125 18.484375 34.109375 
Q 14.703125 30.515625 14.703125 24.21875 
Q 14.703125 16.265625 18.625 11.1875 
Q 22.5625 6.109375 28.71875 6.109375 
Q 35.0625 6.109375 38.671875 10.375 
Q 42.28125 14.65625 42.28125 22.125 
z
" id="LiberationSans-54"/>
      </defs>
      <g style="fill:#262626;" transform="translate(27.979375 60.655617)scale(0.14 -0.14)">
       <use xlink:href="#LiberationSans-48"/>
       <use x="55.615234" xlink:href="#LiberationSans-46"/>
       <use x="83.398438" xlink:href="#LiberationSans-48"/>
       <use x="139.013672" xlink:href="#LiberationSans-54"/>
      </g>
     </g>
    </g>
    <g id="text_10">
     <!-- Probability mass -->
     <defs>
      <path d="M 61.421875 48.09375 
Q 61.421875 38.328125 55.046875 32.5625 
Q 48.6875 26.8125 37.75 26.8125 
L 17.53125 26.8125 
L 17.53125 0 
L 8.203125 0 
L 8.203125 68.796875 
L 37.15625 68.796875 
Q 48.734375 68.796875 55.078125 63.375 
Q 61.421875 57.953125 61.421875 48.09375 
z
M 52.046875 48 
Q 52.046875 61.328125 36.03125 61.328125 
L 17.53125 61.328125 
L 17.53125 34.1875 
L 36.421875 34.1875 
Q 52.046875 34.1875 52.046875 48 
z
" id="LiberationSans-80"/>
      <path d="M 51.421875 26.65625 
Q 51.421875 -0.984375 31.984375 -0.984375 
Q 25.984375 -0.984375 22 1.1875 
Q 18.015625 3.375 15.53125 8.203125 
L 15.4375 8.203125 
Q 15.4375 6.6875 15.234375 3.578125 
Q 15.046875 0.484375 14.9375 0 
L 6.453125 0 
Q 6.734375 2.640625 6.734375 10.890625 
L 6.734375 72.46875 
L 15.53125 72.46875 
L 15.53125 51.8125 
Q 15.53125 48.640625 15.328125 44.34375 
L 15.53125 44.34375 
Q 17.96875 49.421875 22 51.609375 
Q 26.03125 53.8125 31.984375 53.8125 
Q 42 53.8125 46.703125 47.0625 
Q 51.421875 40.328125 51.421875 26.65625 
z
M 42.1875 26.375 
Q 42.1875 37.453125 39.25 42.234375 
Q 36.328125 47.015625 29.734375 47.015625 
Q 22.3125 47.015625 18.921875 41.9375 
Q 15.53125 36.859375 15.53125 25.828125 
Q 15.53125 15.4375 18.84375 10.46875 
Q 22.171875 5.515625 29.640625 5.515625 
Q 36.28125 5.515625 39.234375 10.421875 
Q 42.1875 15.328125 42.1875 26.375 
z
" id="LiberationSans-98"/>
      <path d="M 20.21875 -0.984375 
Q 12.25 -0.984375 8.25 3.21875 
Q 4.25 7.421875 4.25 14.75 
Q 4.25 22.953125 9.640625 27.34375 
Q 15.046875 31.734375 27.046875 32.03125 
L 38.921875 32.234375 
L 38.921875 35.109375 
Q 38.921875 41.546875 36.1875 44.328125 
Q 33.453125 47.125 27.59375 47.125 
Q 21.6875 47.125 19 45.109375 
Q 16.3125 43.109375 15.765625 38.71875 
L 6.59375 39.546875 
Q 8.84375 53.8125 27.78125 53.8125 
Q 37.75 53.8125 42.765625 49.234375 
Q 47.796875 44.671875 47.796875 36.03125 
L 47.796875 13.28125 
Q 47.796875 9.375 48.828125 7.390625 
Q 49.859375 5.421875 52.734375 5.421875 
Q 54 5.421875 55.609375 5.765625 
L 55.609375 0.296875 
Q 52.296875 -0.484375 48.828125 -0.484375 
Q 43.953125 -0.484375 41.71875 2.078125 
Q 39.5 4.640625 39.203125 10.109375 
L 38.921875 10.109375 
Q 35.546875 4.046875 31.078125 1.53125 
Q 26.609375 -0.984375 20.21875 -0.984375 
z
M 22.21875 5.609375 
Q 27.046875 5.609375 30.8125 7.8125 
Q 34.578125 10.015625 36.75 13.84375 
Q 38.921875 17.671875 38.921875 21.734375 
L 38.921875 26.078125 
L 29.296875 25.875 
Q 23.09375 25.78125 19.890625 24.609375 
Q 16.703125 23.4375 14.984375 21 
Q 13.28125 18.5625 13.28125 14.59375 
Q 13.28125 10.296875 15.59375 7.953125 
Q 17.921875 5.609375 22.21875 5.609375 
z
" id="LiberationSans-97"/>
      <path d="M 6.734375 0 
L 6.734375 72.46875 
L 15.53125 72.46875 
L 15.53125 0 
z
" id="LiberationSans-108"/>
      <path d="M 9.328125 -20.75 
Q 5.71875 -20.75 3.265625 -20.21875 
L 3.265625 -13.625 
Q 5.125 -13.921875 7.375 -13.921875 
Q 15.578125 -13.921875 20.359375 -1.859375 
L 21.1875 0.25 
L 0.25 52.828125 
L 9.625 52.828125 
L 20.75 23.640625 
Q 21 22.953125 21.34375 22 
Q 21.6875 21.046875 23.53125 15.625 
Q 25.390625 10.203125 25.53125 9.578125 
L 28.953125 19.1875 
L 40.53125 52.828125 
L 49.8125 52.828125 
L 29.5 0 
Q 26.21875 -8.453125 23.390625 -12.578125 
Q 20.5625 -16.703125 17.109375 -18.71875 
Q 13.671875 -20.75 9.328125 -20.75 
z
" id="LiberationSans-121"/>
      <path d="M 37.5 0 
L 37.5 33.5 
Q 37.5 41.15625 35.390625 44.078125 
Q 33.296875 47.015625 27.828125 47.015625 
Q 22.21875 47.015625 18.9375 42.71875 
Q 15.671875 38.421875 15.671875 30.609375 
L 15.671875 0 
L 6.9375 0 
L 6.9375 41.546875 
Q 6.9375 50.78125 6.640625 52.828125 
L 14.9375 52.828125 
Q 14.984375 52.59375 15.03125 51.515625 
Q 15.09375 50.4375 15.15625 49.046875 
Q 15.234375 47.65625 15.328125 43.796875 
L 15.484375 43.796875 
Q 18.3125 49.421875 21.96875 51.609375 
Q 25.640625 53.8125 30.90625 53.8125 
Q 36.921875 53.8125 40.40625 51.421875 
Q 43.890625 49.03125 45.265625 43.796875 
L 45.40625 43.796875 
Q 48.140625 49.125 52.015625 51.46875 
Q 55.90625 53.8125 61.421875 53.8125 
Q 69.4375 53.8125 73.0625 49.46875 
Q 76.703125 45.125 76.703125 35.203125 
L 76.703125 0 
L 68.015625 0 
L 68.015625 33.5 
Q 68.015625 41.15625 65.90625 44.078125 
Q 63.8125 47.015625 58.34375 47.015625 
Q 52.59375 47.015625 49.390625 42.75 
Q 46.1875 38.484375 46.1875 30.609375 
L 46.1875 0 
z
" id="LiberationSans-109"/>
     </defs>
     <g style="fill:#262626;" transform="translate(20.244375 176.740625)rotate(-90)scale(0.18 -0.18)">
      <use xlink:href="#LiberationSans-80"/>
      <use x="66.699219" xlink:href="#LiberationSans-114"/>
      <use x="100" xlink:href="#LiberationSans-111"/>
      <use x="155.615234" xlink:href="#LiberationSans-98"/>
      <use x="211.230469" xlink:href="#LiberationSans-97"/>
      <use x="266.845703" xlink:href="#LiberationSans-98"/>
      <use x="322.460938" xlink:href="#LiberationSans-105"/>
      <use x="344.677734" xlink:href="#LiberationSans-108"/>
      <use x="366.894531" xlink:href="#LiberationSans-105"/>
      <use x="389.111328" xlink:href="#LiberationSans-116"/>
      <use x="416.894531" xlink:href="#LiberationSans-121"/>
      <use x="466.894531" xlink:href="#LiberationSans-32"/>
      <use x="494.677734" xlink:href="#LiberationSans-109"/>
      <use x="577.978516" xlink:href="#LiberationSans-97"/>
      <use x="633.59375" xlink:href="#LiberationSans-115"/>
      <use x="683.59375" xlink:href="#LiberationSans-115"/>
     </g>
    </g>
   </g>
   <g id="patch_3">
    <path clip-path="url(#p5260a960be)" d="M 75.352368 195.1 
L 79.879154 195.1 
L 79.879154 143.742265 
L 75.352368 143.742265 
z
" style="fill:#4c72b0;opacity:0.4;"/>
   </g>
   <g id="patch_4">
    <path clip-path="url(#p5260a960be)" d="M 79.879154 195.1 
L 84.405941 195.1 
L 84.405941 136.99691 
L 79.879154 136.99691 
z
" style="fill:#4c72b0;opacity:0.4;"/>
   </g>
   <g id="patch_5">
    <path clip-path="url(#p5260a960be)" d="M 84.405941 195.1 
L 88.932727 195.1 
L 88.932727 146.254328 
L 84.405941 146.254328 
z
" style="fill:#4c72b0;opacity:0.4;"/>
   </g>
   <g id="patch_6">
    <path clip-path="url(#p5260a960be)" d="M 88.932727 195.1 
L 93.459514 195.1 
L 93.459514 154.953509 
L 88.932727 154.953509 
z
" style="fill:#4c72b0;opacity:0.4;"/>
   </g>
   <g id="patch_7">
    <path clip-path="url(#p5260a960be)" d="M 93.459514 195.1 
L 97.9863 195.1 
L 97.9863 158.535525 
L 93.459514 158.535525 
z
" style="fill:#4c72b0;opacity:0.4;"/>
   </g>
   <g id="patch_8">
    <path clip-path="url(#p5260a960be)" d="M 97.9863 195.1 
L 102.513086 195.1 
L 102.513086 164.769164 
L 97.9863 164.769164 
z
" style="fill:#4c72b0;opacity:0.4;"/>
   </g>
   <g id="patch_9">
    <path clip-path="url(#p5260a960be)" d="M 102.513086 195.1 
L 107.039873 195.1 
L 107.039873 168.490739 
L 102.513086 168.490739 
z
" style="fill:#4c72b0;opacity:0.4;"/>
   </g>
   <g id="patch_10">
    <path clip-path="url(#p5260a960be)" d="M 107.039873 195.1 
L 111.566659 195.1 
L 111.566659 170.584125 
L 107.039873 170.584125 
z
" style="fill:#4c72b0;opacity:0.4;"/>
   </g>
   <g id="patch_11">
    <path clip-path="url(#p5260a960be)" d="M 111.566659 195.1 
L 116.093445 195.1 
L 116.093445 175.096534 
L 111.566659 175.096534 
z
" style="fill:#4c72b0;opacity:0.4;"/>
   </g>
   <g id="patch_12">
    <path clip-path="url(#p5260a960be)" d="M 116.093445 195.1 
L 120.620232 195.1 
L 120.620232 177.375999 
L 116.093445 177.375999 
z
" style="fill:#4c72b0;opacity:0.4;"/>
   </g>
   <g id="patch_13">
    <path clip-path="url(#p5260a960be)" d="M 120.620232 195.1 
L 125.147018 195.1 
L 125.147018 179.562424 
L 120.620232 179.562424 
z
" style="fill:#4c72b0;opacity:0.4;"/>
   </g>
   <g id="patch_14">
    <path clip-path="url(#p5260a960be)" d="M 125.147018 195.1 
L 129.673805 195.1 
L 129.673805 182.307086 
L 125.147018 182.307086 
z
" style="fill:#4c72b0;opacity:0.4;"/>
   </g>
   <g id="patch_15">
    <path clip-path="url(#p5260a960be)" d="M 129.673805 195.1 
L 134.200591 195.1 
L 134.200591 183.656157 
L 129.673805 183.656157 
z
" style="fill:#4c72b0;opacity:0.4;"/>
   </g>
   <g id="patch_16">
    <path clip-path="url(#p5260a960be)" d="M 134.200591 195.1 
L 138.727377 195.1 
L 138.727377 185.377385 
L 134.200591 185.377385 
z
" style="fill:#4c72b0;opacity:0.4;"/>
   </g>
   <g id="patch_17">
    <path clip-path="url(#p5260a960be)" d="M 138.727377 195.1 
L 143.254164 195.1 
L 143.254164 186.866015 
L 138.727377 186.866015 
z
" style="fill:#4c72b0;opacity:0.4;"/>
   </g>
   <g id="patch_18">
    <path clip-path="url(#p5260a960be)" d="M 143.254164 195.1 
L 147.78095 195.1 
L 147.78095 188.401165 
L 143.254164 188.401165 
z
" style="fill:#4c72b0;opacity:0.4;"/>
   </g>
   <g id="patch_19">
    <path clip-path="url(#p5260a960be)" d="M 147.78095 195.1 
L 152.307737 195.1 
L 152.307737 188.587244 
L 147.78095 188.587244 
z
" style="fill:#4c72b0;opacity:0.4;"/>
   </g>
   <g id="patch_20">
    <path clip-path="url(#p5260a960be)" d="M 152.307737 195.1 
L 156.834523 195.1 
L 156.834523 188.866362 
L 152.307737 188.866362 
z
" style="fill:#4c72b0;opacity:0.4;"/>
   </g>
   <g id="patch_21">
    <path clip-path="url(#p5260a960be)" d="M 156.834523 195.1 
L 161.361309 195.1 
L 161.361309 190.773669 
L 156.834523 190.773669 
z
" style="fill:#4c72b0;opacity:0.4;"/>
   </g>
   <g id="patch_22">
    <path clip-path="url(#p5260a960be)" d="M 161.361309 195.1 
L 165.888096 195.1 
L 165.888096 191.657543 
L 161.361309 191.657543 
z
" style="fill:#4c72b0;opacity:0.4;"/>
   </g>
   <g id="patch_23">
    <path clip-path="url(#p5260a960be)" d="M 165.888096 195.1 
L 170.414882 195.1 
L 170.414882 191.145827 
L 165.888096 191.145827 
z
" style="fill:#4c72b0;opacity:0.4;"/>
   </g>
   <g id="patch_24">
    <path clip-path="url(#p5260a960be)" d="M 170.414882 195.1 
L 174.941668 195.1 
L 174.941668 192.262299 
L 170.414882 192.262299 
z
" style="fill:#4c72b0;opacity:0.4;"/>
   </g>
   <g id="patch_25">
    <path clip-path="url(#p5260a960be)" d="M 174.941668 195.1 
L 179.468455 195.1 
L 179.468455 192.774016 
L 174.941668 192.774016 
z
" style="fill:#4c72b0;opacity:0.4;"/>
   </g>
   <g id="patch_26">
    <path clip-path="url(#p5260a960be)" d="M 179.468455 195.1 
L 183.995241 195.1 
L 183.995241 193.146173 
L 179.468455 193.146173 
z
" style="fill:#4c72b0;opacity:0.4;"/>
   </g>
   <g id="patch_27">
    <path clip-path="url(#p5260a960be)" d="M 183.995241 195.1 
L 188.522028 195.1 
L 188.522028 193.378772 
L 183.995241 193.378772 
z
" style="fill:#4c72b0;opacity:0.4;"/>
   </g>
   <g id="patch_28">
    <path clip-path="url(#p5260a960be)" d="M 188.522028 195.1 
L 193.048814 195.1 
L 193.048814 193.053134 
L 188.522028 193.053134 
z
" style="fill:#4c72b0;opacity:0.4;"/>
   </g>
   <g id="patch_29">
    <path clip-path="url(#p5260a960be)" d="M 193.048814 195.1 
L 197.5756 195.1 
L 197.5756 193.797449 
L 193.048814 193.797449 
z
" style="fill:#4c72b0;opacity:0.4;"/>
   </g>
   <g id="patch_30">
    <path clip-path="url(#p5260a960be)" d="M 197.5756 195.1 
L 202.102387 195.1 
L 202.102387 193.797449 
L 197.5756 193.797449 
z
" style="fill:#4c72b0;opacity:0.4;"/>
   </g>
   <g id="patch_31">
    <path clip-path="url(#p5260a960be)" d="M 202.102387 195.1 
L 206.629173 195.1 
L 206.629173 193.65789 
L 202.102387 193.65789 
z
" style="fill:#4c72b0;opacity:0.4;"/>
   </g>
   <g id="patch_32">
    <path clip-path="url(#p5260a960be)" d="M 206.629173 195.1 
L 211.155959 195.1 
L 211.155959 194.076567 
L 206.629173 194.076567 
z
" style="fill:#4c72b0;opacity:0.4;"/>
   </g>
   <g id="patch_33">
    <path clip-path="url(#p5260a960be)" d="M 211.155959 195.1 
L 215.682746 195.1 
L 215.682746 194.355685 
L 211.155959 194.355685 
z
" style="fill:#4c72b0;opacity:0.4;"/>
   </g>
   <g id="patch_34">
    <path clip-path="url(#p5260a960be)" d="M 215.682746 195.1 
L 220.209532 195.1 
L 220.209532 194.309165 
L 215.682746 194.309165 
z
" style="fill:#4c72b0;opacity:0.4;"/>
   </g>
   <g id="patch_35">
    <path clip-path="url(#p5260a960be)" d="M 220.209532 195.1 
L 224.736319 195.1 
L 224.736319 194.588283 
L 220.209532 194.588283 
z
" style="fill:#4c72b0;opacity:0.4;"/>
   </g>
   <g id="patch_36">
    <path clip-path="url(#p5260a960be)" d="M 224.736319 195.1 
L 229.263105 195.1 
L 229.263105 194.495244 
L 224.736319 194.495244 
z
" style="fill:#4c72b0;opacity:0.4;"/>
   </g>
   <g id="patch_37">
    <path clip-path="url(#p5260a960be)" d="M 229.263105 195.1 
L 233.789891 195.1 
L 233.789891 194.588283 
L 229.263105 194.588283 
z
" style="fill:#4c72b0;opacity:0.4;"/>
   </g>
   <g id="patch_38">
    <path clip-path="url(#p5260a960be)" d="M 233.789891 195.1 
L 238.316678 195.1 
L 238.316678 194.820882 
L 233.789891 194.820882 
z
" style="fill:#4c72b0;opacity:0.4;"/>
   </g>
   <g id="patch_39">
    <path clip-path="url(#p5260a960be)" d="M 238.316678 195.1 
L 242.843464 195.1 
L 242.843464 194.820882 
L 238.316678 194.820882 
z
" style="fill:#4c72b0;opacity:0.4;"/>
   </g>
   <g id="patch_40">
    <path clip-path="url(#p5260a960be)" d="M 242.843464 195.1 
L 247.370251 195.1 
L 247.370251 194.867402 
L 242.843464 194.867402 
z
" style="fill:#4c72b0;opacity:0.4;"/>
   </g>
   <g id="patch_41">
    <path clip-path="url(#p5260a960be)" d="M 247.370251 195.1 
L 251.897037 195.1 
L 251.897037 194.820882 
L 247.370251 194.820882 
z
" style="fill:#4c72b0;opacity:0.4;"/>
   </g>
   <g id="patch_42">
    <path clip-path="url(#p5260a960be)" d="M 251.897037 195.1 
L 256.423823 195.1 
L 256.423823 194.774362 
L 251.897037 194.774362 
z
" style="fill:#4c72b0;opacity:0.4;"/>
   </g>
   <g id="patch_43">
    <path clip-path="url(#p5260a960be)" d="M 256.423823 195.1 
L 260.95061 195.1 
L 260.95061 194.727842 
L 256.423823 194.727842 
z
" style="fill:#4c72b0;opacity:0.4;"/>
   </g>
   <g id="patch_44">
    <path clip-path="url(#p5260a960be)" d="M 260.95061 195.1 
L 265.477396 195.1 
L 265.477396 194.867402 
L 260.95061 194.867402 
z
" style="fill:#4c72b0;opacity:0.4;"/>
   </g>
   <g id="patch_45">
    <path clip-path="url(#p5260a960be)" d="M 265.477396 195.1 
L 270.004182 195.1 
L 270.004182 195.006961 
L 265.477396 195.006961 
z
" style="fill:#4c72b0;opacity:0.4;"/>
   </g>
   <g id="patch_46">
    <path clip-path="url(#p5260a960be)" d="M 270.004182 195.1 
L 274.530969 195.1 
L 274.530969 195.006961 
L 270.004182 195.006961 
z
" style="fill:#4c72b0;opacity:0.4;"/>
   </g>
   <g id="patch_47">
    <path clip-path="url(#p5260a960be)" d="M 274.530969 195.1 
L 279.057755 195.1 
L 279.057755 195.05348 
L 274.530969 195.05348 
z
" style="fill:#4c72b0;opacity:0.4;"/>
   </g>
   <g id="patch_48">
    <path clip-path="url(#p5260a960be)" d="M 279.057755 195.1 
L 283.584542 195.1 
L 283.584542 195.1 
L 279.057755 195.1 
z
" style="fill:#4c72b0;opacity:0.4;"/>
   </g>
   <g id="patch_49">
    <path clip-path="url(#p5260a960be)" d="M 283.584542 195.1 
L 288.111328 195.1 
L 288.111328 195.05348 
L 283.584542 195.05348 
z
" style="fill:#4c72b0;opacity:0.4;"/>
   </g>
   <g id="patch_50">
    <path clip-path="url(#p5260a960be)" d="M 288.111328 195.1 
L 292.638114 195.1 
L 292.638114 195.1 
L 288.111328 195.1 
z
" style="fill:#4c72b0;opacity:0.4;"/>
   </g>
   <g id="patch_51">
    <path clip-path="url(#p5260a960be)" d="M 292.638114 195.1 
L 297.164901 195.1 
L 297.164901 194.960441 
L 292.638114 194.960441 
z
" style="fill:#4c72b0;opacity:0.4;"/>
   </g>
   <g id="patch_52">
    <path clip-path="url(#p5260a960be)" d="M 297.164901 195.1 
L 301.691687 195.1 
L 301.691687 195.006961 
L 297.164901 195.006961 
z
" style="fill:#4c72b0;opacity:0.4;"/>
   </g>
   <g id="patch_53">
    <path clip-path="url(#p5260a960be)" d="M 301.691687 195.1 
L 306.218474 195.1 
L 306.218474 195.05348 
L 301.691687 195.05348 
z
" style="fill:#4c72b0;opacity:0.4;"/>
   </g>
   <g id="patch_54">
    <path clip-path="url(#p5260a960be)" d="M 306.218474 195.1 
L 310.74526 195.1 
L 310.74526 195.006961 
L 306.218474 195.006961 
z
" style="fill:#4c72b0;opacity:0.4;"/>
   </g>
   <g id="patch_55">
    <path clip-path="url(#p5260a960be)" d="M 310.74526 195.1 
L 315.272046 195.1 
L 315.272046 195.1 
L 310.74526 195.1 
z
" style="fill:#4c72b0;opacity:0.4;"/>
   </g>
   <g id="patch_56">
    <path clip-path="url(#p5260a960be)" d="M 315.272046 195.1 
L 319.798833 195.1 
L 319.798833 195.05348 
L 315.272046 195.05348 
z
" style="fill:#4c72b0;opacity:0.4;"/>
   </g>
   <g id="patch_57">
    <path clip-path="url(#p5260a960be)" d="M 319.798833 195.1 
L 324.325619 195.1 
L 324.325619 195.05348 
L 319.798833 195.05348 
z
" style="fill:#4c72b0;opacity:0.4;"/>
   </g>
   <g id="patch_58">
    <path clip-path="url(#p5260a960be)" d="M 324.325619 195.1 
L 328.852405 195.1 
L 328.852405 195.1 
L 324.325619 195.1 
z
" style="fill:#4c72b0;opacity:0.4;"/>
   </g>
   <g id="patch_59">
    <path clip-path="url(#p5260a960be)" d="M 328.852405 195.1 
L 333.379192 195.1 
L 333.379192 195.05348 
L 328.852405 195.05348 
z
" style="fill:#4c72b0;opacity:0.4;"/>
   </g>
   <g id="patch_60">
    <path clip-path="url(#p5260a960be)" d="M 333.379192 195.1 
L 337.905978 195.1 
L 337.905978 195.05348 
L 333.379192 195.05348 
z
" style="fill:#4c72b0;opacity:0.4;"/>
   </g>
   <g id="patch_61">
    <path clip-path="url(#p5260a960be)" d="M 75.352368 195.1 
L 79.879154 195.1 
L 79.879154 34.37619 
L 75.352368 34.37619 
z
" style="fill:#55a868;opacity:0.4;"/>
   </g>
   <g id="patch_62">
    <path clip-path="url(#p5260a960be)" d="M 79.879154 195.1 
L 84.405941 195.1 
L 84.405941 70.418133 
L 79.879154 70.418133 
z
" style="fill:#55a868;opacity:0.4;"/>
   </g>
   <g id="patch_63">
    <path clip-path="url(#p5260a960be)" d="M 84.405941 195.1 
L 88.932727 195.1 
L 88.932727 120.13276 
L 84.405941 120.13276 
z
" style="fill:#55a868;opacity:0.4;"/>
   </g>
   <g id="patch_64">
    <path clip-path="url(#p5260a960be)" d="M 88.932727 195.1 
L 93.459514 195.1 
L 93.459514 152.686772 
L 88.932727 152.686772 
z
" style="fill:#55a868;opacity:0.4;"/>
   </g>
   <g id="patch_65">
    <path clip-path="url(#p5260a960be)" d="M 93.459514 195.1 
L 97.9863 195.1 
L 97.9863 169.010284 
L 93.459514 169.010284 
z
" style="fill:#55a868;opacity:0.4;"/>
   </g>
   <g id="patch_66">
    <path clip-path="url(#p5260a960be)" d="M 97.9863 195.1 
L 102.513086 195.1 
L 102.513086 180.357683 
L 97.9863 180.357683 
z
" style="fill:#55a868;opacity:0.4;"/>
   </g>
   <g id="patch_67">
    <path clip-path="url(#p5260a960be)" d="M 102.513086 195.1 
L 107.039873 195.1 
L 107.039873 186.170899 
L 102.513086 186.170899 
z
" style="fill:#55a868;opacity:0.4;"/>
   </g>
   <g id="patch_68">
    <path clip-path="url(#p5260a960be)" d="M 107.039873 195.1 
L 111.566659 195.1 
L 111.566659 189.984369 
L 107.039873 189.984369 
z
" style="fill:#55a868;opacity:0.4;"/>
   </g>
   <g id="patch_69">
    <path clip-path="url(#p5260a960be)" d="M 111.566659 195.1 
L 116.093445 195.1 
L 116.093445 191.891104 
L 111.566659 191.891104 
z
" style="fill:#55a868;opacity:0.4;"/>
   </g>
   <g id="patch_70">
    <path clip-path="url(#p5260a960be)" d="M 116.093445 195.1 
L 120.620232 195.1 
L 120.620232 193.425794 
L 116.093445 193.425794 
z
" style="fill:#55a868;opacity:0.4;"/>
   </g>
   <g id="patch_71">
    <path clip-path="url(#p5260a960be)" d="M 120.620232 195.1 
L 125.147018 195.1 
L 125.147018 194.030368 
L 120.620232 194.030368 
z
" style="fill:#55a868;opacity:0.4;"/>
   </g>
   <g id="patch_72">
    <path clip-path="url(#p5260a960be)" d="M 125.147018 195.1 
L 129.673805 195.1 
L 129.673805 194.681448 
L 125.147018 194.681448 
z
" style="fill:#55a868;opacity:0.4;"/>
   </g>
   <g id="patch_73">
    <path clip-path="url(#p5260a960be)" d="M 129.673805 195.1 
L 134.200591 195.1 
L 134.200591 194.820966 
L 129.673805 194.820966 
z
" style="fill:#55a868;opacity:0.4;"/>
   </g>
   <g id="patch_74">
    <path clip-path="url(#p5260a960be)" d="M 134.200591 195.1 
L 138.727377 195.1 
L 138.727377 194.913977 
L 134.200591 194.913977 
z
" style="fill:#55a868;opacity:0.4;"/>
   </g>
   <g id="patch_75">
    <path clip-path="url(#p5260a960be)" d="M 138.727377 195.1 
L 143.254164 195.1 
L 143.254164 194.960483 
L 138.727377 194.960483 
z
" style="fill:#55a868;opacity:0.4;"/>
   </g>
   <g id="patch_76">
    <path clip-path="url(#p5260a960be)" d="M 143.254164 195.1 
L 147.78095 195.1 
L 147.78095 194.820966 
L 143.254164 194.820966 
z
" style="fill:#55a868;opacity:0.4;"/>
   </g>
   <g id="patch_77">
    <path clip-path="url(#p5260a960be)" d="M 147.78095 195.1 
L 152.307737 195.1 
L 152.307737 195.053494 
L 147.78095 195.053494 
z
" style="fill:#55a868;opacity:0.4;"/>
   </g>
   <g id="patch_78">
    <path clip-path="url(#p5260a960be)" d="M 152.307737 195.1 
L 156.834523 195.1 
L 156.834523 195.053494 
L 152.307737 195.053494 
z
" style="fill:#55a868;opacity:0.4;"/>
   </g>
   <g id="patch_79">
    <path clip-path="url(#p5260a960be)" d="M 156.834523 195.1 
L 161.361309 195.1 
L 161.361309 195.1 
L 156.834523 195.1 
z
" style="fill:#55a868;opacity:0.4;"/>
   </g>
   <g id="patch_80">
    <path clip-path="url(#p5260a960be)" d="M 161.361309 195.1 
L 165.888096 195.1 
L 165.888096 195.053494 
L 161.361309 195.053494 
z
" style="fill:#55a868;opacity:0.4;"/>
   </g>
   <g id="patch_81">
    <path clip-path="url(#p5260a960be)" d="M 165.888096 195.1 
L 170.414882 195.1 
L 170.414882 195.1 
L 165.888096 195.1 
z
" style="fill:#55a868;opacity:0.4;"/>
   </g>
   <g id="patch_82">
    <path clip-path="url(#p5260a960be)" d="M 170.414882 195.1 
L 174.941668 195.1 
L 174.941668 195.1 
L 170.414882 195.1 
z
" style="fill:#55a868;opacity:0.4;"/>
   </g>
   <g id="patch_83">
    <path clip-path="url(#p5260a960be)" d="M 174.941668 195.1 
L 179.468455 195.1 
L 179.468455 195.1 
L 174.941668 195.1 
z
" style="fill:#55a868;opacity:0.4;"/>
   </g>
   <g id="patch_84">
    <path clip-path="url(#p5260a960be)" d="M 179.468455 195.1 
L 183.995241 195.1 
L 183.995241 195.1 
L 179.468455 195.1 
z
" style="fill:#55a868;opacity:0.4;"/>
   </g>
   <g id="patch_85">
    <path clip-path="url(#p5260a960be)" d="M 183.995241 195.1 
L 188.522028 195.1 
L 188.522028 195.1 
L 183.995241 195.1 
z
" style="fill:#55a868;opacity:0.4;"/>
   </g>
   <g id="patch_86">
    <path clip-path="url(#p5260a960be)" d="M 188.522028 195.1 
L 193.048814 195.1 
L 193.048814 195.1 
L 188.522028 195.1 
z
" style="fill:#55a868;opacity:0.4;"/>
   </g>
   <g id="patch_87">
    <path clip-path="url(#p5260a960be)" d="M 193.048814 195.1 
L 197.5756 195.1 
L 197.5756 195.1 
L 193.048814 195.1 
z
" style="fill:#55a868;opacity:0.4;"/>
   </g>
   <g id="patch_88">
    <path clip-path="url(#p5260a960be)" d="M 197.5756 195.1 
L 202.102387 195.1 
L 202.102387 195.1 
L 197.5756 195.1 
z
" style="fill:#55a868;opacity:0.4;"/>
   </g>
   <g id="patch_89">
    <path clip-path="url(#p5260a960be)" d="M 202.102387 195.1 
L 206.629173 195.1 
L 206.629173 195.1 
L 202.102387 195.1 
z
" style="fill:#55a868;opacity:0.4;"/>
   </g>
   <g id="patch_90">
    <path clip-path="url(#p5260a960be)" d="M 206.629173 195.1 
L 211.155959 195.1 
L 211.155959 195.1 
L 206.629173 195.1 
z
" style="fill:#55a868;opacity:0.4;"/>
   </g>
   <g id="patch_91">
    <path clip-path="url(#p5260a960be)" d="M 211.155959 195.1 
L 215.682746 195.1 
L 215.682746 195.1 
L 211.155959 195.1 
z
" style="fill:#55a868;opacity:0.4;"/>
   </g>
   <g id="patch_92">
    <path clip-path="url(#p5260a960be)" d="M 215.682746 195.1 
L 220.209532 195.1 
L 220.209532 195.1 
L 215.682746 195.1 
z
" style="fill:#55a868;opacity:0.4;"/>
   </g>
   <g id="patch_93">
    <path clip-path="url(#p5260a960be)" d="M 220.209532 195.1 
L 224.736319 195.1 
L 224.736319 195.1 
L 220.209532 195.1 
z
" style="fill:#55a868;opacity:0.4;"/>
   </g>
   <g id="patch_94">
    <path clip-path="url(#p5260a960be)" d="M 224.736319 195.1 
L 229.263105 195.1 
L 229.263105 195.1 
L 224.736319 195.1 
z
" style="fill:#55a868;opacity:0.4;"/>
   </g>
   <g id="patch_95">
    <path clip-path="url(#p5260a960be)" d="M 229.263105 195.1 
L 233.789891 195.1 
L 233.789891 195.1 
L 229.263105 195.1 
z
" style="fill:#55a868;opacity:0.4;"/>
   </g>
   <g id="patch_96">
    <path clip-path="url(#p5260a960be)" d="M 233.789891 195.1 
L 238.316678 195.1 
L 238.316678 195.1 
L 233.789891 195.1 
z
" style="fill:#55a868;opacity:0.4;"/>
   </g>
   <g id="patch_97">
    <path clip-path="url(#p5260a960be)" d="M 238.316678 195.1 
L 242.843464 195.1 
L 242.843464 195.1 
L 238.316678 195.1 
z
" style="fill:#55a868;opacity:0.4;"/>
   </g>
   <g id="patch_98">
    <path clip-path="url(#p5260a960be)" d="M 242.843464 195.1 
L 247.370251 195.1 
L 247.370251 195.1 
L 242.843464 195.1 
z
" style="fill:#55a868;opacity:0.4;"/>
   </g>
   <g id="patch_99">
    <path clip-path="url(#p5260a960be)" d="M 247.370251 195.1 
L 251.897037 195.1 
L 251.897037 195.1 
L 247.370251 195.1 
z
" style="fill:#55a868;opacity:0.4;"/>
   </g>
   <g id="patch_100">
    <path clip-path="url(#p5260a960be)" d="M 251.897037 195.1 
L 256.423823 195.1 
L 256.423823 195.1 
L 251.897037 195.1 
z
" style="fill:#55a868;opacity:0.4;"/>
   </g>
   <g id="patch_101">
    <path clip-path="url(#p5260a960be)" d="M 256.423823 195.1 
L 260.95061 195.1 
L 260.95061 195.1 
L 256.423823 195.1 
z
" style="fill:#55a868;opacity:0.4;"/>
   </g>
   <g id="patch_102">
    <path clip-path="url(#p5260a960be)" d="M 260.95061 195.1 
L 265.477396 195.1 
L 265.477396 195.1 
L 260.95061 195.1 
z
" style="fill:#55a868;opacity:0.4;"/>
   </g>
   <g id="patch_103">
    <path clip-path="url(#p5260a960be)" d="M 265.477396 195.1 
L 270.004182 195.1 
L 270.004182 195.1 
L 265.477396 195.1 
z
" style="fill:#55a868;opacity:0.4;"/>
   </g>
   <g id="patch_104">
    <path clip-path="url(#p5260a960be)" d="M 270.004182 195.1 
L 274.530969 195.1 
L 274.530969 195.1 
L 270.004182 195.1 
z
" style="fill:#55a868;opacity:0.4;"/>
   </g>
   <g id="patch_105">
    <path clip-path="url(#p5260a960be)" d="M 274.530969 195.1 
L 279.057755 195.1 
L 279.057755 195.1 
L 274.530969 195.1 
z
" style="fill:#55a868;opacity:0.4;"/>
   </g>
   <g id="patch_106">
    <path clip-path="url(#p5260a960be)" d="M 279.057755 195.1 
L 283.584542 195.1 
L 283.584542 195.1 
L 279.057755 195.1 
z
" style="fill:#55a868;opacity:0.4;"/>
   </g>
   <g id="patch_107">
    <path clip-path="url(#p5260a960be)" d="M 283.584542 195.1 
L 288.111328 195.1 
L 288.111328 195.1 
L 283.584542 195.1 
z
" style="fill:#55a868;opacity:0.4;"/>
   </g>
   <g id="patch_108">
    <path clip-path="url(#p5260a960be)" d="M 288.111328 195.1 
L 292.638114 195.1 
L 292.638114 195.1 
L 288.111328 195.1 
z
" style="fill:#55a868;opacity:0.4;"/>
   </g>
   <g id="patch_109">
    <path clip-path="url(#p5260a960be)" d="M 292.638114 195.1 
L 297.164901 195.1 
L 297.164901 195.1 
L 292.638114 195.1 
z
" style="fill:#55a868;opacity:0.4;"/>
   </g>
   <g id="patch_110">
    <path clip-path="url(#p5260a960be)" d="M 297.164901 195.1 
L 301.691687 195.1 
L 301.691687 195.1 
L 297.164901 195.1 
z
" style="fill:#55a868;opacity:0.4;"/>
   </g>
   <g id="patch_111">
    <path clip-path="url(#p5260a960be)" d="M 301.691687 195.1 
L 306.218474 195.1 
L 306.218474 195.1 
L 301.691687 195.1 
z
" style="fill:#55a868;opacity:0.4;"/>
   </g>
   <g id="patch_112">
    <path clip-path="url(#p5260a960be)" d="M 306.218474 195.1 
L 310.74526 195.1 
L 310.74526 195.1 
L 306.218474 195.1 
z
" style="fill:#55a868;opacity:0.4;"/>
   </g>
   <g id="patch_113">
    <path clip-path="url(#p5260a960be)" d="M 310.74526 195.1 
L 315.272046 195.1 
L 315.272046 195.1 
L 310.74526 195.1 
z
" style="fill:#55a868;opacity:0.4;"/>
   </g>
   <g id="patch_114">
    <path clip-path="url(#p5260a960be)" d="M 315.272046 195.1 
L 319.798833 195.1 
L 319.798833 195.1 
L 315.272046 195.1 
z
" style="fill:#55a868;opacity:0.4;"/>
   </g>
   <g id="patch_115">
    <path clip-path="url(#p5260a960be)" d="M 319.798833 195.1 
L 324.325619 195.1 
L 324.325619 195.1 
L 319.798833 195.1 
z
" style="fill:#55a868;opacity:0.4;"/>
   </g>
   <g id="patch_116">
    <path clip-path="url(#p5260a960be)" d="M 324.325619 195.1 
L 328.852405 195.1 
L 328.852405 195.1 
L 324.325619 195.1 
z
" style="fill:#55a868;opacity:0.4;"/>
   </g>
   <g id="patch_117">
    <path clip-path="url(#p5260a960be)" d="M 328.852405 195.1 
L 333.379192 195.1 
L 333.379192 195.1 
L 328.852405 195.1 
z
" style="fill:#55a868;opacity:0.4;"/>
   </g>
   <g id="patch_118">
    <path clip-path="url(#p5260a960be)" d="M 333.379192 195.1 
L 337.905978 195.1 
L 337.905978 195.1 
L 333.379192 195.1 
z
" style="fill:#55a868;opacity:0.4;"/>
   </g>
   <g id="patch_119">
    <path d="M 62.224688 195.1 
L 62.224688 26.34 
" style="fill:none;"/>
   </g>
   <g id="patch_120">
    <path d="M 351.033659 195.1 
L 351.033659 26.34 
" style="fill:none;"/>
   </g>
   <g id="patch_121">
    <path d="M 62.224688 195.1 
L 351.033659 195.1 
" style="fill:none;"/>
   </g>
   <g id="patch_122">
    <path d="M 62.224688 26.34 
L 351.033659 26.34 
" style="fill:none;"/>
   </g>
   <g id="text_11">
    <!-- Example distributions of $T_i$ -->
    <defs>
     <path d="M 8.203125 0 
L 8.203125 68.796875 
L 60.40625 68.796875 
L 60.40625 61.1875 
L 17.53125 61.1875 
L 17.53125 39.109375 
L 57.46875 39.109375 
L 57.46875 31.59375 
L 17.53125 31.59375 
L 17.53125 7.625 
L 62.40625 7.625 
L 62.40625 0 
z
" id="LiberationSans-69"/>
     <path d="M 39.109375 0 
L 24.90625 21.6875 
L 10.59375 0 
L 1.125 0 
L 19.921875 27.15625 
L 2 52.828125 
L 11.71875 52.828125 
L 24.90625 32.28125 
L 37.984375 52.828125 
L 47.796875 52.828125 
L 29.890625 27.25 
L 48.921875 0 
z
" id="LiberationSans-120"/>
     <path d="M 40.09375 8.5 
Q 37.640625 3.421875 33.609375 1.21875 
Q 29.59375 -0.984375 23.640625 -0.984375 
Q 13.625 -0.984375 8.90625 5.75 
Q 4.203125 12.5 4.203125 26.171875 
Q 4.203125 53.8125 23.640625 53.8125 
Q 29.640625 53.8125 33.640625 51.609375 
Q 37.640625 49.421875 40.09375 44.625 
L 40.1875 44.625 
L 40.09375 50.53125 
L 40.09375 72.46875 
L 48.875 72.46875 
L 48.875 10.890625 
Q 48.875 2.640625 49.171875 0 
L 40.765625 0 
Q 40.625 0.78125 40.453125 3.609375 
Q 40.28125 6.453125 40.28125 8.5 
z
M 13.421875 26.46875 
Q 13.421875 15.375 16.34375 10.59375 
Q 19.28125 5.8125 25.875 5.8125 
Q 33.34375 5.8125 36.71875 10.984375 
Q 40.09375 16.15625 40.09375 27.046875 
Q 40.09375 37.546875 36.71875 42.421875 
Q 33.34375 47.3125 25.984375 47.3125 
Q 19.34375 47.3125 16.375 42.40625 
Q 13.421875 37.5 13.421875 26.46875 
z
" id="LiberationSans-100"/>
     <path d="M 17.625 46.4375 
L 17.625 0 
L 8.84375 0 
L 8.84375 46.4375 
L 1.421875 46.4375 
L 1.421875 52.828125 
L 8.84375 52.828125 
L 8.84375 58.796875 
Q 8.84375 66.015625 12.015625 69.1875 
Q 15.1875 72.359375 21.734375 72.359375 
Q 25.390625 72.359375 27.9375 71.78125 
L 27.9375 65.09375 
Q 25.734375 65.484375 24.03125 65.484375 
Q 20.65625 65.484375 19.140625 63.765625 
Q 17.625 62.0625 17.625 57.5625 
L 17.625 52.828125 
L 27.9375 52.828125 
L 27.9375 46.4375 
z
" id="LiberationSans-102"/>
    </defs>
    <g style="fill:#262626;" transform="translate(101.059173 20.34)scale(0.18 -0.18)">
     <use transform="translate(0 0.09375)" xlink:href="#LiberationSans-69"/>
     <use transform="translate(66.699219 0.09375)" xlink:href="#LiberationSans-120"/>
     <use transform="translate(116.699219 0.09375)" xlink:href="#LiberationSans-97"/>
     <use transform="translate(172.314453 0.09375)" xlink:href="#LiberationSans-109"/>
     <use transform="translate(255.615234 0.09375)" xlink:href="#LiberationSans-112"/>
     <use transform="translate(311.230469 0.09375)" xlink:href="#LiberationSans-108"/>
     <use transform="translate(333.447266 0.09375)" xlink:href="#LiberationSans-101"/>
     <use transform="translate(389.0625 0.09375)" xlink:href="#LiberationSans-32"/>
     <use transform="translate(416.845703 0.09375)" xlink:href="#LiberationSans-100"/>
     <use transform="translate(472.460938 0.09375)" xlink:href="#LiberationSans-105"/>
     <use transform="translate(494.677734 0.09375)" xlink:href="#LiberationSans-115"/>
     <use transform="translate(544.677734 0.09375)" xlink:href="#LiberationSans-116"/>
     <use transform="translate(572.460938 0.09375)" xlink:href="#LiberationSans-114"/>
     <use transform="translate(605.761719 0.09375)" xlink:href="#LiberationSans-105"/>
     <use transform="translate(627.978516 0.09375)" xlink:href="#LiberationSans-98"/>
     <use transform="translate(683.59375 0.09375)" xlink:href="#LiberationSans-117"/>
     <use transform="translate(739.208984 0.09375)" xlink:href="#LiberationSans-116"/>
     <use transform="translate(766.992188 0.09375)" xlink:href="#LiberationSans-105"/>
     <use transform="translate(789.208984 0.09375)" xlink:href="#LiberationSans-111"/>
     <use transform="translate(844.824219 0.09375)" xlink:href="#LiberationSans-110"/>
     <use transform="translate(900.439453 0.09375)" xlink:href="#LiberationSans-115"/>
     <use transform="translate(950.439453 0.09375)" xlink:href="#LiberationSans-32"/>
     <use transform="translate(978.222656 0.09375)" xlink:href="#LiberationSans-111"/>
     <use transform="translate(1033.837891 0.09375)" xlink:href="#LiberationSans-102"/>
     <use transform="translate(1061.621094 0.09375)" xlink:href="#LiberationSans-32"/>
     <use transform="translate(1089.404297 0.09375)" xlink:href="#DejaVuSans-Oblique-84"/>
     <use transform="translate(1150.488281 -16.3125)scale(0.7)" xlink:href="#DejaVuSans-Oblique-105"/>
    </g>
   </g>
   <g id="legend_1">
    <g id="patch_123">
     <path d="M 171.218971 49.085625 
L 199.218971 49.085625 
L 199.218971 39.285625 
L 171.218971 39.285625 
z
" style="fill:#4c72b0;opacity:0.4;"/>
    </g>
    <g id="text_12">
     <!-- Avg. group size = 33 -->
     <defs>
      <path d="M 56.984375 0 
L 49.125 20.125 
L 17.78125 20.125 
L 9.859375 0 
L 0.203125 0 
L 28.265625 68.796875 
L 38.875 68.796875 
L 66.5 0 
z
M 33.453125 61.765625 
L 33.015625 60.40625 
Q 31.78125 56.34375 29.390625 50 
L 20.609375 27.390625 
L 46.34375 27.390625 
L 37.5 50.09375 
Q 36.140625 53.46875 34.765625 57.71875 
z
" id="LiberationSans-65"/>
      <path d="M 29.9375 0 
L 19.53125 0 
L 0.34375 52.828125 
L 9.71875 52.828125 
L 21.34375 18.453125 
Q 21.96875 16.5 24.703125 6.890625 
L 26.421875 12.59375 
L 28.328125 18.359375 
L 40.328125 52.828125 
L 49.65625 52.828125 
z
" id="LiberationSans-118"/>
      <path d="M 4.890625 41.796875 
L 4.890625 49.03125 
L 53.46875 49.03125 
L 53.46875 41.796875 
z
M 4.890625 16.796875 
L 4.890625 24.03125 
L 53.46875 24.03125 
L 53.46875 16.796875 
z
" id="LiberationSans-61"/>
     </defs>
     <g style="fill:#262626;" transform="translate(210.418971 49.085625)scale(0.14 -0.14)">
      <use xlink:href="#LiberationSans-65"/>
      <use x="66.683594" xlink:href="#LiberationSans-118"/>
      <use x="116.683594" xlink:href="#LiberationSans-103"/>
      <use x="172.298828" xlink:href="#LiberationSans-46"/>
      <use x="200.082031" xlink:href="#LiberationSans-32"/>
      <use x="227.865234" xlink:href="#LiberationSans-103"/>
      <use x="283.480469" xlink:href="#LiberationSans-114"/>
      <use x="316.78125" xlink:href="#LiberationSans-111"/>
      <use x="372.396484" xlink:href="#LiberationSans-117"/>
      <use x="428.011719" xlink:href="#LiberationSans-112"/>
      <use x="483.626953" xlink:href="#LiberationSans-32"/>
      <use x="511.410156" xlink:href="#LiberationSans-115"/>
      <use x="561.410156" xlink:href="#LiberationSans-105"/>
      <use x="583.626953" xlink:href="#LiberationSans-122"/>
      <use x="633.626953" xlink:href="#LiberationSans-101"/>
      <use x="689.242188" xlink:href="#LiberationSans-32"/>
      <use x="717.025391" xlink:href="#LiberationSans-61"/>
      <use x="775.423828" xlink:href="#LiberationSans-32"/>
      <use x="803.207031" xlink:href="#LiberationSans-51"/>
      <use x="858.822266" xlink:href="#LiberationSans-51"/>
     </g>
    </g>
    <g id="patch_124">
     <path d="M 171.218971 69.13625 
L 199.218971 69.13625 
L 199.218971 59.33625 
L 171.218971 59.33625 
z
" style="fill:#55a868;opacity:0.4;"/>
    </g>
    <g id="text_13">
     <!-- Avg. group size = 9 -->
     <defs>
      <path d="M 50.875 35.796875 
Q 50.875 18.0625 44.40625 8.53125 
Q 37.9375 -0.984375 25.984375 -0.984375 
Q 17.921875 -0.984375 13.0625 2.40625 
Q 8.203125 5.8125 6.109375 13.375 
L 14.5 14.703125 
Q 17.140625 6.109375 26.125 6.109375 
Q 33.6875 6.109375 37.84375 13.140625 
Q 42 20.171875 42.1875 33.203125 
Q 40.234375 28.8125 35.5 26.140625 
Q 30.765625 23.484375 25.09375 23.484375 
Q 15.828125 23.484375 10.25 29.828125 
Q 4.6875 36.1875 4.6875 46.6875 
Q 4.6875 57.46875 10.734375 63.640625 
Q 16.796875 69.828125 27.59375 69.828125 
Q 39.0625 69.828125 44.96875 61.328125 
Q 50.875 52.828125 50.875 35.796875 
z
M 41.3125 44.28125 
Q 41.3125 52.59375 37.5 57.640625 
Q 33.6875 62.703125 27.296875 62.703125 
Q 20.953125 62.703125 17.28125 58.375 
Q 13.625 54.046875 13.625 46.6875 
Q 13.625 39.15625 17.28125 34.78125 
Q 20.953125 30.421875 27.203125 30.421875 
Q 31 30.421875 34.265625 32.15625 
Q 37.546875 33.890625 39.421875 37.0625 
Q 41.3125 40.234375 41.3125 44.28125 
z
" id="LiberationSans-57"/>
     </defs>
     <g style="fill:#262626;" transform="translate(210.418971 69.13625)scale(0.14 -0.14)">
      <use xlink:href="#LiberationSans-65"/>
      <use x="66.683594" xlink:href="#LiberationSans-118"/>
      <use x="116.683594" xlink:href="#LiberationSans-103"/>
      <use x="172.298828" xlink:href="#LiberationSans-46"/>
      <use x="200.082031" xlink:href="#LiberationSans-32"/>
      <use x="227.865234" xlink:href="#LiberationSans-103"/>
      <use x="283.480469" xlink:href="#LiberationSans-114"/>
      <use x="316.78125" xlink:href="#LiberationSans-111"/>
      <use x="372.396484" xlink:href="#LiberationSans-117"/>
      <use x="428.011719" xlink:href="#LiberationSans-112"/>
      <use x="483.626953" xlink:href="#LiberationSans-32"/>
      <use x="511.410156" xlink:href="#LiberationSans-115"/>
      <use x="561.410156" xlink:href="#LiberationSans-105"/>
      <use x="583.626953" xlink:href="#LiberationSans-122"/>
      <use x="633.626953" xlink:href="#LiberationSans-101"/>
      <use x="689.242188" xlink:href="#LiberationSans-32"/>
      <use x="717.025391" xlink:href="#LiberationSans-61"/>
      <use x="775.423828" xlink:href="#LiberationSans-32"/>
      <use x="803.207031" xlink:href="#LiberationSans-57"/>
     </g>
    </g>
   </g>
  </g>
  <g id="axes_2">
   <g id="patch_125">
    <path d="M 416.985716 195.1 
L 705.794688 195.1 
L 705.794688 26.34 
L 416.985716 26.34 
z
" style="fill:#eaeaf2;"/>
   </g>
   <g id="matplotlib.axis_3">
    <g id="xtick_5">
     <g id="line2d_17">
      <path clip-path="url(#p01a6727136)" d="M 416.985716 195.1 
L 416.985716 26.34 
" style="fill:none;stroke:#ffffff;stroke-linecap:round;"/>
     </g>
     <g id="line2d_18"/>
     <g id="text_14">
      <!-- 0 -->
      <g style="fill:#262626;" transform="translate(413.09306 212.245625)scale(0.14 -0.14)">
       <use xlink:href="#LiberationSans-48"/>
      </g>
     </g>
    </g>
    <g id="xtick_6">
     <g id="line2d_19">
      <path clip-path="url(#p01a6727136)" d="M 501.929531 195.1 
L 501.929531 26.34 
" style="fill:none;stroke:#ffffff;stroke-linecap:round;"/>
     </g>
     <g id="line2d_20"/>
     <g id="text_15">
      <!-- 10 -->
      <g style="fill:#262626;" transform="translate(494.144219 212.245625)scale(0.14 -0.14)">
       <use xlink:href="#LiberationSans-49"/>
       <use x="55.615234" xlink:href="#LiberationSans-48"/>
      </g>
     </g>
    </g>
    <g id="xtick_7">
     <g id="line2d_21">
      <path clip-path="url(#p01a6727136)" d="M 586.873346 195.1 
L 586.873346 26.34 
" style="fill:none;stroke:#ffffff;stroke-linecap:round;"/>
     </g>
     <g id="line2d_22"/>
     <g id="text_16">
      <!-- 20 -->
      <g style="fill:#262626;" transform="translate(579.088034 212.245625)scale(0.14 -0.14)">
       <use xlink:href="#LiberationSans-50"/>
       <use x="55.615234" xlink:href="#LiberationSans-48"/>
      </g>
     </g>
    </g>
    <g id="xtick_8">
     <g id="line2d_23">
      <path clip-path="url(#p01a6727136)" d="M 671.817161 195.1 
L 671.817161 26.34 
" style="fill:none;stroke:#ffffff;stroke-linecap:round;"/>
     </g>
     <g id="line2d_24"/>
     <g id="text_17">
      <!-- 30 -->
      <g style="fill:#262626;" transform="translate(664.031849 212.245625)scale(0.14 -0.14)">
       <use xlink:href="#LiberationSans-51"/>
       <use x="55.615234" xlink:href="#LiberationSans-48"/>
      </g>
     </g>
    </g>
    <g id="text_18">
     <!-- Avg. group size ($E[T_i]$) -->
     <defs>
      <path d="M 16.890625 72.90625 
L 62.984375 72.90625 
L 61.375 64.59375 
L 25.09375 64.59375 
L 20.90625 43.015625 
L 55.71875 43.015625 
L 54.109375 34.71875 
L 19.28125 34.71875 
L 14.203125 8.296875 
L 51.3125 8.296875 
L 49.703125 0 
L 2.6875 0 
z
" id="DejaVuSans-Oblique-69"/>
      <path d="M 8.59375 75.984375 
L 29.296875 75.984375 
L 29.296875 69 
L 17.578125 69 
L 17.578125 -6.203125 
L 29.296875 -6.203125 
L 29.296875 -13.1875 
L 8.59375 -13.1875 
z
" id="DejaVuSans-91"/>
      <path d="M 30.421875 75.984375 
L 30.421875 -13.1875 
L 9.71875 -13.1875 
L 9.71875 -6.203125 
L 21.390625 -6.203125 
L 21.390625 69 
L 9.71875 69 
L 9.71875 75.984375 
z
" id="DejaVuSans-93"/>
     </defs>
     <g style="fill:#262626;" transform="translate(470.580202 232.830625)scale(0.18 -0.18)">
      <use transform="translate(0 0.015625)" xlink:href="#LiberationSans-65"/>
      <use transform="translate(66.699219 0.015625)" xlink:href="#LiberationSans-118"/>
      <use transform="translate(116.699219 0.015625)" xlink:href="#LiberationSans-103"/>
      <use transform="translate(172.314453 0.015625)" xlink:href="#LiberationSans-46"/>
      <use transform="translate(200.097656 0.015625)" xlink:href="#LiberationSans-32"/>
      <use transform="translate(227.880859 0.015625)" xlink:href="#LiberationSans-103"/>
      <use transform="translate(283.496094 0.015625)" xlink:href="#LiberationSans-114"/>
      <use transform="translate(316.796875 0.015625)" xlink:href="#LiberationSans-111"/>
      <use transform="translate(372.412109 0.015625)" xlink:href="#LiberationSans-117"/>
      <use transform="translate(428.027344 0.015625)" xlink:href="#LiberationSans-112"/>
      <use transform="translate(483.642578 0.015625)" xlink:href="#LiberationSans-32"/>
      <use transform="translate(511.425781 0.015625)" xlink:href="#LiberationSans-115"/>
      <use transform="translate(561.425781 0.015625)" xlink:href="#LiberationSans-105"/>
      <use transform="translate(583.642578 0.015625)" xlink:href="#LiberationSans-122"/>
      <use transform="translate(633.642578 0.015625)" xlink:href="#LiberationSans-101"/>
      <use transform="translate(689.257812 0.015625)" xlink:href="#LiberationSans-32"/>
      <use transform="translate(717.041016 0.015625)" xlink:href="#LiberationSans-40"/>
      <use transform="translate(750.341797 0.015625)" xlink:href="#DejaVuSans-Oblique-69"/>
      <use transform="translate(813.525391 0.015625)" xlink:href="#DejaVuSans-91"/>
      <use transform="translate(852.539062 0.015625)" xlink:href="#DejaVuSans-Oblique-84"/>
      <use transform="translate(913.623047 -16.390625)scale(0.7)" xlink:href="#DejaVuSans-Oblique-105"/>
      <use transform="translate(935.805664 0.015625)" xlink:href="#DejaVuSans-93"/>
      <use transform="translate(974.819336 0.015625)" xlink:href="#LiberationSans-41"/>
     </g>
    </g>
   </g>
   <g id="matplotlib.axis_4">
    <g id="ytick_5">
     <g id="line2d_25">
      <path clip-path="url(#p01a6727136)" d="M 416.985716 195.1 
L 705.794688 195.1 
" style="fill:none;stroke:#ffffff;stroke-linecap:round;"/>
     </g>
     <g id="line2d_26"/>
     <g id="text_19">
      <!-- 0.0 -->
      <g style="fill:#262626;" transform="translate(390.525716 200.172812)scale(0.14 -0.14)">
       <use xlink:href="#LiberationSans-48"/>
       <use x="55.615234" xlink:href="#LiberationSans-46"/>
       <use x="83.398438" xlink:href="#LiberationSans-48"/>
      </g>
     </g>
    </g>
    <g id="ytick_6">
     <g id="line2d_27">
      <path clip-path="url(#p01a6727136)" d="M 416.985716 162.478363 
L 705.794688 162.478363 
" style="fill:none;stroke:#ffffff;stroke-linecap:round;"/>
     </g>
     <g id="line2d_28"/>
     <g id="text_20">
      <!-- 0.2 -->
      <g style="fill:#262626;" transform="translate(390.525716 167.551176)scale(0.14 -0.14)">
       <use xlink:href="#LiberationSans-48"/>
       <use x="55.615234" xlink:href="#LiberationSans-46"/>
       <use x="83.398438" xlink:href="#LiberationSans-50"/>
      </g>
     </g>
    </g>
    <g id="ytick_7">
     <g id="line2d_29">
      <path clip-path="url(#p01a6727136)" d="M 416.985716 129.856726 
L 705.794688 129.856726 
" style="fill:none;stroke:#ffffff;stroke-linecap:round;"/>
     </g>
     <g id="line2d_30"/>
     <g id="text_21">
      <!-- 0.4 -->
      <g style="fill:#262626;" transform="translate(390.525716 134.929539)scale(0.14 -0.14)">
       <use xlink:href="#LiberationSans-48"/>
       <use x="55.615234" xlink:href="#LiberationSans-46"/>
       <use x="83.398438" xlink:href="#LiberationSans-52"/>
      </g>
     </g>
    </g>
    <g id="ytick_8">
     <g id="line2d_31">
      <path clip-path="url(#p01a6727136)" d="M 416.985716 97.235089 
L 705.794688 97.235089 
" style="fill:none;stroke:#ffffff;stroke-linecap:round;"/>
     </g>
     <g id="line2d_32"/>
     <g id="text_22">
      <!-- 0.6 -->
      <g style="fill:#262626;" transform="translate(390.525716 102.307902)scale(0.14 -0.14)">
       <use xlink:href="#LiberationSans-48"/>
       <use x="55.615234" xlink:href="#LiberationSans-46"/>
       <use x="83.398438" xlink:href="#LiberationSans-54"/>
      </g>
     </g>
    </g>
    <g id="ytick_9">
     <g id="line2d_33">
      <path clip-path="url(#p01a6727136)" d="M 416.985716 64.613452 
L 705.794688 64.613452 
" style="fill:none;stroke:#ffffff;stroke-linecap:round;"/>
     </g>
     <g id="line2d_34"/>
     <g id="text_23">
      <!-- 0.8 -->
      <defs>
       <path d="M 51.265625 19.1875 
Q 51.265625 9.671875 45.203125 4.34375 
Q 39.15625 -0.984375 27.828125 -0.984375 
Q 16.796875 -0.984375 10.5625 4.234375 
Q 4.34375 9.46875 4.34375 19.09375 
Q 4.34375 25.828125 8.203125 30.421875 
Q 12.0625 35.015625 18.0625 35.984375 
L 18.0625 36.1875 
Q 12.453125 37.5 9.203125 41.890625 
Q 5.953125 46.296875 5.953125 52.203125 
Q 5.953125 60.0625 11.828125 64.9375 
Q 17.71875 69.828125 27.640625 69.828125 
Q 37.796875 69.828125 43.671875 65.03125 
Q 49.5625 60.25 49.5625 52.09375 
Q 49.5625 46.1875 46.28125 41.796875 
Q 43.015625 37.40625 37.359375 36.28125 
L 37.359375 36.078125 
Q 43.953125 35.015625 47.609375 30.5 
Q 51.265625 25.984375 51.265625 19.1875 
z
M 40.4375 51.609375 
Q 40.4375 63.28125 27.640625 63.28125 
Q 21.4375 63.28125 18.1875 60.34375 
Q 14.9375 57.421875 14.9375 51.609375 
Q 14.9375 45.703125 18.28125 42.59375 
Q 21.625 39.5 27.734375 39.5 
Q 33.9375 39.5 37.1875 42.359375 
Q 40.4375 45.21875 40.4375 51.609375 
z
M 42.140625 20.015625 
Q 42.140625 26.421875 38.328125 29.65625 
Q 34.515625 32.90625 27.640625 32.90625 
Q 20.953125 32.90625 17.1875 29.40625 
Q 13.421875 25.921875 13.421875 19.828125 
Q 13.421875 5.609375 27.9375 5.609375 
Q 35.109375 5.609375 38.625 9.046875 
Q 42.140625 12.5 42.140625 20.015625 
z
" id="LiberationSans-56"/>
      </defs>
      <g style="fill:#262626;" transform="translate(390.525716 69.686265)scale(0.14 -0.14)">
       <use xlink:href="#LiberationSans-48"/>
       <use x="55.615234" xlink:href="#LiberationSans-46"/>
       <use x="83.398438" xlink:href="#LiberationSans-56"/>
      </g>
     </g>
    </g>
    <g id="ytick_10">
     <g id="line2d_35">
      <path clip-path="url(#p01a6727136)" d="M 416.985716 31.991815 
L 705.794688 31.991815 
" style="fill:none;stroke:#ffffff;stroke-linecap:round;"/>
     </g>
     <g id="line2d_36"/>
     <g id="text_24">
      <!-- 1.0 -->
      <g style="fill:#262626;" transform="translate(390.525716 37.064628)scale(0.14 -0.14)">
       <use xlink:href="#LiberationSans-49"/>
       <use x="55.615234" xlink:href="#LiberationSans-46"/>
       <use x="83.398438" xlink:href="#LiberationSans-48"/>
      </g>
     </g>
    </g>
    <g id="text_25">
     <!-- Relative efficiency -->
     <defs>
      <path d="M 56.84375 0 
L 38.96875 28.5625 
L 17.53125 28.5625 
L 17.53125 0 
L 8.203125 0 
L 8.203125 68.796875 
L 40.578125 68.796875 
Q 52.203125 68.796875 58.515625 63.59375 
Q 64.84375 58.40625 64.84375 49.125 
Q 64.84375 41.453125 60.375 36.21875 
Q 55.90625 31 48.046875 29.640625 
L 67.578125 0 
z
M 55.46875 49.03125 
Q 55.46875 55.03125 51.390625 58.171875 
Q 47.3125 61.328125 39.65625 61.328125 
L 17.53125 61.328125 
L 17.53125 35.9375 
L 40.046875 35.9375 
Q 47.40625 35.9375 51.4375 39.375 
Q 55.46875 42.828125 55.46875 49.03125 
z
" id="LiberationSans-82"/>
      <path d="M 13.421875 26.65625 
Q 13.421875 16.109375 16.734375 11.03125 
Q 20.0625 5.953125 26.765625 5.953125 
Q 31.453125 5.953125 34.59375 8.484375 
Q 37.75 11.03125 38.484375 16.3125 
L 47.359375 15.71875 
Q 46.34375 8.109375 40.875 3.5625 
Q 35.40625 -0.984375 27 -0.984375 
Q 15.921875 -0.984375 10.078125 6.015625 
Q 4.25 13.03125 4.25 26.46875 
Q 4.25 39.796875 10.109375 46.796875 
Q 15.96875 53.8125 26.90625 53.8125 
Q 35.015625 53.8125 40.359375 49.609375 
Q 45.703125 45.40625 47.078125 38.03125 
L 38.03125 37.359375 
Q 37.359375 41.75 34.5625 44.328125 
Q 31.78125 46.921875 26.65625 46.921875 
Q 19.671875 46.921875 16.546875 42.28125 
Q 13.421875 37.640625 13.421875 26.65625 
z
" id="LiberationSans-99"/>
     </defs>
     <g style="fill:#262626;" transform="translate(382.790716 183.247344)rotate(-90)scale(0.18 -0.18)">
      <use xlink:href="#LiberationSans-82"/>
      <use x="72.216797" xlink:href="#LiberationSans-101"/>
      <use x="127.832031" xlink:href="#LiberationSans-108"/>
      <use x="150.048828" xlink:href="#LiberationSans-97"/>
      <use x="205.664062" xlink:href="#LiberationSans-116"/>
      <use x="233.447266" xlink:href="#LiberationSans-105"/>
      <use x="255.664062" xlink:href="#LiberationSans-118"/>
      <use x="305.664062" xlink:href="#LiberationSans-101"/>
      <use x="361.279297" xlink:href="#LiberationSans-32"/>
      <use x="389.0625" xlink:href="#LiberationSans-101"/>
      <use x="444.677734" xlink:href="#LiberationSans-102"/>
      <use x="472.445312" xlink:href="#LiberationSans-102"/>
      <use x="500.228516" xlink:href="#LiberationSans-105"/>
      <use x="522.445312" xlink:href="#LiberationSans-99"/>
      <use x="572.445312" xlink:href="#LiberationSans-105"/>
      <use x="594.662109" xlink:href="#LiberationSans-101"/>
      <use x="650.277344" xlink:href="#LiberationSans-110"/>
      <use x="705.892578" xlink:href="#LiberationSans-99"/>
      <use x="755.892578" xlink:href="#LiberationSans-121"/>
     </g>
    </g>
   </g>
   <g id="line2d_37">
    <path clip-path="url(#p01a6727136)" d="M 433.974479 34.813526 
L 442.468861 38.022759 
L 459.457624 29.342049 
L 493.43515 42.29757 
L 527.412676 39.506609 
L 561.390202 32.22137 
L 629.345254 44.338845 
L 697.300306 44.251516 
" style="fill:none;stroke:#4c72b0;stroke-linecap:round;stroke-opacity:0.8;stroke-width:4;"/>
    <defs>
     <path d="M 0 1.75 
C 0.464105 1.75 0.909265 1.565609 1.237437 1.237437 
C 1.565609 0.909265 1.75 0.464105 1.75 0 
C 1.75 -0.464105 1.565609 -0.909265 1.237437 -1.237437 
C 0.909265 -1.565609 0.464105 -1.75 0 -1.75 
C -0.464105 -1.75 -0.909265 -1.565609 -1.237437 -1.237437 
C -1.565609 -0.909265 -1.75 -0.464105 -1.75 0 
C -1.75 0.464105 -1.565609 0.909265 -1.237437 1.237437 
C -0.909265 1.565609 -0.464105 1.75 0 1.75 
z
" id="md44936bf89"/>
    </defs>
    <g clip-path="url(#p01a6727136)">
     <use style="fill:#4c72b0;fill-opacity:0.8;" x="433.974479" xlink:href="#md44936bf89" y="34.813526"/>
     <use style="fill:#4c72b0;fill-opacity:0.8;" x="442.468861" xlink:href="#md44936bf89" y="38.022759"/>
     <use style="fill:#4c72b0;fill-opacity:0.8;" x="459.457624" xlink:href="#md44936bf89" y="29.342049"/>
     <use style="fill:#4c72b0;fill-opacity:0.8;" x="493.43515" xlink:href="#md44936bf89" y="42.29757"/>
     <use style="fill:#4c72b0;fill-opacity:0.8;" x="527.412676" xlink:href="#md44936bf89" y="39.506609"/>
     <use style="fill:#4c72b0;fill-opacity:0.8;" x="561.390202" xlink:href="#md44936bf89" y="32.22137"/>
     <use style="fill:#4c72b0;fill-opacity:0.8;" x="629.345254" xlink:href="#md44936bf89" y="44.338845"/>
     <use style="fill:#4c72b0;fill-opacity:0.8;" x="697.300306" xlink:href="#md44936bf89" y="44.251516"/>
    </g>
   </g>
   <g id="line2d_38">
    <path clip-path="url(#p01a6727136)" d="M 433.974479 89.383034 
L 442.468861 78.125953 
L 459.457624 64.583924 
L 493.43515 36.891607 
L 527.412676 38.793689 
L 561.390202 39.027558 
L 629.345254 31.787342 
L 697.300306 32.229792 
" style="fill:none;stroke:#55a868;stroke-linecap:round;stroke-opacity:0.8;stroke-width:4;"/>
    <defs>
     <path d="M 0 1.75 
C 0.464105 1.75 0.909265 1.565609 1.237437 1.237437 
C 1.565609 0.909265 1.75 0.464105 1.75 0 
C 1.75 -0.464105 1.565609 -0.909265 1.237437 -1.237437 
C 0.909265 -1.565609 0.464105 -1.75 0 -1.75 
C -0.464105 -1.75 -0.909265 -1.565609 -1.237437 -1.237437 
C -1.565609 -0.909265 -1.75 -0.464105 -1.75 0 
C -1.75 0.464105 -1.565609 0.909265 -1.237437 1.237437 
C -0.909265 1.565609 -0.464105 1.75 0 1.75 
z
" id="m1d0b7b3e65"/>
    </defs>
    <g clip-path="url(#p01a6727136)">
     <use style="fill:#55a868;fill-opacity:0.8;" x="433.974479" xlink:href="#m1d0b7b3e65" y="89.383034"/>
     <use style="fill:#55a868;fill-opacity:0.8;" x="442.468861" xlink:href="#m1d0b7b3e65" y="78.125953"/>
     <use style="fill:#55a868;fill-opacity:0.8;" x="459.457624" xlink:href="#m1d0b7b3e65" y="64.583924"/>
     <use style="fill:#55a868;fill-opacity:0.8;" x="493.43515" xlink:href="#m1d0b7b3e65" y="36.891607"/>
     <use style="fill:#55a868;fill-opacity:0.8;" x="527.412676" xlink:href="#m1d0b7b3e65" y="38.793689"/>
     <use style="fill:#55a868;fill-opacity:0.8;" x="561.390202" xlink:href="#m1d0b7b3e65" y="39.027558"/>
     <use style="fill:#55a868;fill-opacity:0.8;" x="629.345254" xlink:href="#m1d0b7b3e65" y="31.787342"/>
     <use style="fill:#55a868;fill-opacity:0.8;" x="697.300306" xlink:href="#m1d0b7b3e65" y="32.229792"/>
    </g>
   </g>
   <g id="line2d_39">
    <path clip-path="url(#p01a6727136)" d="M 433.974479 31.991815 
L 442.468861 31.991815 
L 459.457624 31.991815 
L 493.43515 31.991815 
L 527.412676 31.991815 
L 561.390202 31.991815 
L 629.345254 31.991815 
L 697.300306 31.991815 
" style="fill:none;stroke:#c44e52;stroke-linecap:round;stroke-opacity:0.8;stroke-width:4;"/>
    <defs>
     <path d="M 0 1.75 
C 0.464105 1.75 0.909265 1.565609 1.237437 1.237437 
C 1.565609 0.909265 1.75 0.464105 1.75 0 
C 1.75 -0.464105 1.565609 -0.909265 1.237437 -1.237437 
C 0.909265 -1.565609 0.464105 -1.75 0 -1.75 
C -0.464105 -1.75 -0.909265 -1.565609 -1.237437 -1.237437 
C -1.565609 -0.909265 -1.75 -0.464105 -1.75 0 
C -1.75 0.464105 -1.565609 0.909265 -1.237437 1.237437 
C -0.909265 1.565609 -0.464105 1.75 0 1.75 
z
" id="m5c2185b8f2"/>
    </defs>
    <g clip-path="url(#p01a6727136)">
     <use style="fill:#c44e52;fill-opacity:0.8;" x="433.974479" xlink:href="#m5c2185b8f2" y="31.991815"/>
     <use style="fill:#c44e52;fill-opacity:0.8;" x="442.468861" xlink:href="#m5c2185b8f2" y="31.991815"/>
     <use style="fill:#c44e52;fill-opacity:0.8;" x="459.457624" xlink:href="#m5c2185b8f2" y="31.991815"/>
     <use style="fill:#c44e52;fill-opacity:0.8;" x="493.43515" xlink:href="#m5c2185b8f2" y="31.991815"/>
     <use style="fill:#c44e52;fill-opacity:0.8;" x="527.412676" xlink:href="#m5c2185b8f2" y="31.991815"/>
     <use style="fill:#c44e52;fill-opacity:0.8;" x="561.390202" xlink:href="#m5c2185b8f2" y="31.991815"/>
     <use style="fill:#c44e52;fill-opacity:0.8;" x="629.345254" xlink:href="#m5c2185b8f2" y="31.991815"/>
     <use style="fill:#c44e52;fill-opacity:0.8;" x="697.300306" xlink:href="#m5c2185b8f2" y="31.991815"/>
    </g>
   </g>
   <g id="patch_126">
    <path d="M 416.985716 195.1 
L 416.985716 26.34 
" style="fill:none;"/>
   </g>
   <g id="patch_127">
    <path d="M 705.794688 195.1 
L 705.794688 26.34 
" style="fill:none;"/>
   </g>
   <g id="patch_128">
    <path d="M 416.985716 195.1 
L 705.794688 195.1 
" style="fill:none;"/>
   </g>
   <g id="patch_129">
    <path d="M 416.985716 26.34 
L 705.794688 26.34 
" style="fill:none;"/>
   </g>
   <g id="text_26">
    <!-- Performance of estimators -->
    <g style="fill:#262626;" transform="translate(455.858171 20.34)scale(0.18 -0.18)">
     <use xlink:href="#LiberationSans-80"/>
     <use x="66.699219" xlink:href="#LiberationSans-101"/>
     <use x="122.314453" xlink:href="#LiberationSans-114"/>
     <use x="155.615234" xlink:href="#LiberationSans-102"/>
     <use x="183.398438" xlink:href="#LiberationSans-111"/>
     <use x="239.013672" xlink:href="#LiberationSans-114"/>
     <use x="272.314453" xlink:href="#LiberationSans-109"/>
     <use x="355.615234" xlink:href="#LiberationSans-97"/>
     <use x="411.230469" xlink:href="#LiberationSans-110"/>
     <use x="466.845703" xlink:href="#LiberationSans-99"/>
     <use x="516.845703" xlink:href="#LiberationSans-101"/>
     <use x="572.460938" xlink:href="#LiberationSans-32"/>
     <use x="600.244141" xlink:href="#LiberationSans-111"/>
     <use x="655.859375" xlink:href="#LiberationSans-102"/>
     <use x="683.642578" xlink:href="#LiberationSans-32"/>
     <use x="711.425781" xlink:href="#LiberationSans-101"/>
     <use x="767.041016" xlink:href="#LiberationSans-115"/>
     <use x="817.041016" xlink:href="#LiberationSans-116"/>
     <use x="844.824219" xlink:href="#LiberationSans-105"/>
     <use x="867.041016" xlink:href="#LiberationSans-109"/>
     <use x="950.341797" xlink:href="#LiberationSans-97"/>
     <use x="1005.957031" xlink:href="#LiberationSans-116"/>
     <use x="1033.740234" xlink:href="#LiberationSans-111"/>
     <use x="1089.355469" xlink:href="#LiberationSans-114"/>
     <use x="1122.65625" xlink:href="#LiberationSans-115"/>
    </g>
   </g>
   <g id="legend_2">
    <g id="line2d_40">
     <path d="M 429.585716 134.59375 
L 457.585716 134.59375 
" style="fill:none;stroke:#4c72b0;stroke-linecap:round;stroke-opacity:0.8;stroke-width:4;"/>
    </g>
    <g id="line2d_41">
     <g>
      <use style="fill:#4c72b0;fill-opacity:0.8;" x="443.585716" xlink:href="#md44936bf89" y="134.59375"/>
     </g>
    </g>
    <g id="text_27">
     <!-- Pooled OLS -->
     <defs>
      <path d="M 73 34.71875 
Q 73 23.921875 68.875 15.8125 
Q 64.75 7.71875 57.03125 3.359375 
Q 49.3125 -0.984375 38.8125 -0.984375 
Q 28.21875 -0.984375 20.53125 3.3125 
Q 12.84375 7.625 8.78125 15.75 
Q 4.734375 23.875 4.734375 34.71875 
Q 4.734375 51.21875 13.765625 60.515625 
Q 22.796875 69.828125 38.921875 69.828125 
Q 49.421875 69.828125 57.125 65.640625 
Q 64.84375 61.46875 68.921875 53.515625 
Q 73 45.5625 73 34.71875 
z
M 63.484375 34.71875 
Q 63.484375 47.5625 57.0625 54.875 
Q 50.640625 62.203125 38.921875 62.203125 
Q 27.09375 62.203125 20.640625 54.96875 
Q 14.203125 47.75 14.203125 34.71875 
Q 14.203125 21.78125 20.71875 14.1875 
Q 27.25 6.59375 38.8125 6.59375 
Q 50.734375 6.59375 57.109375 13.9375 
Q 63.484375 21.296875 63.484375 34.71875 
z
" id="LiberationSans-79"/>
      <path d="M 8.203125 0 
L 8.203125 68.796875 
L 17.53125 68.796875 
L 17.53125 7.625 
L 52.296875 7.625 
L 52.296875 0 
z
" id="LiberationSans-76"/>
      <path d="M 62.109375 19 
Q 62.109375 9.46875 54.65625 4.234375 
Q 47.21875 -0.984375 33.6875 -0.984375 
Q 8.546875 -0.984375 4.546875 16.5 
L 13.578125 18.3125 
Q 15.140625 12.109375 20.21875 9.203125 
Q 25.296875 6.296875 34.03125 6.296875 
Q 43.0625 6.296875 47.96875 9.390625 
Q 52.875 12.5 52.875 18.5 
Q 52.875 21.875 51.34375 23.96875 
Q 49.8125 26.078125 47.015625 27.4375 
Q 44.234375 28.8125 40.375 29.734375 
Q 36.53125 30.671875 31.84375 31.734375 
Q 23.6875 33.546875 19.453125 35.34375 
Q 15.234375 37.15625 12.796875 39.375 
Q 10.359375 41.609375 9.0625 44.578125 
Q 7.765625 47.5625 7.765625 51.421875 
Q 7.765625 60.25 14.53125 65.03125 
Q 21.296875 69.828125 33.890625 69.828125 
Q 45.609375 69.828125 51.8125 66.234375 
Q 58.015625 62.640625 60.5 54 
L 51.3125 52.390625 
Q 49.8125 57.859375 45.5625 60.328125 
Q 41.3125 62.796875 33.796875 62.796875 
Q 25.53125 62.796875 21.1875 60.0625 
Q 16.84375 57.328125 16.84375 51.90625 
Q 16.84375 48.734375 18.53125 46.65625 
Q 20.21875 44.578125 23.390625 43.140625 
Q 26.5625 41.703125 36.03125 39.59375 
Q 39.203125 38.875 42.359375 38.109375 
Q 45.515625 37.359375 48.390625 36.296875 
Q 51.265625 35.25 53.78125 33.828125 
Q 56.296875 32.421875 58.15625 30.375 
Q 60.015625 28.328125 61.0625 25.53125 
Q 62.109375 22.75 62.109375 19 
z
" id="LiberationSans-83"/>
     </defs>
     <g style="fill:#262626;" transform="translate(468.785716 139.49375)scale(0.14 -0.14)">
      <use xlink:href="#LiberationSans-80"/>
      <use x="66.699219" xlink:href="#LiberationSans-111"/>
      <use x="122.314453" xlink:href="#LiberationSans-111"/>
      <use x="177.929688" xlink:href="#LiberationSans-108"/>
      <use x="200.146484" xlink:href="#LiberationSans-101"/>
      <use x="255.761719" xlink:href="#LiberationSans-100"/>
      <use x="311.376953" xlink:href="#LiberationSans-32"/>
      <use x="339.160156" xlink:href="#LiberationSans-79"/>
      <use x="416.943359" xlink:href="#LiberationSans-76"/>
      <use x="472.558594" xlink:href="#LiberationSans-83"/>
     </g>
    </g>
    <g id="line2d_42">
     <path d="M 429.585716 154.644375 
L 457.585716 154.644375 
" style="fill:none;stroke:#55a868;stroke-linecap:round;stroke-opacity:0.8;stroke-width:4;"/>
    </g>
    <g id="line2d_43">
     <g>
      <use style="fill:#55a868;fill-opacity:0.8;" x="443.585716" xlink:href="#m1d0b7b3e65" y="154.644375"/>
     </g>
    </g>
    <g id="text_28">
     <!-- Fixed effects -->
     <defs>
      <path d="M 17.53125 61.1875 
L 17.53125 35.59375 
L 55.90625 35.59375 
L 55.90625 27.875 
L 17.53125 27.875 
L 17.53125 0 
L 8.203125 0 
L 8.203125 68.796875 
L 57.078125 68.796875 
L 57.078125 61.1875 
z
" id="LiberationSans-70"/>
     </defs>
     <g style="fill:#262626;" transform="translate(468.785716 159.544375)scale(0.14 -0.14)">
      <use xlink:href="#LiberationSans-70"/>
      <use x="61.083984" xlink:href="#LiberationSans-105"/>
      <use x="83.300781" xlink:href="#LiberationSans-120"/>
      <use x="133.300781" xlink:href="#LiberationSans-101"/>
      <use x="188.916016" xlink:href="#LiberationSans-100"/>
      <use x="244.53125" xlink:href="#LiberationSans-32"/>
      <use x="272.314453" xlink:href="#LiberationSans-101"/>
      <use x="327.929688" xlink:href="#LiberationSans-102"/>
      <use x="355.697266" xlink:href="#LiberationSans-102"/>
      <use x="383.480469" xlink:href="#LiberationSans-101"/>
      <use x="439.095703" xlink:href="#LiberationSans-99"/>
      <use x="489.095703" xlink:href="#LiberationSans-116"/>
      <use x="516.878906" xlink:href="#LiberationSans-115"/>
     </g>
    </g>
    <g id="line2d_44">
     <path d="M 429.585716 174.695 
L 457.585716 174.695 
" style="fill:none;stroke:#c44e52;stroke-linecap:round;stroke-opacity:0.8;stroke-width:4;"/>
    </g>
    <g id="line2d_45">
     <g>
      <use style="fill:#c44e52;fill-opacity:0.8;" x="443.585716" xlink:href="#m5c2185b8f2" y="174.695"/>
     </g>
    </g>
    <g id="text_29">
     <!-- Random effects -->
     <g style="fill:#262626;" transform="translate(468.785716 179.595)scale(0.14 -0.14)">
      <use xlink:href="#LiberationSans-82"/>
      <use x="72.216797" xlink:href="#LiberationSans-97"/>
      <use x="127.832031" xlink:href="#LiberationSans-110"/>
      <use x="183.447266" xlink:href="#LiberationSans-100"/>
      <use x="239.0625" xlink:href="#LiberationSans-111"/>
      <use x="294.677734" xlink:href="#LiberationSans-109"/>
      <use x="377.978516" xlink:href="#LiberationSans-32"/>
      <use x="405.761719" xlink:href="#LiberationSans-101"/>
      <use x="461.376953" xlink:href="#LiberationSans-102"/>
      <use x="489.144531" xlink:href="#LiberationSans-102"/>
      <use x="516.927734" xlink:href="#LiberationSans-101"/>
      <use x="572.542969" xlink:href="#LiberationSans-99"/>
      <use x="622.542969" xlink:href="#LiberationSans-116"/>
      <use x="650.326172" xlink:href="#LiberationSans-115"/>
     </g>
    </g>
   </g>
  </g>
 </g>
 <defs>
  <clipPath id="p5260a960be">
   <rect height="168.76" width="288.808971" x="62.224688" y="26.34"/>
  </clipPath>
  <clipPath id="p01a6727136">
   <rect height="168.76" width="288.808971" x="416.985716" y="26.34"/>
  </clipPath>
 </defs>
</svg>
